Bold.ufo
<glyph name="uni0021" format="2">
  <advance width="332"/>
  <unicode hex="0021"/>
  <outline>
    <contour>
      <point x="198" y="217" type="line"/>
      <point x="244" y="528" type="line"/>
      <point x="244" y="733" type="line"/>
      <point x="88" y="733" type="line"/>
      <point x="88" y="528" type="line"/>
      <point x="134" y="217" type="line"/>
    </contour>
    <contour>
      <point x="166" y="-13" type="curve" smooth="yes"/>
      <point x="229" y="-13"/>
      <point x="255" y="20"/>
      <point x="255" y="63" type="curve" smooth="yes"/>
      <point x="255" y="87" type="line" smooth="yes"/>
      <point x="255" y="130"/>
      <point x="229" y="163"/>
      <point x="166" y="163" type="curve" smooth="yes"/>
      <point x="103" y="163"/>
      <point x="77" y="130"/>
      <point x="77" y="87" type="curve" smooth="yes"/>
      <point x="77" y="63" type="line" smooth="yes"/>
      <point x="77" y="20"/>
      <point x="103" y="-13"/>
    </contour>
  </outline>
</glyph>
<glyph name="uni0023" format="2">
  <advance width="674"/>
  <unicode hex="0023"/>
  <outline>
    <contour>
      <point x="187" y="0" type="line"/>
      <point x="219" y="187" type="line"/>
      <point x="391" y="187" type="line"/>
      <point x="359" y="0" type="line"/>
      <point x="453" y="0" type="line"/>
      <point x="485" y="187" type="line"/>
      <point x="609" y="187" type="line"/>
      <point x="609" y="277" type="line"/>
      <point x="501" y="277" type="line"/>
      <point x="533" y="460" type="line"/>
      <point x="655" y="460" type="line"/>
      <point x="655" y="550" type="line"/>
      <point x="548" y="550" type="line"/>
      <point x="580" y="733" type="line"/>
      <point x="485" y="733" type="line"/>
      <point x="454" y="550" type="line"/>
      <point x="282" y="550" type="line"/>
      <point x="314" y="733" type="line"/>
      <point x="220" y="733" type="line"/>
      <point x="188" y="550" type="line"/>
      <point x="66" y="550" type="line"/>
      <point x="66" y="460" type="line"/>
      <point x="173" y="460" type="line"/>
      <point x="141" y="277" type="line"/>
      <point x="19" y="277" type="line"/>
      <point x="19" y="187" type="line"/>
      <point x="125" y="187" type="line"/>
      <point x="93" y="0" type="line"/>
    </contour>
    <contour>
      <point x="267" y="460" type="line"/>
      <point x="438" y="460" type="line"/>
      <point x="407" y="277" type="line"/>
      <point x="235" y="277" type="line"/>
    </contour>
  </outline>
</glyph>
<glyph name="uni0024" format="2">
  <advance width="631"/>
  <unicode hex="0024"/>
  <outline>
    <contour>
      <point x="329" y="10" type="line"/>
      <point x="503" y="10"/>
      <point x="585" y="115"/>
      <point x="585" y="226" type="curve" smooth="yes"/>
      <point x="585" y="337"/>
      <point x="506" y="394"/>
      <point x="345" y="430" type="curve" smooth="yes"/>
      <point x="300" y="440" type="line" smooth="yes"/>
      <point x="229" y="456"/>
      <point x="196" y="479"/>
      <point x="196" y="528" type="curve" smooth="yes"/>
      <point x="196" y="578"/>
      <point x="233" y="614"/>
      <point x="309" y="614" type="curve" smooth="yes"/>
      <point x="334" y="614" type="line"/>
      <point x="411" y="614"/>
      <point x="453" y="575"/>
      <point x="481" y="543" type="curve"/>
      <point x="573" y="625" type="line"/>
      <point x="523" y="683"/>
      <point x="448" y="724"/>
      <point x="334" y="724" type="curve"/>
      <point x="309" y="724" type="line"/>
      <point x="142" y="724"/>
      <point x="58" y="640"/>
      <point x="58" y="524" type="curve" smooth="yes"/>
      <point x="58" y="416"/>
      <point x="129" y="348"/>
      <point x="300" y="314" type="curve" smooth="yes"/>
      <point x="340" y="306" type="line" smooth="yes"/>
      <point x="427" y="289"/>
      <point x="447" y="256"/>
      <point x="447" y="215" type="curve" smooth="yes"/>
      <point x="447" y="161"/>
      <point x="409" y="122"/>
      <point x="328" y="122" type="curve"/>
      <point x="313" y="122" type="line"/>
      <point x="233" y="122"/>
      <point x="176" y="152"/>
      <point x="127" y="204" type="curve"/>
      <point x="36" y="121" type="line"/>
      <point x="93" y="54"/>
      <point x="166" y="13"/>
      <point x="297" y="10" type="curve"/>
    </contour>
    <contour>
      <point x="379" y="-86" type="line"/>
      <point x="379" y="30" type="line"/>
      <point x="265" y="30" type="line"/>
      <point x="265" y="-86" type="line"/>
    </contour>
    <contour>
      <point x="367" y="106" type="line"/>
      <point x="367" y="336" type="line"/>
      <point x="278" y="336" type="line"/>
      <point x="278" y="106" type="line"/>
    </contour>
    <contour>
      <point x="367" y="410" type="line"/>
      <point x="367" y="627" type="line"/>
      <point x="278" y="628" type="line"/>
      <point x="278" y="410" type="line"/>
    </contour>
    <contour>
      <point x="379" y="706" type="line"/>
      <point x="379" y="819" type="line"/>
      <point x="265" y="819" type="line"/>
      <point x="265" y="705" type="line"/>
    </contour>
  </outline>
</glyph>
<glyph name="uni0025" format="2">
  <advance width="1021"/>
  <unicode hex="0025"/>
  <outline>
    <contour>
      <point x="323" y="0" type="line"/>
      <point x="831" y="733" type="line"/>
      <point x="698" y="733" type="line"/>
      <point x="190" y="0" type="line"/>
    </contour>
    <contour>
      <point x="243" y="330" type="curve" smooth="yes"/>
      <point x="363" y="330"/>
      <point x="429" y="401"/>
      <point x="429" y="538" type="curve" smooth="yes"/>
      <point x="429" y="674"/>
      <point x="363" y="746"/>
      <point x="243" y="746" type="curve" smooth="yes"/>
      <point x="123" y="746"/>
      <point x="57" y="674"/>
      <point x="57" y="538" type="curve" smooth="yes"/>
      <point x="57" y="401"/>
      <point x="123" y="330"/>
    </contour>
    <contour>
      <point x="243" y="416" type="curve" smooth="yes"/>
      <point x="204" y="416"/>
      <point x="184" y="445"/>
      <point x="184" y="510" type="curve" smooth="yes"/>
      <point x="184" y="566" type="line" smooth="yes"/>
      <point x="184" y="631"/>
      <point x="204" y="660"/>
      <point x="243" y="660" type="curve" smooth="yes"/>
      <point x="282" y="660"/>
      <point x="302" y="631"/>
      <point x="302" y="566" type="curve" smooth="yes"/>
      <point x="302" y="510" type="line" smooth="yes"/>
      <point x="302" y="445"/>
      <point x="282" y="416"/>
    </contour>
    <contour>
      <point x="778" y="-13" type="curve" smooth="yes"/>
      <point x="898" y="-13"/>
      <point x="964" y="59"/>
      <point x="964" y="195" type="curve" smooth="yes"/>
      <point x="964" y="332"/>
      <point x="898" y="403"/>
      <point x="778" y="403" type="curve" smooth="yes"/>
      <point x="658" y="403"/>
      <point x="592" y="332"/>
      <point x="592" y="195" type="curve" smooth="yes"/>
      <point x="592" y="59"/>
      <point x="658" y="-13"/>
    </contour>
    <contour>
      <point x="778" y="73" type="curve" smooth="yes"/>
      <point x="739" y="73"/>
      <point x="719" y="102"/>
      <point x="719" y="167" type="curve" smooth="yes"/>
      <point x="719" y="223" type="line" smooth="yes"/>
      <point x="719" y="288"/>
      <point x="739" y="317"/>
      <point x="778" y="317" type="curve" smooth="yes"/>
      <point x="817" y="317"/>
      <point x="837" y="288"/>
      <point x="837" y="223" type="curve" smooth="yes"/>
      <point x="837" y="167" type="line" smooth="yes"/>
      <point x="837" y="102"/>
      <point x="817" y="73"/>
    </contour>
  </outline>
</glyph>
<glyph name="uni0026" format="2">
  <advance width="757"/>
  <unicode hex="0026"/>
  <outline>
    <contour>
      <point x="301" y="-13" type="curve" smooth="yes"/>
      <point x="405" y="-13"/>
      <point x="467" y="25"/>
      <point x="511" y="63" type="curve"/>
      <point x="569" y="0" type="line"/>
      <point x="748" y="0" type="line"/>
      <point x="602" y="158" type="line"/>
      <point x="623" y="193"/>
      <point x="639" y="234"/>
      <point x="650" y="280" type="curve"/>
      <point x="717" y="280" type="line"/>
      <point x="717" y="402" type="line"/>
      <point x="545" y="402" type="line"/>
      <point x="542" y="351"/>
      <point x="532" y="298"/>
      <point x="515" y="252" type="curve"/>
      <point x="395" y="382" type="line"/>
      <point x="476" y="430"/>
      <point x="543" y="486"/>
      <point x="543" y="579" type="curve" smooth="yes"/>
      <point x="543" y="685"/>
      <point x="455" y="746"/>
      <point x="337" y="746" type="curve" smooth="yes"/>
      <point x="205" y="746"/>
      <point x="121" y="667"/>
      <point x="121" y="570" type="curve" smooth="yes"/>
      <point x="121" y="503"/>
      <point x="161" y="443"/>
      <point x="203" y="396" type="curve"/>
      <point x="118" y="348"/>
      <point x="56" y="293"/>
      <point x="56" y="192" type="curve" smooth="yes"/>
      <point x="56" y="75"/>
      <point x="142" y="-13"/>
    </contour>
    <contour>
      <point x="322" y="110" type="curve" smooth="yes"/>
      <point x="246" y="110"/>
      <point x="205" y="150"/>
      <point x="205" y="206" type="curve" smooth="yes"/>
      <point x="205" y="217" type="line" smooth="yes"/>
      <point x="205" y="260"/>
      <point x="227" y="290"/>
      <point x="275" y="318" type="curve"/>
      <point x="435" y="145" type="line"/>
      <point x="405" y="123"/>
      <point x="367" y="110"/>
    </contour>
    <contour>
      <point x="323" y="460" type="curve"/>
      <point x="279" y="508"/>
      <point x="261" y="534"/>
      <point x="261" y="563" type="curve" smooth="yes"/>
      <point x="261" y="568" type="line" smooth="yes"/>
      <point x="261" y="608"/>
      <point x="292" y="633"/>
      <point x="333" y="633" type="curve" smooth="yes"/>
      <point x="372" y="633"/>
      <point x="403" y="609"/>
      <point x="403" y="569" type="curve" smooth="yes"/>
      <point x="403" y="564" type="line" smooth="yes"/>
      <point x="403" y="520"/>
      <point x="373" y="491"/>
    </contour>
  </outline>
</glyph>
<glyph name="uni0027" format="2">
  <advance width="280"/>
  <unicode hex="0027"/>
  <outline>
    <contour>
      <point x="206" y="441" type="line"/>
      <point x="206" y="777" type="line"/>
      <point x="74" y="777" type="line"/>
      <point x="74" y="441" type="line"/>
    </contour>
  </outline>
</glyph>
<glyph name="uni0028" format="2">
  <advance width="354"/>
  <unicode hex="0028"/>
  <outline>
    <contour>
      <point x="40" y="328" type="curve" smooth="yes"/>
      <point x="40" y="124"/>
      <point x="120" y="-54"/>
      <point x="224" y="-144" type="curve"/>
      <point x="364" y="-144" type="line"/>
      <point x="250" y="-39"/>
      <point x="180" y="115"/>
      <point x="180" y="290" type="curve" smooth="yes"/>
      <point x="180" y="365" type="line" smooth="yes"/>
      <point x="180" y="540"/>
      <point x="250" y="694"/>
      <point x="364" y="799" type="curve"/>
      <point x="224" y="799" type="line"/>
      <point x="119" y="708"/>
      <point x="40" y="531"/>
    </contour>
  </outline>
</glyph>
<glyph name="uni002C" format="2">
  <advance width="326"/>
  <unicode hex="002C"/>
  <outline>
    <contour>
      <point x="144" y="-149" type="line"/>
      <point x="208" y="-100"/>
      <point x="251" y="-14"/>
      <point x="251" y="67" type="curve" smooth="yes"/>
      <point x="251" y="87" type="line" smooth="yes"/>
      <point x="251" y="133"/>
      <point x="223" y="167"/>
      <point x="163" y="167" type="curve" smooth="yes"/>
      <point x="103" y="167"/>
      <point x="75" y="133"/>
      <point x="75" y="87" type="curve" smooth="yes"/>
      <point x="75" y="67" type="line" smooth="yes"/>
      <point x="75" y="28"/>
      <point x="96" y="-3"/>
      <point x="142" y="-11" type="curve"/>
      <point x="125" y="-64"/>
      <point x="91" y="-105"/>
      <point x="44" y="-149" type="curve"/>
    </contour>
  </outline>
</glyph>
<glyph name="uni002D" format="2">
  <advance width="423"/>
  <unicode hex="002D"/>
  <unicode hex="2011"/>
  <outline>
    <contour>
      <point x="366" y="248" type="line"/>
      <point x="366" y="392" type="line"/>
      <point x="57" y="392" type="line"/>
      <point x="57" y="248" type="line"/>
    </contour>
  </outline>
</glyph>
<glyph name="uni002F" format="2">
  <advance width="482"/>
  <unicode hex="002F"/>
  <outline>
    <contour>
      <point x="131" y="-159" type="line"/>
      <point x="439" y="777" type="line"/>
      <point x="317" y="777" type="line"/>
      <point x="9" y="-159" type="line"/>
    </contour>
  </outline>
</glyph>
<glyph name="uni0031" format="2">
  <advance width="630"/>
  <unicode hex="0031"/>
  <outline>
    <contour>
      <point x="605" y="121" type="line"/>
      <point x="446" y="121" type="line"/>
      <point x="446" y="733" type="line"/>
      <point x="216" y="733" type="line"/>
      <point x="39" y="508" type="line"/>
      <point x="134" y="432" type="line"/>
      <point x="287" y="624" type="line"/>
      <point x="296" y="624" type="line"/>
      <point x="296" y="121" type="line"/>
      <point x="98" y="121" type="line"/>
      <point x="98" y="0" type="line"/>
      <point x="605" y="0" type="line"/>
    </contour>
  </outline>
</glyph>
<glyph name="uni0034" format="2">
  <advance width="630"/>
  <unicode hex="0034"/>
  <outline>
    <contour>
      <point x="501" y="142" type="line"/>
      <point x="595" y="142" type="line"/>
      <point x="595" y="258" type="line"/>
      <point x="501" y="258" type="line"/>
      <point x="501" y="733" type="line"/>
      <point x="323" y="733" type="line"/>
      <point x="33" y="270" type="line"/>
      <point x="33" y="142" type="line"/>
      <point x="358" y="142" type="line"/>
      <point x="358" y="0" type="line"/>
      <point x="501" y="0" type="line"/>
    </contour>
    <contour>
      <point x="358" y="581" type="line"/>
      <point x="358" y="258" type="line"/>
      <point x="153" y="258" type="line"/>
      <point x="348" y="581" type="line"/>
    </contour>
  </outline>
</glyph>
<glyph name="uni0036" format="2">
  <advance width="630"/>
  <unicode hex="0036"/>
  <outline>
    <contour>
      <point x="319" y="-13" type="curve" smooth="yes"/>
      <point x="483" y="-13"/>
      <point x="590" y="94"/>
      <point x="590" y="243" type="curve" smooth="yes"/>
      <point x="590" y="381"/>
      <point x="497" y="471"/>
      <point x="376" y="471" type="curve" smooth="yes"/>
      <point x="283" y="471"/>
      <point x="239" y="417"/>
      <point x="212" y="361" type="curve"/>
      <point x="204" y="364" type="line"/>
      <point x="234" y="507"/>
      <point x="338" y="607"/>
      <point x="515" y="733" type="curve"/>
      <point x="312" y="733" type="line"/>
      <point x="187" y="649"/>
      <point x="47" y="484"/>
      <point x="47" y="277" type="curve" smooth="yes"/>
      <point x="47" y="101"/>
      <point x="147" y="-13"/>
    </contour>
    <contour>
      <point x="319" y="104" type="curve" smooth="yes"/>
      <point x="246" y="104"/>
      <point x="203" y="145"/>
      <point x="203" y="222" type="curve" smooth="yes"/>
      <point x="203" y="238" type="line" smooth="yes"/>
      <point x="203" y="315"/>
      <point x="246" y="356"/>
      <point x="319" y="356" type="curve" smooth="yes"/>
      <point x="391" y="356"/>
      <point x="434" y="315"/>
      <point x="434" y="238" type="curve" smooth="yes"/>
      <point x="434" y="222" type="line" smooth="yes"/>
      <point x="434" y="145"/>
      <point x="391" y="104"/>
    </contour>
  </outline>
</glyph>
<glyph name="uni0037" format="2">
  <advance width="630"/>
  <unicode hex="0037"/>
  <outline>
    <contour>
      <point x="575" y="603" type="line"/>
      <point x="575" y="733" type="line"/>
      <point x="60" y="733" type="line"/>
      <point x="60" y="477" type="line"/>
      <point x="187" y="477" type="line"/>
      <point x="187" y="611" type="line"/>
      <point x="426" y="611" type="line"/>
      <point x="177" y="0" type="line"/>
      <point x="335" y="0" type="line"/>
    </contour>
  </outline>
</glyph>
<glyph name="uni0038" format="2">
  <advance width="630"/>
  <unicode hex="0038"/>
  <outline>
    <contour>
      <point x="315" y="-13" type="curve" smooth="yes"/>
      <point x="487" y="-13"/>
      <point x="586" y="78"/>
      <point x="586" y="201" type="curve" smooth="yes"/>
      <point x="586" y="295"/>
      <point x="528" y="354"/>
      <point x="441" y="378" type="curve"/>
      <point x="441" y="386" type="line"/>
      <point x="514" y="413"/>
      <point x="564" y="468"/>
      <point x="564" y="553" type="curve" smooth="yes"/>
      <point x="564" y="666"/>
      <point x="475" y="746"/>
      <point x="315" y="746" type="curve" smooth="yes"/>
      <point x="155" y="746"/>
      <point x="66" y="666"/>
      <point x="66" y="553" type="curve" smooth="yes"/>
      <point x="66" y="468"/>
      <point x="116" y="413"/>
      <point x="189" y="386" type="curve"/>
      <point x="189" y="378" type="line"/>
      <point x="102" y="354"/>
      <point x="44" y="295"/>
      <point x="44" y="201" type="curve" smooth="yes"/>
      <point x="44" y="78"/>
      <point x="143" y="-13"/>
    </contour>
    <contour>
      <point x="315" y="102" type="curve" smooth="yes"/>
      <point x="242" y="102"/>
      <point x="201" y="139"/>
      <point x="201" y="201" type="curve" smooth="yes"/>
      <point x="201" y="222" type="line" smooth="yes"/>
      <point x="201" y="283"/>
      <point x="242" y="320"/>
      <point x="315" y="320" type="curve" smooth="yes"/>
      <point x="388" y="320"/>
      <point x="429" y="283"/>
      <point x="429" y="222" type="curve" smooth="yes"/>
      <point x="429" y="201" type="line" smooth="yes"/>
      <point x="429" y="139"/>
      <point x="388" y="102"/>
    </contour>
    <contour>
      <point x="315" y="430" type="curve" smooth="yes"/>
      <point x="245" y="430"/>
      <point x="207" y="464"/>
      <point x="207" y="522" type="curve" smooth="yes"/>
      <point x="207" y="539" type="line" smooth="yes"/>
      <point x="207" y="597"/>
      <point x="245" y="631"/>
      <point x="315" y="631" type="curve" smooth="yes"/>
      <point x="385" y="631"/>
      <point x="423" y="597"/>
      <point x="423" y="539" type="curve" smooth="yes"/>
      <point x="423" y="522" type="line" smooth="yes"/>
      <point x="423" y="464"/>
      <point x="385" y="430"/>
    </contour>
  </outline>
</glyph>
<glyph name="uni003D" format="2">
  <advance width="630"/>
  <unicode hex="003D"/>
  <outline>
    <contour>
      <point x="557" y="383" type="line"/>
      <point x="557" y="501" type="line"/>
      <point x="73" y="501" type="line"/>
      <point x="73" y="383" type="line"/>
    </contour>
    <contour>
      <point x="557" y="141" type="line"/>
      <point x="557" y="259" type="line"/>
      <point x="73" y="259" type="line"/>
      <point x="73" y="141" type="line"/>
    </contour>
  </outline>
</glyph>
<glyph name="uni003E" format="2">
  <advance width="630"/>
  <unicode hex="003E"/>
  <outline>
    <contour>
      <point x="520" y="363" type="line"/>
      <point x="110" y="634" type="line"/>
      <point x="110" y="485" type="line"/>
      <point x="364" y="323" type="line"/>
      <point x="364" y="315" type="line"/>
      <point x="110" y="153" type="line"/>
      <point x="110" y="4" type="line"/>
      <point x="520" y="275" type="line"/>
    </contour>
  </outline>
</glyph>
<glyph name="uni003F" format="2">
  <advance width="525"/>
  <unicode hex="003F"/>
  <outline>
    <contour>
      <point x="310" y="234" type="line"/>
      <point x="310" y="322" type="line"/>
      <point x="409" y="338"/>
      <point x="494" y="412"/>
      <point x="494" y="529" type="curve" smooth="yes"/>
      <point x="494" y="657"/>
      <point x="398" y="745"/>
      <point x="253" y="745" type="curve" smooth="yes"/>
      <point x="111" y="745"/>
      <point x="41" y="661"/>
      <point x="17" y="577" type="curve"/>
      <point x="138" y="523" type="line"/>
      <point x="151" y="578"/>
      <point x="190" y="619"/>
      <point x="248" y="619" type="curve" smooth="yes"/>
      <point x="300" y="619"/>
      <point x="337" y="588"/>
      <point x="337" y="531" type="curve" smooth="yes"/>
      <point x="337" y="516" type="line" smooth="yes"/>
      <point x="337" y="437"/>
      <point x="281" y="407"/>
      <point x="170" y="403" type="curve"/>
      <point x="170" y="234" type="line"/>
    </contour>
    <contour>
      <point x="242" y="-12" type="curve" smooth="yes"/>
      <point x="305" y="-12"/>
      <point x="331" y="21"/>
      <point x="331" y="64" type="curve" smooth="yes"/>
      <point x="331" y="88" type="line" smooth="yes"/>
      <point x="331" y="131"/>
      <point x="305" y="164"/>
      <point x="242" y="164" type="curve" smooth="yes"/>
      <point x="179" y="164"/>
      <point x="153" y="131"/>
      <point x="153" y="88" type="curve" smooth="yes"/>
      <point x="153" y="64" type="line" smooth="yes"/>
      <point x="153" y="21"/>
      <point x="179" y="-12"/>
    </contour>
  </outline>
</glyph>
<glyph name="uni0041" format="2">
  <advance width="714"/>
  <unicode hex="0041"/>
  <outline>
    <contour>
      <point x="175" y="0" type="line"/>
      <point x="229" y="179" type="line"/>
      <point x="480" y="179" type="line"/>
      <point x="535" y="0" type="line"/>
      <point x="693" y="0" type="line"/>
      <point x="452" y="733" type="line"/>
      <point x="264" y="733" type="line"/>
      <point x="21" y="0" type="line"/>
    </contour>
    <contour>
      <point x="351" y="595" type="line"/>
      <point x="356" y="595" type="line"/>
      <point x="443" y="308" type="line"/>
      <point x="265" y="308" type="line"/>
    </contour>
  </outline>
</glyph>
<glyph name="uni0043" format="2">
  <advance width="680"/>
  <unicode hex="0043"/>
  <outline>
    <contour>
      <point x="375" y="-13" type="curve" smooth="yes"/>
      <point x="507" y="-13"/>
      <point x="595" y="51"/>
      <point x="648" y="162" type="curve"/>
      <point x="524" y="233" type="line"/>
      <point x="501" y="172"/>
      <point x="454" y="122"/>
      <point x="375" y="122" type="curve" smooth="yes"/>
      <point x="279" y="122"/>
      <point x="215" y="188"/>
      <point x="215" y="308" type="curve" smooth="yes"/>
      <point x="215" y="424" type="line" smooth="yes"/>
      <point x="215" y="544"/>
      <point x="279" y="611"/>
      <point x="375" y="611" type="curve" smooth="yes"/>
      <point x="454" y="611"/>
      <point x="495" y="569"/>
      <point x="515" y="507" type="curve"/>
      <point x="646" y="574" type="line"/>
      <point x="593" y="691"/>
      <point x="507" y="746"/>
      <point x="375" y="746" type="curve" smooth="yes"/>
      <point x="179" y="746"/>
      <point x="54" y="609"/>
      <point x="54" y="361" type="curve" smooth="yes"/>
      <point x="54" y="114"/>
      <point x="179" y="-13"/>
    </contour>
  </outline>
</glyph>
<glyph name="uni0044" format="2">
  <advance width="729"/>
  <unicode hex="0044"/>
  <outline>
    <contour>
      <point x="355" y="0" type="line" smooth="yes"/>
      <point x="548" y="0"/>
      <point x="675" y="123"/>
      <point x="675" y="366" type="curve" smooth="yes"/>
      <point x="675" y="610"/>
      <point x="548" y="733"/>
      <point x="355" y="733" type="curve" smooth="yes"/>
      <point x="83" y="733" type="line"/>
      <point x="83" y="0" type="line"/>
    </contour>
    <contour>
      <point x="235" y="598" type="line"/>
      <point x="355" y="598" type="line" smooth="yes"/>
      <point x="453" y="598"/>
      <point x="515" y="544"/>
      <point x="515" y="423" type="curve" smooth="yes"/>
      <point x="515" y="310" type="line" smooth="yes"/>
      <point x="515" y="189"/>
      <point x="453" y="135"/>
      <point x="355" y="135" type="curve" smooth="yes"/>
      <point x="235" y="135" type="line"/>
    </contour>
  </outline>
</glyph>
<glyph name="uni0047" format="2">
  <advance width="752"/>
  <unicode hex="0047"/>
  <outline>
    <contour>
      <point x="354" y="-13" type="curve" smooth="yes"/>
      <point x="464" y="-13"/>
      <point x="531" y="43"/>
      <point x="543" y="116" type="curve"/>
      <point x="548" y="116" type="line"/>
      <point x="548" y="0" type="line"/>
      <point x="677" y="0" type="line"/>
      <point x="677" y="405" type="line"/>
      <point x="394" y="405" type="line"/>
      <point x="394" y="278" type="line"/>
      <point x="532" y="278" type="line"/>
      <point x="532" y="237" type="line" smooth="yes"/>
      <point x="532" y="161"/>
      <point x="465" y="122"/>
      <point x="384" y="122" type="curve" smooth="yes"/>
      <point x="282" y="122"/>
      <point x="215" y="183"/>
      <point x="215" y="308" type="curve" smooth="yes"/>
      <point x="215" y="425" type="line" smooth="yes"/>
      <point x="215" y="550"/>
      <point x="282" y="611"/>
      <point x="383" y="611" type="curve" smooth="yes"/>
      <point x="468" y="611"/>
      <point x="516" y="565"/>
      <point x="540" y="506" type="curve"/>
      <point x="664" y="576" type="line"/>
      <point x="610" y="687"/>
      <point x="514" y="746"/>
      <point x="383" y="746" type="curve" smooth="yes"/>
      <point x="186" y="746"/>
      <point x="54" y="610"/>
      <point x="54" y="363" type="curve" smooth="yes"/>
      <point x="54" y="118"/>
      <point x="185" y="-13"/>
    </contour>
  </outline>
</glyph>
<glyph name="uni0049" format="2">
  <advance width="450"/>
  <unicode hex="0049"/>
  <outline>
    <contour>
      <point x="396" y="0" type="line"/>
      <point x="396" y="121" type="line"/>
      <point x="301" y="121" type="line"/>
      <point x="301" y="612" type="line"/>
      <point x="396" y="612" type="line"/>
      <point x="396" y="733" type="line"/>
      <point x="54" y="733" type="line"/>
      <point x="54" y="612" type="line"/>
      <point x="149" y="612" type="line"/>
      <point x="149" y="121" type="line"/>
      <point x="54" y="121" type="line"/>
      <point x="54" y="0" type="line"/>
    </contour>
  </outline>
</glyph>
<glyph name="uni004A" format="2">
  <advance width="581"/>
  <unicode hex="004A"/>
  <outline>
    <contour>
      <point x="268" y="-12" type="curve" smooth="yes"/>
      <point x="416" y="-12"/>
      <point x="505" y="77"/>
      <point x="505" y="209" type="curve" smooth="yes"/>
      <point x="505" y="733" type="line"/>
      <point x="128" y="733" type="line"/>
      <point x="128" y="611" type="line"/>
      <point x="353" y="611" type="line"/>
      <point x="353" y="217" type="line" smooth="yes"/>
      <point x="353" y="151"/>
      <point x="315" y="121"/>
      <point x="265" y="121" type="curve" smooth="yes"/>
      <point x="212" y="121"/>
      <point x="182" y="156"/>
      <point x="169" y="218" type="curve"/>
      <point x="29" y="189" type="line"/>
      <point x="50" y="69"/>
      <point x="127" y="-12"/>
    </contour>
  </outline>
</glyph>
<glyph name="uni004B" format="2">
  <advance width="723"/>
  <unicode hex="004B"/>
  <outline>
    <contour>
      <point x="235" y="0" type="line"/>
      <point x="235" y="209" type="line"/>
      <point x="331" y="324" type="line"/>
      <point x="530" y="0" type="line"/>
      <point x="709" y="0" type="line"/>
      <point x="438" y="430" type="line"/>
      <point x="688" y="733" type="line"/>
      <point x="516" y="733" type="line"/>
      <point x="344" y="519" type="line"/>
      <point x="241" y="379" type="line"/>
      <point x="235" y="379" type="line"/>
      <point x="235" y="733" type="line"/>
      <point x="83" y="733" type="line"/>
      <point x="83" y="0" type="line"/>
    </contour>
  </outline>
</glyph>
<glyph name="uni004C" format="2">
  <advance width="553"/>
  <unicode hex="004C"/>
  <outline>
    <contour>
      <point x="515" y="135" type="line"/>
      <point x="235" y="135" type="line"/>
      <point x="235" y="733" type="line"/>
      <point x="83" y="733" type="line"/>
      <point x="83" y="0" type="line"/>
      <point x="515" y="0" type="line"/>
    </contour>
  </outline>
</glyph>
<glyph name="uni004E" format="2">
  <advance width="758"/>
  <unicode hex="004E"/>
  <outline>
    <contour>
      <point x="226" y="0" type="line"/>
      <point x="226" y="508" type="line"/>
      <point x="229" y="508" type="line"/>
      <point x="300" y="359" type="line"/>
      <point x="509" y="0" type="line"/>
      <point x="675" y="0" type="line"/>
      <point x="675" y="733" type="line"/>
      <point x="532" y="733" type="line"/>
      <point x="532" y="225" type="line"/>
      <point x="528" y="225" type="line"/>
      <point x="458" y="374" type="line"/>
      <point x="249" y="733" type="line"/>
      <point x="83" y="733" type="line"/>
      <point x="83" y="0" type="line"/>
    </contour>
  </outline>
</glyph>
<glyph name="uni0050" format="2">
  <advance width="683"/>
  <unicode hex="0050"/>
  <outline>
    <contour>
      <point x="232" y="271" type="line"/>
      <point x="422" y="271" type="line" smooth="yes"/>
      <point x="558" y="271"/>
      <point x="642" y="364"/>
      <point x="642" y="502" type="curve" smooth="yes"/>
      <point x="642" y="639"/>
      <point x="558" y="733"/>
      <point x="422" y="733" type="curve" smooth="yes"/>
      <point x="80" y="733" type="line"/>
      <point x="80" y="0" type="line"/>
      <point x="232" y="0" type="line"/>
    </contour>
    <contour>
      <point x="405" y="601" type="line" smooth="yes"/>
      <point x="454" y="601"/>
      <point x="485" y="575"/>
      <point x="485" y="525" type="curve" smooth="yes"/>
      <point x="485" y="479" type="line" smooth="yes"/>
      <point x="485" y="429"/>
      <point x="454" y="403"/>
      <point x="405" y="403" type="curve" smooth="yes"/>
      <point x="232" y="403" type="line"/>
      <point x="232" y="601" type="line"/>
    </contour>
  </outline>
</glyph>
<glyph name="uni0052" format="2">
  <advance width="704"/>
  <unicode hex="0052"/>
  <outline>
    <contour>
      <point x="355" y="274" type="line"/>
      <point x="486" y="0" type="line"/>
      <point x="655" y="0" type="line"/>
      <point x="509" y="292" type="line"/>
      <point x="599" y="324"/>
      <point x="643" y="402"/>
      <point x="643" y="502" type="curve" smooth="yes"/>
      <point x="643" y="640"/>
      <point x="559" y="733"/>
      <point x="424" y="733" type="curve" smooth="yes"/>
      <point x="83" y="733" type="line"/>
      <point x="83" y="0" type="line"/>
      <point x="235" y="0" type="line"/>
      <point x="235" y="274" type="line"/>
    </contour>
    <contour>
      <point x="235" y="601" type="line"/>
      <point x="406" y="601" type="line" smooth="yes"/>
      <point x="455" y="601"/>
      <point x="486" y="575"/>
      <point x="486" y="525" type="curve" smooth="yes"/>
      <point x="486" y="479" type="line" smooth="yes"/>
      <point x="486" y="428"/>
      <point x="455" y="402"/>
      <point x="406" y="402" type="curve" smooth="yes"/>
      <point x="235" y="402" type="line"/>
    </contour>
  </outline>
</glyph>
<glyph name="uni0055" format="2">
  <advance width="727"/>
  <unicode hex="0055"/>
  <outline>
    <contour>
      <point x="79" y="300" type="line" smooth="yes"/>
      <point x="79" y="84"/>
      <point x="154" y="-13"/>
      <point x="363" y="-13" type="curve" smooth="yes"/>
      <point x="571" y="-13"/>
      <point x="648" y="84"/>
      <point x="648" y="300" type="curve" smooth="yes"/>
      <point x="648" y="733" type="line"/>
      <point x="500" y="733" type="line"/>
      <point x="500" y="283" type="line" smooth="yes"/>
      <point x="500" y="176"/>
      <point x="461" y="122"/>
      <point x="363" y="122" type="curve" smooth="yes"/>
      <point x="266" y="122"/>
      <point x="227" y="176"/>
      <point x="227" y="283" type="curve" smooth="yes"/>
      <point x="227" y="733" type="line"/>
      <point x="79" y="733" type="line"/>
    </contour>
  </outline>
</glyph>
<glyph name="uni0056" format="2">
  <advance width="678"/>
  <unicode hex="0056"/>
  <outline>
    <contour>
      <point x="423" y="0" type="line"/>
      <point x="662" y="733" type="line"/>
      <point x="512" y="733" type="line"/>
      <point x="402" y="379" type="line"/>
      <point x="344" y="144" type="line"/>
      <point x="340" y="144" type="line"/>
      <point x="280" y="379" type="line"/>
      <point x="170" y="733" type="line"/>
      <point x="16" y="733" type="line"/>
      <point x="253" y="0" type="line"/>
    </contour>
  </outline>
</glyph>
<glyph name="uni0057" format="2">
  <advance width="1011"/>
  <unicode hex="0057"/>
  <outline>
    <contour>
      <point x="370" y="0" type="line"/>
      <point x="462" y="393" type="line"/>
      <point x="503" y="566" type="line"/>
      <point x="506" y="566" type="line"/>
      <point x="545" y="393" type="line"/>
      <point x="637" y="0" type="line"/>
      <point x="810" y="0" type="line"/>
      <point x="982" y="733" type="line"/>
      <point x="838" y="733" type="line"/>
      <point x="767" y="381" type="line"/>
      <point x="725" y="169" type="line"/>
      <point x="722" y="169" type="line"/>
      <point x="674" y="381" type="line"/>
      <point x="591" y="733" type="line"/>
      <point x="425" y="733" type="line"/>
      <point x="343" y="381" type="line"/>
      <point x="294" y="169" type="line"/>
      <point x="291" y="169" type="line"/>
      <point x="250" y="381" type="line"/>
      <point x="179" y="733" type="line"/>
      <point x="29" y="733" type="line"/>
      <point x="196" y="0" type="line"/>
    </contour>
  </outline>
</glyph>
<glyph name="uni0059" format="2">
  <advance width="674"/>
  <unicode hex="0059"/>
  <outline>
    <contour>
      <point x="413" y="289" type="line"/>
      <point x="665" y="733" type="line"/>
      <point x="500" y="733" type="line"/>
      <point x="342" y="434" type="line"/>
      <point x="340" y="434" type="line"/>
      <point x="178" y="733" type="line"/>
      <point x="8" y="733" type="line"/>
      <point x="260" y="287" type="line"/>
      <point x="260" y="0" type="line"/>
      <point x="413" y="0" type="line"/>
    </contour>
  </outline>
</glyph>
<glyph name="uni005C" format="2">
  <advance width="482"/>
  <unicode hex="005C"/>
  <outline>
    <contour>
      <point x="474" y="-159" type="line"/>
      <point x="162" y="777" type="line"/>
      <point x="40" y="777" type="line"/>
      <point x="352" y="-159" type="line"/>
    </contour>
  </outline>
</glyph>
<glyph name="uni005E" format="2">
  <advance width="631"/>
  <unicode hex="005E"/>
  <outline>
    <contour>
      <point x="310" y="573" type="line"/>
      <point x="316" y="573" type="line"/>
      <point x="468" y="293" type="line"/>
      <point x="586" y="350" type="line"/>
      <point x="376" y="733" type="line"/>
      <point x="255" y="733" type="line"/>
      <point x="45" y="350" type="line"/>
      <point x="157" y="293" type="line"/>
    </contour>
  </outline>
</glyph>
<glyph name="uni005F" format="2">
  <advance width="584"/>
  <unicode hex="005F"/>
  <unicode hex="0332"/>
  <outline>
    <contour>
      <point x="550" y="-196" type="line"/>
      <point x="550" y="-73" type="line"/>
      <point x="34" y="-73" type="line"/>
      <point x="34" y="-196" type="line"/>
    </contour>
  </outline>
</glyph>
<glyph name="uni0060" format="2">
  <advance width="630"/>
  <unicode hex="0060"/>
  <unicode hex="0300"/>
  <outline>
    <contour>
      <point x="428" y="650" type="line"/>
      <point x="325" y="851" type="line"/>
      <point x="202" y="790" type="line"/>
      <point x="339" y="607" type="line"/>
    </contour>
  </outline>
</glyph>
<glyph name="uni0063" format="2">
  <advance width="541"/>
  <unicode hex="0063"/>
  <outline>
    <contour>
      <point x="295" y="-13" type="curve" smooth="yes"/>
      <point x="402" y="-13"/>
      <point x="480" y="35"/>
      <point x="517" y="137" type="curve"/>
      <point x="403" y="188" type="line"/>
      <point x="385" y="142"/>
      <point x="357" y="104"/>
      <point x="295" y="104" type="curve" smooth="yes"/>
      <point x="227" y="104"/>
      <point x="193" y="151"/>
      <point x="193" y="224" type="curve" smooth="yes"/>
      <point x="193" y="326" type="line" smooth="yes"/>
      <point x="193" y="398"/>
      <point x="227" y="446"/>
      <point x="295" y="446" type="curve" smooth="yes"/>
      <point x="351" y="446"/>
      <point x="383" y="412"/>
      <point x="394" y="368" type="curve"/>
      <point x="513" y="421" type="line"/>
      <point x="481" y="509"/>
      <point x="405" y="563"/>
      <point x="295" y="563" type="curve" smooth="yes"/>
      <point x="130" y="563"/>
      <point x="39" y="452"/>
      <point x="39" y="275" type="curve" smooth="yes"/>
      <point x="39" y="100"/>
      <point x="130" y="-13"/>
    </contour>
  </outline>
</glyph>
<glyph name="uni0064" format="2">
  <advance width="635"/>
  <unicode hex="0064"/>
  <outline>
    <contour>
      <point x="259" y="-13" type="curve" smooth="yes"/>
      <point x="331" y="-13"/>
      <point x="391" y="32"/>
      <point x="409" y="92" type="curve"/>
      <point x="413" y="92" type="line"/>
      <point x="413" y="0" type="line"/>
      <point x="561" y="0" type="line"/>
      <point x="561" y="777" type="line"/>
      <point x="413" y="777" type="line"/>
      <point x="413" y="458" type="line"/>
      <point x="408" y="458" type="line"/>
      <point x="390" y="520"/>
      <point x="331" y="563"/>
      <point x="259" y="563" type="curve" smooth="yes"/>
      <point x="120" y="563"/>
      <point x="46" y="461"/>
      <point x="46" y="275" type="curve" smooth="yes"/>
      <point x="46" y="90"/>
      <point x="120" y="-13"/>
    </contour>
    <contour>
      <point x="308" y="107" type="curve" smooth="yes"/>
      <point x="245" y="107"/>
      <point x="200" y="155"/>
      <point x="200" y="228" type="curve" smooth="yes"/>
      <point x="200" y="322" type="line" smooth="yes"/>
      <point x="200" y="395"/>
      <point x="245" y="443"/>
      <point x="308" y="443" type="curve" smooth="yes"/>
      <point x="369" y="443"/>
      <point x="413" y="410"/>
      <point x="413" y="359" type="curve" smooth="yes"/>
      <point x="413" y="192" type="line" smooth="yes"/>
      <point x="413" y="139"/>
      <point x="369" y="107"/>
    </contour>
  </outline>
</glyph>
<glyph name="uni0065" format="2">
  <advance width="588"/>
  <unicode hex="0065"/>
  <outline>
    <contour>
      <point x="301" y="-13" type="curve" smooth="yes"/>
      <point x="402" y="-13"/>
      <point x="483" y="24"/>
      <point x="530" y="83" type="curve"/>
      <point x="455" y="173" type="line"/>
      <point x="421" y="135"/>
      <point x="383" y="103"/>
      <point x="317" y="103" type="curve" smooth="yes"/>
      <point x="233" y="103"/>
      <point x="192" y="152"/>
      <point x="192" y="228" type="curve" smooth="yes"/>
      <point x="192" y="238" type="line"/>
      <point x="549" y="238" type="line"/>
      <point x="549" y="283" type="line" smooth="yes"/>
      <point x="549" y="433"/>
      <point x="474" y="563"/>
      <point x="296" y="563" type="curve" smooth="yes"/>
      <point x="132" y="563"/>
      <point x="39" y="449"/>
      <point x="39" y="275" type="curve" smooth="yes"/>
      <point x="39" y="100"/>
      <point x="135" y="-13"/>
    </contour>
    <contour>
      <point x="192" y="334" type="line" smooth="yes"/>
      <point x="192" y="406"/>
      <point x="234" y="454"/>
      <point x="298" y="454" type="curve" smooth="yes"/>
      <point x="362" y="454"/>
      <point x="396" y="407"/>
      <point x="396" y="335" type="curve" smooth="yes"/>
      <point x="396" y="325" type="line"/>
      <point x="192" y="325" type="line"/>
    </contour>
  </outline>
</glyph>
<glyph name="uni0066" format="2">
  <advance width="374"/>
  <unicode hex="0066"/>
  <outline>
    <contour>
      <point x="250" y="0" type="line"/>
      <point x="250" y="435" type="line"/>
      <point x="360" y="435" type="line"/>
      <point x="360" y="550" type="line"/>
      <point x="250" y="550" type="line"/>
      <point x="250" y="662" type="line"/>
      <point x="360" y="662" type="line"/>
      <point x="360" y="777" type="line"/>
      <point x="262" y="777" type="line" smooth="yes"/>
      <point x="158" y="777"/>
      <point x="102" y="722"/>
      <point x="102" y="620" type="curve" smooth="yes"/>
      <point x="102" y="550" type="line"/>
      <point x="23" y="550" type="line"/>
      <point x="23" y="435" type="line"/>
      <point x="102" y="435" type="line"/>
      <point x="102" y="0" type="line"/>
    </contour>
  </outline>
</glyph>
<glyph name="uni0067" format="2">
  <advance width="577"/>
  <unicode hex="0067"/>
  <outline>
    <contour>
      <point x="284" y="-223" type="curve" smooth="yes"/>
      <point x="502" y="-223"/>
      <point x="578" y="-158"/>
      <point x="578" y="-42" type="curve" smooth="yes"/>
      <point x="578" y="58"/>
      <point x="520" y="117"/>
      <point x="386" y="117" type="curve" smooth="yes"/>
      <point x="231" y="117" type="line" smooth="yes"/>
      <point x="184" y="117"/>
      <point x="163" y="132"/>
      <point x="163" y="159" type="curve" smooth="yes"/>
      <point x="163" y="179"/>
      <point x="175" y="195"/>
      <point x="192" y="205" type="curve"/>
      <point x="219" y="198"/>
      <point x="250" y="193"/>
      <point x="285" y="193" type="curve" smooth="yes"/>
      <point x="440" y="193"/>
      <point x="517" y="267"/>
      <point x="517" y="377" type="curve" smooth="yes"/>
      <point x="517" y="445"/>
      <point x="487" y="501"/>
      <point x="426" y="533" type="curve"/>
      <point x="426" y="542" type="line"/>
      <point x="546" y="542" type="line"/>
      <point x="546" y="652" type="line"/>
      <point x="460" y="652" type="line" smooth="yes"/>
      <point x="409" y="652"/>
      <point x="379" y="627"/>
      <point x="379" y="570" type="curve" smooth="yes"/>
      <point x="379" y="551" type="line"/>
      <point x="352" y="559"/>
      <point x="320" y="563"/>
      <point x="285" y="563" type="curve" smooth="yes"/>
      <point x="130" y="563"/>
      <point x="52" y="488"/>
      <point x="52" y="377" type="curve" smooth="yes"/>
      <point x="52" y="305"/>
      <point x="85" y="249"/>
      <point x="151" y="219" type="curve"/>
      <point x="151" y="214" type="line"/>
      <point x="100" y="203"/>
      <point x="49" y="174"/>
      <point x="49" y="117" type="curve" smooth="yes"/>
      <point x="49" y="70"/>
      <point x="76" y="33"/>
      <point x="126" y="23" type="curve"/>
      <point x="126" y="12" type="line"/>
      <point x="63" y="2"/>
      <point x="25" y="-34"/>
      <point x="25" y="-94" type="curve" smooth="yes"/>
      <point x="25" y="-174"/>
      <point x="94" y="-223"/>
    </contour>
    <contour>
      <point x="255" y="-125" type="line" smooth="yes"/>
      <point x="170" y="-125"/>
      <point x="139" y="-104"/>
      <point x="139" y="-62" type="curve" smooth="yes"/>
      <point x="139" y="-43"/>
      <point x="146" y="-22"/>
      <point x="163" y="-9" type="curve"/>
      <point x="351" y="-9" type="line" smooth="yes"/>
      <point x="415" y="-9"/>
      <point x="439" y="-27"/>
      <point x="439" y="-62" type="curve" smooth="yes"/>
      <point x="439" y="-105"/>
      <point x="404" y="-125"/>
      <point x="320" y="-125" type="curve" smooth="yes"/>
    </contour>
    <contour>
      <point x="285" y="290" type="curve" smooth="yes"/>
      <point x="223" y="290"/>
      <point x="190" y="318"/>
      <point x="190" y="371" type="curve" smooth="yes"/>
      <point x="190" y="385" type="line" smooth="yes"/>
      <point x="190" y="437"/>
      <point x="223" y="465"/>
      <point x="285" y="465" type="curve" smooth="yes"/>
      <point x="347" y="465"/>
      <point x="379" y="437"/>
      <point x="379" y="385" type="curve" smooth="yes"/>
      <point x="379" y="371" type="line" smooth="yes"/>
      <point x="379" y="318"/>
      <point x="347" y="290"/>
    </contour>
  </outline>
</glyph>
<glyph name="uni0068" format="2">
  <advance width="623"/>
  <unicode hex="0068"/>
  <outline>
    <contour>
      <point x="222" y="0" type="line"/>
      <point x="222" y="359" type="line" smooth="yes"/>
      <point x="222" y="416"/>
      <point x="271" y="443"/>
      <point x="324" y="443" type="curve" smooth="yes"/>
      <point x="383" y="443"/>
      <point x="406" y="406"/>
      <point x="406" y="333" type="curve" smooth="yes"/>
      <point x="406" y="0" type="line"/>
      <point x="554" y="0" type="line"/>
      <point x="554" y="345" type="line" smooth="yes"/>
      <point x="554" y="483"/>
      <point x="493" y="563"/>
      <point x="380" y="563" type="curve" smooth="yes"/>
      <point x="294" y="563"/>
      <point x="248" y="516"/>
      <point x="227" y="458" type="curve"/>
      <point x="222" y="458" type="line"/>
      <point x="222" y="777" type="line"/>
      <point x="74" y="777" type="line"/>
      <point x="74" y="0" type="line"/>
    </contour>
  </outline>
</glyph>
<glyph name="uni006C" format="2">
  <advance width="314"/>
  <unicode hex="006C"/>
  <outline>
    <contour>
      <point x="292" y="115" type="line"/>
      <point x="222" y="115" type="line"/>
      <point x="222" y="777" type="line"/>
      <point x="74" y="777" type="line"/>
      <point x="74" y="144" type="line" smooth="yes"/>
      <point x="74" y="52"/>
      <point x="121" y="0"/>
      <point x="221" y="0" type="curve" smooth="yes"/>
      <point x="292" y="0" type="line"/>
    </contour>
  </outline>
</glyph>
<glyph name="uni0070" format="2">
  <advance width="635"/>
  <unicode hex="0070"/>
  <outline>
    <contour>
      <point x="222" y="-210" type="line"/>
      <point x="222" y="92" type="line"/>
      <point x="226" y="92" type="line"/>
      <point x="244" y="32"/>
      <point x="304" y="-13"/>
      <point x="376" y="-13" type="curve" smooth="yes"/>
      <point x="515" y="-13"/>
      <point x="589" y="90"/>
      <point x="589" y="275" type="curve" smooth="yes"/>
      <point x="589" y="461"/>
      <point x="515" y="563"/>
      <point x="376" y="563" type="curve" smooth="yes"/>
      <point x="304" y="563"/>
      <point x="245" y="520"/>
      <point x="227" y="458" type="curve"/>
      <point x="222" y="458" type="line"/>
      <point x="222" y="550" type="line"/>
      <point x="74" y="550" type="line"/>
      <point x="74" y="-210" type="line"/>
    </contour>
    <contour>
      <point x="327" y="107" type="curve" smooth="yes"/>
      <point x="266" y="107"/>
      <point x="222" y="139"/>
      <point x="222" y="192" type="curve" smooth="yes"/>
      <point x="222" y="359" type="line" smooth="yes"/>
      <point x="222" y="410"/>
      <point x="266" y="443"/>
      <point x="327" y="443" type="curve" smooth="yes"/>
      <point x="390" y="443"/>
      <point x="435" y="395"/>
      <point x="435" y="322" type="curve" smooth="yes"/>
      <point x="435" y="228" type="line" smooth="yes"/>
      <point x="435" y="155"/>
      <point x="390" y="107"/>
    </contour>
  </outline>
</glyph>
<glyph name="uni0072" format="2">
  <advance width="419"/>
  <unicode hex="0072"/>
  <outline>
    <contour>
      <point x="222" y="0" type="line"/>
      <point x="222" y="327" type="line" smooth="yes"/>
      <point x="222" y="390"/>
      <point x="267" y="412"/>
      <point x="357" y="412" type="curve" smooth="yes"/>
      <point x="397" y="412" type="line"/>
      <point x="397" y="550" type="line"/>
      <point x="369" y="550" type="line" smooth="yes"/>
      <point x="283" y="550"/>
      <point x="240" y="492"/>
      <point x="227" y="433" type="curve"/>
      <point x="222" y="433" type="line"/>
      <point x="222" y="550" type="line"/>
      <point x="74" y="550" type="line"/>
      <point x="74" y="0" type="line"/>
    </contour>
  </outline>
</glyph>
<glyph name="uni0073" format="2">
  <advance width="527"/>
  <unicode hex="0073"/>
  <outline>
    <contour>
      <point x="258" y="-13" type="curve" smooth="yes"/>
      <point x="398" y="-13"/>
      <point x="491" y="63"/>
      <point x="491" y="169" type="curve" smooth="yes"/>
      <point x="491" y="264"/>
      <point x="431" y="318"/>
      <point x="311" y="334" type="curve" smooth="yes"/>
      <point x="251" y="342" type="line" smooth="yes"/>
      <point x="205" y="349"/>
      <point x="189" y="366"/>
      <point x="189" y="397" type="curve" smooth="yes"/>
      <point x="189" y="427"/>
      <point x="212" y="448"/>
      <point x="266" y="448" type="curve" smooth="yes"/>
      <point x="314" y="448"/>
      <point x="360" y="424"/>
      <point x="394" y="390" type="curve"/>
      <point x="479" y="477" type="line"/>
      <point x="425" y="531"/>
      <point x="371" y="563"/>
      <point x="258" y="563" type="curve" smooth="yes"/>
      <point x="130" y="563"/>
      <point x="47" y="491"/>
      <point x="47" y="385" type="curve" smooth="yes"/>
      <point x="47" y="286"/>
      <point x="109" y="233"/>
      <point x="231" y="217" type="curve" smooth="yes"/>
      <point x="289" y="210" type="line" smooth="yes"/>
      <point x="331" y="204"/>
      <point x="349" y="188"/>
      <point x="349" y="159" type="curve" smooth="yes"/>
      <point x="349" y="124"/>
      <point x="325" y="102"/>
      <point x="264" y="102" type="curve" smooth="yes"/>
      <point x="203" y="102"/>
      <point x="156" y="130"/>
      <point x="117" y="175" type="curve"/>
      <point x="28" y="87" type="line"/>
      <point x="84" y="24"/>
      <point x="153" y="-13"/>
    </contour>
  </outline>
</glyph>
<glyph name="uni0074" format="2">
  <advance width="398"/>
  <unicode hex="0074"/>
  <outline>
    <contour>
      <point x="353" y="0" type="line"/>
      <point x="353" y="115" type="line"/>
      <point x="252" y="115" type="line"/>
      <point x="252" y="435" type="line"/>
      <point x="361" y="435" type="line"/>
      <point x="361" y="550" type="line"/>
      <point x="252" y="550" type="line"/>
      <point x="252" y="699" type="line"/>
      <point x="119" y="699" type="line"/>
      <point x="119" y="608" type="line" smooth="yes"/>
      <point x="119" y="570"/>
      <point x="106" y="550"/>
      <point x="65" y="550" type="curve" smooth="yes"/>
      <point x="25" y="550" type="line"/>
      <point x="25" y="435" type="line"/>
      <point x="104" y="435" type="line"/>
      <point x="104" y="153" type="line" smooth="yes"/>
      <point x="104" y="54"/>
      <point x="158" y="0"/>
      <point x="259" y="0" type="curve" smooth="yes"/>
    </contour>
  </outline>
</glyph>
<glyph name="uni0075" format="2">
  <advance width="623"/>
  <unicode hex="0075"/>
  <outline>
    <contour>
      <point x="243" y="-13" type="curve" smooth="yes"/>
      <point x="329" y="-13"/>
      <point x="375" y="34"/>
      <point x="396" y="92" type="curve"/>
      <point x="401" y="92" type="line"/>
      <point x="401" y="0" type="line"/>
      <point x="549" y="0" type="line"/>
      <point x="549" y="550" type="line"/>
      <point x="401" y="550" type="line"/>
      <point x="401" y="191" type="line" smooth="yes"/>
      <point x="401" y="134"/>
      <point x="352" y="107"/>
      <point x="299" y="107" type="curve" smooth="yes"/>
      <point x="240" y="107"/>
      <point x="217" y="144"/>
      <point x="217" y="217" type="curve" smooth="yes"/>
      <point x="217" y="550" type="line"/>
      <point x="69" y="550" type="line"/>
      <point x="69" y="205" type="line" smooth="yes"/>
      <point x="69" y="67"/>
      <point x="130" y="-13"/>
    </contour>
  </outline>
</glyph>
<glyph name="uni0076" format="2">
  <advance width="558"/>
  <unicode hex="0076"/>
  <outline>
    <contour>
      <point x="367" y="0" type="line"/>
      <point x="548" y="550" type="line"/>
      <point x="408" y="550" type="line"/>
      <point x="339" y="322" type="line"/>
      <point x="287" y="124" type="line"/>
      <point x="278" y="124" type="line"/>
      <point x="227" y="322" type="line"/>
      <point x="156" y="550" type="line"/>
      <point x="10" y="550" type="line"/>
      <point x="191" y="0" type="line"/>
    </contour>
  </outline>
</glyph>
<glyph name="uni0077" format="2">
  <advance width="873"/>
  <unicode hex="0077"/>
  <outline>
    <contour>
      <point x="326" y="0" type="line"/>
      <point x="395" y="236" type="line"/>
      <point x="434" y="383" type="line"/>
      <point x="436" y="383" type="line"/>
      <point x="476" y="236" type="line"/>
      <point x="545" y="0" type="line"/>
      <point x="700" y="0" type="line"/>
      <point x="852" y="550" type="line"/>
      <point x="715" y="550" type="line"/>
      <point x="662" y="327" type="line"/>
      <point x="622" y="153" type="line"/>
      <point x="618" y="153" type="line"/>
      <point x="570" y="327" type="line"/>
      <point x="506" y="550" type="line"/>
      <point x="371" y="550" type="line"/>
      <point x="308" y="327" type="line"/>
      <point x="261" y="153" type="line"/>
      <point x="256" y="153" type="line"/>
      <point x="217" y="327" type="line"/>
      <point x="163" y="550" type="line"/>
      <point x="20" y="550" type="line"/>
      <point x="174" y="0" type="line"/>
    </contour>
  </outline>
</glyph>
<glyph name="uni0078" format="2">
  <advance width="581"/>
  <unicode hex="0078"/>
  <outline>
    <contour>
      <point x="173" y="0" type="line"/>
      <point x="280" y="184" type="line"/>
      <point x="285" y="184" type="line"/>
      <point x="394" y="0" type="line"/>
      <point x="562" y="0" type="line"/>
      <point x="378" y="275" type="line"/>
      <point x="561" y="550" type="line"/>
      <point x="405" y="550" type="line"/>
      <point x="301" y="373" type="line"/>
      <point x="296" y="373" type="line"/>
      <point x="190" y="550" type="line"/>
      <point x="22" y="550" type="line"/>
      <point x="202" y="279" type="line"/>
      <point x="19" y="0" type="line"/>
    </contour>
  </outline>
</glyph>
<glyph name="uni0079" format="2">
  <advance width="557"/>
  <unicode hex="0079"/>
  <outline>
    <contour>
      <point x="170" y="-210" type="line" smooth="yes"/>
      <point x="263" y="-210"/>
      <point x="306" y="-172"/>
      <point x="334" y="-90" type="curve" smooth="yes"/>
      <point x="549" y="550" type="line"/>
      <point x="411" y="550" type="line"/>
      <point x="326" y="280" type="line"/>
      <point x="285" y="128" type="line"/>
      <point x="279" y="128" type="line"/>
      <point x="242" y="280" type="line"/>
      <point x="155" y="550" type="line"/>
      <point x="8" y="550" type="line"/>
      <point x="203" y="-27" type="line"/>
      <point x="182" y="-95" type="line"/>
      <point x="80" y="-95" type="line"/>
      <point x="80" y="-210" type="line"/>
    </contour>
  </outline>
</glyph>
<glyph name="uni007B" format="2">
  <advance width="391"/>
  <unicode hex="007B"/>
  <outline>
    <contour>
      <point x="337" y="-142" type="line"/>
      <point x="337" y="-38" type="line"/>
      <point x="262" y="-38" type="line"/>
      <point x="262" y="192" type="line" smooth="yes"/>
      <point x="262" y="260"/>
      <point x="212" y="315"/>
      <point x="153" y="326" type="curve"/>
      <point x="153" y="330" type="line"/>
      <point x="212" y="341"/>
      <point x="262" y="396"/>
      <point x="262" y="464" type="curve" smooth="yes"/>
      <point x="262" y="697" type="line"/>
      <point x="337" y="697" type="line"/>
      <point x="337" y="801" type="line"/>
      <point x="225" y="801" type="line" smooth="yes"/>
      <point x="168" y="801"/>
      <point x="125" y="763"/>
      <point x="125" y="697" type="curve" smooth="yes"/>
      <point x="125" y="480" type="line" smooth="yes"/>
      <point x="125" y="419"/>
      <point x="82" y="386"/>
      <point x="23" y="386" type="curve"/>
      <point x="23" y="273" type="line"/>
      <point x="82" y="273"/>
      <point x="125" y="240"/>
      <point x="125" y="179" type="curve" smooth="yes"/>
      <point x="125" y="-38" type="line" smooth="yes"/>
      <point x="125" y="-104"/>
      <point x="168" y="-142"/>
      <point x="225" y="-142" type="curve" smooth="yes"/>
    </contour>
  </outline>
</glyph>
<glyph name="uni007E" format="2">
  <advance width="630"/>
  <unicode hex="007E"/>
  <unicode hex="223C"/>
  <outline>
    <contour>
      <point x="437" y="228" type="curve" smooth="yes"/>
      <point x="505" y="228"/>
      <point x="548" y="256"/>
      <point x="573" y="292" type="curve"/>
      <point x="524" y="375" type="line"/>
      <point x="493" y="355"/>
      <point x="473" y="347"/>
      <point x="441" y="347" type="curve" smooth="yes"/>
      <point x="398" y="347"/>
      <point x="363" y="363"/>
      <point x="325" y="382" type="curve" smooth="yes"/>
      <point x="278" y="405"/>
      <point x="245" y="420"/>
      <point x="193" y="420" type="curve" smooth="yes"/>
      <point x="125" y="420"/>
      <point x="82" y="392"/>
      <point x="57" y="356" type="curve"/>
      <point x="106" y="273" type="line"/>
      <point x="137" y="293"/>
      <point x="157" y="301"/>
      <point x="189" y="301" type="curve" smooth="yes"/>
      <point x="232" y="301"/>
      <point x="267" y="285"/>
      <point x="305" y="266" type="curve" smooth="yes"/>
      <point x="352" y="243"/>
      <point x="385" y="228"/>
    </contour>
  </outline>
</glyph>
<glyph name="uni00A4" format="2">
  <advance width="660"/>
  <unicode hex="00A4"/>
  <outline>
    <contour>
      <point x="191" y="147" type="line"/>
      <point x="227" y="126"/>
      <point x="276" y="114"/>
      <point x="330" y="114" type="curve" smooth="yes"/>
      <point x="384" y="114"/>
      <point x="433" y="126"/>
      <point x="469" y="147" type="curve"/>
      <point x="566" y="49" type="line"/>
      <point x="647" y="129" type="line"/>
      <point x="549" y="227" type="line"/>
      <point x="571" y="265"/>
      <point x="583" y="312"/>
      <point x="583" y="366" type="curve" smooth="yes"/>
      <point x="583" y="421"/>
      <point x="571" y="468"/>
      <point x="549" y="506" type="curve"/>
      <point x="647" y="604" type="line"/>
      <point x="566" y="684" type="line"/>
      <point x="469" y="586" type="line"/>
      <point x="433" y="607"/>
      <point x="384" y="619"/>
      <point x="330" y="619" type="curve" smooth="yes"/>
      <point x="276" y="619"/>
      <point x="227" y="607"/>
      <point x="191" y="586" type="curve"/>
      <point x="94" y="684" type="line"/>
      <point x="13" y="604" type="line"/>
      <point x="111" y="506" type="line"/>
      <point x="89" y="468"/>
      <point x="77" y="421"/>
      <point x="77" y="366" type="curve" smooth="yes"/>
      <point x="77" y="312"/>
      <point x="89" y="265"/>
      <point x="111" y="227" type="curve"/>
      <point x="13" y="129" type="line"/>
      <point x="94" y="49" type="line"/>
    </contour>
    <contour>
      <point x="330" y="221" type="curve" smooth="yes"/>
      <point x="264" y="221"/>
      <point x="224" y="262"/>
      <point x="224" y="337" type="curve" smooth="yes"/>
      <point x="224" y="396" type="line" smooth="yes"/>
      <point x="224" y="471"/>
      <point x="264" y="512"/>
      <point x="330" y="512" type="curve" smooth="yes"/>
      <point x="396" y="512"/>
      <point x="436" y="471"/>
      <point x="436" y="396" type="curve" smooth="yes"/>
      <point x="436" y="337" type="line" smooth="yes"/>
      <point x="436" y="262"/>
      <point x="396" y="221"/>
    </contour>
  </outline>
</glyph>
<glyph name="uni00A7" format="2">
  <advance width="599"/>
  <unicode hex="00A7"/>
  <outline>
    <contour>
      <point x="286" y="-168" type="curve" smooth="yes"/>
      <point x="418" y="-168"/>
      <point x="510" y="-101"/>
      <point x="510" y="13" type="curve" smooth="yes"/>
      <point x="510" y="78"/>
      <point x="480" y="126"/>
      <point x="431" y="159" type="curve"/>
      <point x="431" y="175" type="line"/>
      <point x="506" y="207"/>
      <point x="543" y="259"/>
      <point x="543" y="319" type="curve" smooth="yes"/>
      <point x="543" y="382"/>
      <point x="503" y="447"/>
      <point x="385" y="478" type="curve" smooth="yes"/>
      <point x="306" y="499" type="line" smooth="yes"/>
      <point x="243" y="516"/>
      <point x="212" y="536"/>
      <point x="212" y="574" type="curve" smooth="yes"/>
      <point x="212" y="620"/>
      <point x="253" y="641"/>
      <point x="310" y="641" type="curve" smooth="yes"/>
      <point x="370" y="641"/>
      <point x="409" y="619"/>
      <point x="446" y="584" type="curve"/>
      <point x="519" y="672" type="line"/>
      <point x="460" y="727"/>
      <point x="385" y="746"/>
      <point x="312" y="746" type="curve" smooth="yes"/>
      <point x="181" y="746"/>
      <point x="88" y="683"/>
      <point x="88" y="569" type="curve" smooth="yes"/>
      <point x="88" y="505"/>
      <point x="120" y="457"/>
      <point x="168" y="424" type="curve"/>
      <point x="168" y="409" type="line"/>
      <point x="93" y="377"/>
      <point x="56" y="325"/>
      <point x="56" y="265" type="curve" smooth="yes"/>
      <point x="56" y="202"/>
      <point x="96" y="137"/>
      <point x="214" y="106" type="curve" smooth="yes"/>
      <point x="293" y="85" type="line" smooth="yes"/>
      <point x="356" y="68"/>
      <point x="386" y="47"/>
      <point x="386" y="6" type="curve" smooth="yes"/>
      <point x="386" y="-38"/>
      <point x="346" y="-63"/>
      <point x="288" y="-63" type="curve" smooth="yes"/>
      <point x="233" y="-63"/>
      <point x="189" y="-42"/>
      <point x="153" y="-6" type="curve"/>
      <point x="81" y="-94" type="line"/>
      <point x="138" y="-149"/>
      <point x="214" y="-168"/>
    </contour>
    <contour>
      <point x="379" y="185" type="curve"/>
      <point x="369" y="189"/>
      <point x="357" y="194"/>
      <point x="345" y="197" type="curve" smooth="yes"/>
      <point x="267" y="218" type="line" smooth="yes"/>
      <point x="198" y="237"/>
      <point x="179" y="270"/>
      <point x="179" y="309" type="curve" smooth="yes"/>
      <point x="179" y="342"/>
      <point x="194" y="372"/>
      <point x="220" y="399" type="curve"/>
      <point x="230" y="395"/>
      <point x="242" y="390"/>
      <point x="254" y="387" type="curve" smooth="yes"/>
      <point x="332" y="366" type="line" smooth="yes"/>
      <point x="401" y="347"/>
      <point x="420" y="314"/>
      <point x="420" y="275" type="curve" smooth="yes"/>
      <point x="420" y="242"/>
      <point x="405" y="212"/>
    </contour>
  </outline>
</glyph>
<glyph name="uni00B0" format="2">
  <advance width="494"/>
  <unicode hex="00B0"/>
  <outline>
    <contour>
      <point x="247" y="351" type="curve" smooth="yes"/>
      <point x="356" y="351"/>
      <point x="439" y="435"/>
      <point x="439" y="548" type="curve" smooth="yes"/>
      <point x="439" y="661"/>
      <point x="356" y="745"/>
      <point x="247" y="745" type="curve" smooth="yes"/>
      <point x="138" y="745"/>
      <point x="55" y="661"/>
      <point x="55" y="548" type="curve" smooth="yes"/>
      <point x="55" y="435"/>
      <point x="138" y="351"/>
    </contour>
    <contour>
      <point x="247" y="446" type="curve" smooth="yes"/>
      <point x="192" y="446"/>
      <point x="156" y="490"/>
      <point x="156" y="548" type="curve" smooth="yes"/>
      <point x="156" y="606"/>
      <point x="192" y="650"/>
      <point x="247" y="650" type="curve" smooth="yes"/>
      <point x="302" y="650"/>
      <point x="338" y="606"/>
      <point x="338" y="548" type="curve" smooth="yes"/>
      <point x="338" y="490"/>
      <point x="302" y="446"/>
    </contour>
  </outline>
</glyph>
<glyph name="uni00B1" format="2">
  <advance width="630"/>
  <unicode hex="00B1"/>
  <outline>
    <contour>
      <point x="379" y="193" type="line"/>
      <point x="379" y="372" type="line"/>
      <point x="558" y="372" type="line"/>
      <point x="558" y="491" type="line"/>
      <point x="379" y="491" type="line"/>
      <point x="379" y="667" type="line"/>
      <point x="251" y="667" type="line"/>
      <point x="251" y="491" type="line"/>
      <point x="72" y="491" type="line"/>
      <point x="72" y="372" type="line"/>
      <point x="251" y="372" type="line"/>
      <point x="251" y="193" type="line"/>
    </contour>
    <contour>
      <point x="558" y="0" type="line"/>
      <point x="558" y="119" type="line"/>
      <point x="72" y="119" type="line"/>
      <point x="72" y="0" type="line"/>
    </contour>
  </outline>
</glyph>
<glyph name="uni00E0" format="2">
  <advance width="593"/>
  <unicode hex="00E0"/>
  <outline>
    <contour>
      <point x="361" y="649" type="line"/>
      <point x="258" y="850" type="line"/>
      <point x="135" y="789" type="line"/>
      <point x="272" y="606" type="line"/>
    </contour>
    <contour>
      <point x="209" y="-13" type="curve" smooth="yes"/>
      <point x="292" y="-13"/>
      <point x="353" y="25"/>
      <point x="371" y="96" type="curve"/>
      <point x="377" y="96" type="line"/>
      <point x="377" y="96" type="line"/>
      <point x="385" y="38"/>
      <point x="424" y="0"/>
      <point x="480" y="0" type="curve" smooth="yes"/>
      <point x="562" y="0" type="line"/>
      <point x="562" y="115" type="line"/>
      <point x="510" y="115" type="line"/>
      <point x="510" y="363" type="line" smooth="yes"/>
      <point x="510" y="491"/>
      <point x="430" y="563"/>
      <point x="277" y="563" type="curve" smooth="yes"/>
      <point x="164" y="563"/>
      <point x="101" y="522"/>
      <point x="58" y="458" type="curve"/>
      <point x="146" y="380" type="line"/>
      <point x="170" y="416"/>
      <point x="204" y="447"/>
      <point x="267" y="447" type="curve" smooth="yes"/>
      <point x="334" y="447"/>
      <point x="362" y="412"/>
      <point x="362" y="356" type="curve" smooth="yes"/>
      <point x="362" y="319" type="line"/>
      <point x="273" y="319" type="line" smooth="yes"/>
      <point x="124" y="319"/>
      <point x="36" y="264"/>
      <point x="36" y="148" type="curve" smooth="yes"/>
      <point x="36" y="53"/>
      <point x="98" y="-13"/>
    </contour>
    <contour>
      <point x="262" y="90" type="curve" smooth="yes"/>
      <point x="213" y="90"/>
      <point x="185" y="110"/>
      <point x="185" y="153" type="curve" smooth="yes"/>
      <point x="185" y="169" type="line" smooth="yes"/>
      <point x="185" y="212"/>
      <point x="219" y="235"/>
      <point x="283" y="235" type="curve" smooth="yes"/>
      <point x="362" y="235" type="line"/>
      <point x="362" y="166" type="line" smooth="yes"/>
      <point x="362" y="114"/>
      <point x="317" y="90"/>
    </contour>
  </outline>
</glyph>
<glyph name="uni00EC" format="2">
  <advance width="296"/>
  <unicode hex="00EC"/>
  <outline>
    <contour>
      <point x="222" y="0" type="line"/>
      <point x="222" y="550" type="line"/>
      <point x="74" y="550" type="line"/>
      <point x="74" y="0" type="line"/>
    </contour>
    <contour>
      <point x="229" y="649" type="line"/>
      <point x="126" y="850" type="line"/>
      <point x="3" y="789" type="line"/>
      <point x="140" y="606" type="line"/>
    </contour>
  </outline>
</glyph>
<glyph name="uni00F2" format="2">
  <advance width="592"/>
  <unicode hex="00F2"/>
  <outline>
    <contour>
      <point x="296" y="-13" type="curve" smooth="yes"/>
      <point x="456" y="-13"/>
      <point x="553" y="99"/>
      <point x="553" y="275" type="curve" smooth="yes"/>
      <point x="553" y="453"/>
      <point x="456" y="563"/>
      <point x="296" y="563" type="curve" smooth="yes"/>
      <point x="136" y="563"/>
      <point x="39" y="453"/>
      <point x="39" y="275" type="curve" smooth="yes"/>
      <point x="39" y="99"/>
      <point x="136" y="-13"/>
    </contour>
    <contour>
      <point x="296" y="104" type="curve" smooth="yes"/>
      <point x="231" y="104"/>
      <point x="193" y="146"/>
      <point x="193" y="221" type="curve" smooth="yes"/>
      <point x="193" y="329" type="line" smooth="yes"/>
      <point x="193" y="404"/>
      <point x="231" y="446"/>
      <point x="296" y="446" type="curve" smooth="yes"/>
      <point x="361" y="446"/>
      <point x="399" y="404"/>
      <point x="399" y="329" type="curve" smooth="yes"/>
      <point x="399" y="221" type="line" smooth="yes"/>
      <point x="399" y="146"/>
      <point x="361" y="104"/>
    </contour>
    <contour>
      <point x="375" y="649" type="line"/>
      <point x="272" y="850" type="line"/>
      <point x="149" y="789" type="line"/>
      <point x="286" y="606" type="line"/>
    </contour>
  </outline>
</glyph>
<glyph name="uni00F3" format="2">
  <advance width="592"/>
  <unicode hex="00F3"/>
  <outline>
    <contour>
      <point x="296" y="-13" type="curve" smooth="yes"/>
      <point x="456" y="-13"/>
      <point x="553" y="99"/>
      <point x="553" y="275" type="curve" smooth="yes"/>
      <point x="553" y="453"/>
      <point x="456" y="563"/>
      <point x="296" y="563" type="curve" smooth="yes"/>
      <point x="136" y="563"/>
      <point x="39" y="453"/>
      <point x="39" y="275" type="curve" smooth="yes"/>
      <point x="39" y="99"/>
      <point x="136" y="-13"/>
    </contour>
    <contour>
      <point x="296" y="104" type="curve" smooth="yes"/>
      <point x="231" y="104"/>
      <point x="193" y="146"/>
      <point x="193" y="221" type="curve" smooth="yes"/>
      <point x="193" y="329" type="line" smooth="yes"/>
      <point x="193" y="404"/>
      <point x="231" y="446"/>
      <point x="296" y="446" type="curve" smooth="yes"/>
      <point x="361" y="446"/>
      <point x="399" y="404"/>
      <point x="399" y="329" type="curve" smooth="yes"/>
      <point x="399" y="221" type="line" smooth="yes"/>
      <point x="399" y="146"/>
      <point x="361" y="104"/>
    </contour>
    <contour>
      <point x="447" y="792" type="line"/>
      <point x="325" y="853" type="line"/>
      <point x="222" y="653" type="line"/>
      <point x="311" y="609" type="line"/>
    </contour>
  </outline>
</glyph>
<glyph name="uni00F7" format="2">
  <advance width="630"/>
  <unicode hex="00F7"/>
  <outline>
    <contour>
      <point x="559" y="261" type="line"/>
      <point x="559" y="379" type="line"/>
      <point x="71" y="379" type="line"/>
      <point x="71" y="261" type="line"/>
    </contour>
    <contour>
      <point x="315" y="33" type="curve" smooth="yes"/>
      <point x="377" y="33"/>
      <point x="402" y="65"/>
      <point x="402" y="102" type="curve" smooth="yes"/>
      <point x="402" y="126" type="line" smooth="yes"/>
      <point x="402" y="163"/>
      <point x="377" y="195"/>
      <point x="315" y="195" type="curve" smooth="yes"/>
      <point x="253" y="195"/>
      <point x="228" y="163"/>
      <point x="228" y="126" type="curve" smooth="yes"/>
      <point x="228" y="102" type="line" smooth="yes"/>
      <point x="228" y="65"/>
      <point x="253" y="33"/>
    </contour>
    <contour>
      <point x="315" y="445" type="curve" smooth="yes"/>
      <point x="377" y="445"/>
      <point x="402" y="477"/>
      <point x="402" y="514" type="curve" smooth="yes"/>
      <point x="402" y="538" type="line" smooth="yes"/>
      <point x="402" y="575"/>
      <point x="377" y="607"/>
      <point x="315" y="607" type="curve" smooth="yes"/>
      <point x="253" y="607"/>
      <point x="228" y="575"/>
      <point x="228" y="538" type="curve" smooth="yes"/>
      <point x="228" y="514" type="line" smooth="yes"/>
      <point x="228" y="477"/>
      <point x="253" y="445"/>
    </contour>
  </outline>
</glyph>
<glyph name="uni00F9" format="2">
  <advance width="623"/>
  <unicode hex="00F9"/>
  <outline>
    <contour>
      <point x="243" y="-13" type="curve" smooth="yes"/>
      <point x="329" y="-13"/>
      <point x="375" y="34"/>
      <point x="396" y="92" type="curve"/>
      <point x="401" y="92" type="line"/>
      <point x="401" y="0" type="line"/>
      <point x="549" y="0" type="line"/>
      <point x="549" y="550" type="line"/>
      <point x="401" y="550" type="line"/>
      <point x="401" y="191" type="line" smooth="yes"/>
      <point x="401" y="134"/>
      <point x="352" y="107"/>
      <point x="299" y="107" type="curve" smooth="yes"/>
      <point x="240" y="107"/>
      <point x="217" y="144"/>
      <point x="217" y="217" type="curve" smooth="yes"/>
      <point x="217" y="550" type="line"/>
      <point x="69" y="550" type="line"/>
      <point x="69" y="205" type="line" smooth="yes"/>
      <point x="69" y="67"/>
      <point x="130" y="-13"/>
    </contour>
    <contour>
      <point x="389" y="649" type="line"/>
      <point x="286" y="850" type="line"/>
      <point x="163" y="789" type="line"/>
      <point x="300" y="606" type="line"/>
    </contour>
  </outline>
</glyph>
<glyph name="uni0113" format="2">
  <advance width="590"/>
  <unicode hex="0113"/>
  <outline>
    <contour>
      <point x="462" y="656" type="line"/>
      <point x="462" y="764" type="line"/>
      <point x="141" y="764" type="line"/>
      <point x="141" y="656" type="line"/>
    </contour>
    <contour>
      <point x="302" y="-13" type="curve" smooth="yes"/>
      <point x="403" y="-13"/>
      <point x="484" y="24"/>
      <point x="531" y="83" type="curve"/>
      <point x="456" y="173" type="line"/>
      <point x="422" y="135"/>
      <point x="384" y="103"/>
      <point x="318" y="103" type="curve" smooth="yes"/>
      <point x="234" y="103"/>
      <point x="193" y="152"/>
      <point x="193" y="228" type="curve" smooth="yes"/>
      <point x="193" y="238" type="line"/>
      <point x="550" y="238" type="line"/>
      <point x="550" y="283" type="line" smooth="yes"/>
      <point x="550" y="433"/>
      <point x="463" y="563"/>
      <point x="297" y="563" type="curve" smooth="yes"/>
      <point x="133" y="563"/>
      <point x="40" y="449"/>
      <point x="40" y="275" type="curve" smooth="yes"/>
      <point x="40" y="100"/>
      <point x="136" y="-13"/>
    </contour>
    <contour>
      <point x="193" y="334" type="line" smooth="yes"/>
      <point x="193" y="406"/>
      <point x="235" y="454"/>
      <point x="299" y="454" type="curve" smooth="yes"/>
      <point x="363" y="454"/>
      <point x="397" y="407"/>
      <point x="397" y="335" type="curve" smooth="yes"/>
      <point x="397" y="325" type="line"/>
      <point x="193" y="325" type="line"/>
    </contour>
  </outline>
</glyph>
<glyph name="uni016B" format="2">
  <advance width="626"/>
  <unicode hex="016B"/>
  <outline>
    <contour>
      <point x="470" y="656" type="line"/>
      <point x="470" y="764" type="line"/>
      <point x="149" y="764" type="line"/>
      <point x="149" y="656" type="line"/>
    </contour>
    <contour>
      <point x="244" y="-13" type="curve" smooth="yes"/>
      <point x="330" y="-13"/>
      <point x="376" y="34"/>
      <point x="397" y="92" type="curve"/>
      <point x="402" y="92" type="line"/>
      <point x="402" y="0" type="line"/>
      <point x="550" y="0" type="line"/>
      <point x="550" y="550" type="line"/>
      <point x="402" y="550" type="line"/>
      <point x="402" y="191" type="line" smooth="yes"/>
      <point x="402" y="134"/>
      <point x="353" y="107"/>
      <point x="300" y="107" type="curve" smooth="yes"/>
      <point x="241" y="107"/>
      <point x="218" y="144"/>
      <point x="218" y="217" type="curve" smooth="yes"/>
      <point x="218" y="550" type="line"/>
      <point x="70" y="550" type="line"/>
      <point x="70" y="205" type="line" smooth="yes"/>
      <point x="70" y="67"/>
      <point x="131" y="-13"/>
    </contour>
  </outline>
</glyph>
<glyph name="uni01D0" format="2">
  <advance width="300"/>
  <unicode hex="01D0"/>
  <outline>
    <contour>
      <point x="224" y="0" type="line"/>
      <point x="224" y="550" type="line"/>
      <point x="76" y="550" type="line"/>
      <point x="76" y="0" type="line"/>
    </contour>
    <contour>
      <point x="215" y="616" type="line"/>
      <point x="354" y="783" type="line"/>
      <point x="277" y="844" type="line"/>
      <point x="150" y="723" type="line"/>
      <point x="23" y="844" type="line"/>
      <point x="-54" y="783" type="line"/>
      <point x="85" y="616" type="line"/>
    </contour>
  </outline>
</glyph>
<glyph name="uni01D4" format="2">
  <advance width="626"/>
  <unicode hex="01D4"/>
  <outline>
    <contour>
      <point x="382" y="616" type="line"/>
      <point x="521" y="783" type="line"/>
      <point x="444" y="844" type="line"/>
      <point x="317" y="723" type="line"/>
      <point x="190" y="844" type="line"/>
      <point x="113" y="783" type="line"/>
      <point x="252" y="616" type="line"/>
    </contour>
    <contour>
      <point x="244" y="-13" type="curve" smooth="yes"/>
      <point x="330" y="-13"/>
      <point x="376" y="34"/>
      <point x="397" y="92" type="curve"/>
      <point x="402" y="92" type="line"/>
      <point x="402" y="0" type="line"/>
      <point x="550" y="0" type="line"/>
      <point x="550" y="550" type="line"/>
      <point x="402" y="550" type="line"/>
      <point x="402" y="191" type="line" smooth="yes"/>
      <point x="402" y="134"/>
      <point x="353" y="107"/>
      <point x="300" y="107" type="curve" smooth="yes"/>
      <point x="241" y="107"/>
      <point x="218" y="144"/>
      <point x="218" y="217" type="curve" smooth="yes"/>
      <point x="218" y="550" type="line"/>
      <point x="70" y="550" type="line"/>
      <point x="70" y="205" type="line" smooth="yes"/>
      <point x="70" y="67"/>
      <point x="131" y="-13"/>
    </contour>
  </outline>
</glyph>
<glyph name="uni01DC" format="2">
  <advance width="626"/>
  <unicode hex="01DC"/>
  <outline>
    <contour>
      <point x="194" y="625" type="curve" smooth="yes"/>
      <point x="254" y="625"/>
      <point x="274" y="653"/>
      <point x="274" y="688" type="curve" smooth="yes"/>
      <point x="274" y="713" type="line" smooth="yes"/>
      <point x="274" y="748"/>
      <point x="254" y="776"/>
      <point x="194" y="776" type="curve" smooth="yes"/>
      <point x="134" y="776"/>
      <point x="114" y="750"/>
      <point x="114" y="713" type="curve" smooth="yes"/>
      <point x="114" y="688" type="line" smooth="yes"/>
      <point x="114" y="653"/>
      <point x="134" y="625"/>
    </contour>
    <contour>
      <point x="426" y="625" type="curve" smooth="yes"/>
      <point x="486" y="625"/>
      <point x="506" y="653"/>
      <point x="506" y="688" type="curve" smooth="yes"/>
      <point x="506" y="713" type="line" smooth="yes"/>
      <point x="506" y="748"/>
      <point x="486" y="776"/>
      <point x="426" y="776" type="curve" smooth="yes"/>
      <point x="366" y="776"/>
      <point x="346" y="748"/>
      <point x="346" y="713" type="curve" smooth="yes"/>
      <point x="346" y="688" type="line" smooth="yes"/>
      <point x="346" y="653"/>
      <point x="366" y="625"/>
    </contour>
    <contour>
      <point x="381" y="829" type="line"/>
      <point x="282" y="1023" type="line"/>
      <point x="168" y="966" type="line"/>
      <point x="302" y="790" type="line"/>
    </contour>
    <contour>
      <point x="244" y="-13" type="curve" smooth="yes"/>
      <point x="330" y="-13"/>
      <point x="376" y="34"/>
      <point x="397" y="92" type="curve"/>
      <point x="402" y="92" type="line"/>
      <point x="402" y="0" type="line"/>
      <point x="550" y="0" type="line"/>
      <point x="550" y="550" type="line"/>
      <point x="402" y="550" type="line"/>
      <point x="402" y="191" type="line" smooth="yes"/>
      <point x="402" y="134"/>
      <point x="353" y="107"/>
      <point x="300" y="107" type="curve" smooth="yes"/>
      <point x="241" y="107"/>
      <point x="218" y="144"/>
      <point x="218" y="217" type="curve" smooth="yes"/>
      <point x="218" y="550" type="line"/>
      <point x="70" y="550" type="line"/>
      <point x="70" y="205" type="line" smooth="yes"/>
      <point x="70" y="67"/>
      <point x="131" y="-13"/>
    </contour>
  </outline>
</glyph>
<glyph name="uni02C6" format="2">
  <advance width="630"/>
  <unicode hex="02C6"/>
  <unicode hex="0302"/>
  <outline>
    <contour>
      <point x="251" y="831" type="line"/>
      <point x="115" y="666" type="line"/>
      <point x="189" y="609" type="line"/>
      <point x="315" y="730" type="line"/>
      <point x="441" y="609" type="line"/>
      <point x="515" y="666" type="line"/>
      <point x="379" y="831" type="line"/>
    </contour>
  </outline>
</glyph>
<glyph name="uni02C7" format="2">
  <advance width="630"/>
  <unicode hex="02C7"/>
  <outline>
    <contour>
      <point x="379" y="618" type="line"/>
      <point x="515" y="783" type="line"/>
      <point x="442" y="841" type="line"/>
      <point x="315" y="720" type="line"/>
      <point x="188" y="841" type="line"/>
      <point x="115" y="783" type="line"/>
      <point x="251" y="618" type="line"/>
    </contour>
  </outline>
</glyph>
<glyph name="uni02CA" format="2">
  <advance width="630"/>
  <unicode hex="02CA"/>
  <outline>
    <contour>
      <point x="439" y="751" type="line"/>
      <point x="342" y="847" type="line"/>
      <point x="144" y="618" type="line"/>
      <point x="213" y="551" type="line"/>
    </contour>
  </outline>
</glyph>
<glyph name="uni02CB" format="2">
  <advance width="630"/>
  <unicode hex="02CB"/>
  <outline>
    <contour>
      <point x="435" y="618" type="line"/>
      <point x="241" y="847" type="line"/>
      <point x="142" y="750" type="line"/>
      <point x="370" y="551" type="line"/>
    </contour>
  </outline>
</glyph>
<glyph name="uni02D9" format="2">
  <advance width="630"/>
  <unicode hex="02D9"/>
  <outline>
    <contour>
      <point x="315" y="625" type="curve" smooth="yes"/>
      <point x="381" y="625"/>
      <point x="404" y="656"/>
      <point x="404" y="695" type="curve" smooth="yes"/>
      <point x="404" y="724" type="line" smooth="yes"/>
      <point x="404" y="763"/>
      <point x="381" y="794"/>
      <point x="315" y="794" type="curve" smooth="yes"/>
      <point x="249" y="794"/>
      <point x="226" y="763"/>
      <point x="226" y="724" type="curve" smooth="yes"/>
      <point x="226" y="695" type="line" smooth="yes"/>
      <point x="226" y="656"/>
      <point x="249" y="625"/>
    </contour>
  </outline>
</glyph>
<glyph name="uni0394" format="2">
  <advance width="718"/>
  <unicode hex="0394"/>
  <outline>
    <contour>
      <point x="56" y="0" type="line"/>
      <point x="663" y="0" type="line"/>
      <point x="663" y="121" type="line"/>
      <point x="454" y="733" type="line"/>
      <point x="266" y="733" type="line"/>
      <point x="56" y="121" type="line"/>
    </contour>
    <contour>
      <point x="506" y="135" type="line"/>
      <point x="211" y="135" type="line"/>
      <point x="355" y="595" type="line"/>
      <point x="360" y="595" type="line"/>
    </contour>
  </outline>
</glyph>
<glyph name="uni039C" format="2">
  <advance width="859"/>
  <unicode hex="039C"/>
  <outline>
    <contour>
      <point x="226" y="0" type="line"/>
      <point x="226" y="503" type="line"/>
      <point x="229" y="503" type="line"/>
      <point x="285" y="387" type="line"/>
      <point x="429" y="121" type="line"/>
      <point x="576" y="388" type="line"/>
      <point x="630" y="497" type="line"/>
      <point x="633" y="497" type="line"/>
      <point x="633" y="0" type="line"/>
      <point x="776" y="0" type="line"/>
      <point x="776" y="733" type="line"/>
      <point x="614" y="733" type="line"/>
      <point x="432" y="383" type="line"/>
      <point x="429" y="383" type="line"/>
      <point x="244" y="733" type="line"/>
      <point x="83" y="733" type="line"/>
      <point x="83" y="0" type="line"/>
    </contour>
  </outline>
</glyph>
<glyph name="uni03A9" format="2">
  <advance width="760"/>
  <unicode hex="03A9"/>
  <outline>
    <contour>
      <point x="52" y="0" type="line"/>
      <point x="332" y="0" type="line"/>
      <point x="332" y="215" type="line"/>
      <point x="269" y="234"/>
      <point x="225" y="303"/>
      <point x="225" y="373" type="curve" smooth="yes"/>
      <point x="225" y="454" type="line" smooth="yes"/>
      <point x="225" y="534"/>
      <point x="284" y="611"/>
      <point x="380" y="611" type="curve" smooth="yes"/>
      <point x="475" y="611"/>
      <point x="534" y="534"/>
      <point x="534" y="454" type="curve" smooth="yes"/>
      <point x="534" y="373" type="line" smooth="yes"/>
      <point x="534" y="303"/>
      <point x="490" y="234"/>
      <point x="427" y="215" type="curve"/>
      <point x="427" y="0" type="line"/>
      <point x="707" y="0" type="line"/>
      <point x="707" y="134" type="line"/>
      <point x="537" y="134" type="line"/>
      <point x="537" y="144" type="line"/>
      <point x="644" y="191"/>
      <point x="702" y="281"/>
      <point x="702" y="423" type="curve" smooth="yes"/>
      <point x="702" y="605"/>
      <point x="584" y="746"/>
      <point x="380" y="746" type="curve" smooth="yes"/>
      <point x="175" y="746"/>
      <point x="57" y="605"/>
      <point x="57" y="423" type="curve" smooth="yes"/>
      <point x="57" y="281"/>
      <point x="115" y="191"/>
      <point x="222" y="144" type="curve"/>
      <point x="222" y="134" type="line"/>
      <point x="52" y="134" type="line"/>
    </contour>
  </outline>
</glyph>
<glyph name="uni03B1" format="2">
  <advance width="700"/>
  <unicode hex="03B1"/>
  <outline>
    <contour>
      <point x="662" y="114" type="line"/>
      <point x="600" y="114" type="line"/>
      <point x="537" y="279" type="line"/>
      <point x="658" y="549" type="line"/>
      <point x="510" y="549" type="line"/>
      <point x="486" y="470" type="line"/>
      <point x="464" y="393" type="line"/>
      <point x="460" y="393" type="line"/>
      <point x="426" y="511"/>
      <point x="368" y="563"/>
      <point x="261" y="563" type="curve" smooth="yes"/>
      <point x="131" y="563"/>
      <point x="47" y="462"/>
      <point x="47" y="275" type="curve" smooth="yes"/>
      <point x="47" y="88"/>
      <point x="131" y="-13"/>
      <point x="261" y="-13" type="curve" smooth="yes"/>
      <point x="368" y="-13"/>
      <point x="420" y="44"/>
      <point x="454" y="157" type="curve"/>
      <point x="457" y="157" type="line"/>
      <point x="469" y="109" type="line" smooth="yes"/>
      <point x="490" y="27"/>
      <point x="522" y="0"/>
      <point x="604" y="0" type="curve" smooth="yes"/>
      <point x="662" y="0" type="line"/>
    </contour>
    <contour>
      <point x="275" y="107" type="curve" smooth="yes"/>
      <point x="225" y="107"/>
      <point x="201" y="144"/>
      <point x="201" y="234" type="curve" smooth="yes"/>
      <point x="201" y="317" type="line" smooth="yes"/>
      <point x="201" y="407"/>
      <point x="225" y="443"/>
      <point x="275" y="443" type="curve" smooth="yes"/>
      <point x="313" y="443"/>
      <point x="340" y="415"/>
      <point x="365" y="342" type="curve" smooth="yes"/>
      <point x="388" y="276" type="line"/>
      <point x="365" y="209" type="line" smooth="yes"/>
      <point x="340" y="135"/>
      <point x="313" y="107"/>
    </contour>
  </outline>
</glyph>
<glyph name="uni03B4" format="2">
  <advance width="592"/>
  <unicode hex="03B4"/>
  <outline>
    <contour>
      <point x="505" y="660" type="line"/>
      <point x="505" y="775" type="line"/>
      <point x="95" y="775" type="line"/>
      <point x="95" y="634" type="line"/>
      <point x="183" y="563" type="line" smooth="yes"/>
      <point x="200" y="549"/>
      <point x="217" y="536"/>
      <point x="234" y="522" type="curve"/>
      <point x="234" y="516" type="line"/>
      <point x="135" y="516"/>
      <point x="42" y="426"/>
      <point x="42" y="262" type="curve" smooth="yes"/>
      <point x="42" y="96"/>
      <point x="139" y="-13"/>
      <point x="296" y="-13" type="curve" smooth="yes"/>
      <point x="454" y="-13"/>
      <point x="551" y="91"/>
      <point x="551" y="276" type="curve" smooth="yes"/>
      <point x="551" y="402"/>
      <point x="499" y="501"/>
      <point x="352" y="596" type="curve" smooth="yes"/>
      <point x="242" y="667" type="line"/>
      <point x="242" y="671" type="line"/>
      <point x="339" y="660" type="line"/>
    </contour>
    <contour>
      <point x="397" y="219" type="line" smooth="yes"/>
      <point x="397" y="144"/>
      <point x="361" y="104"/>
      <point x="296" y="104" type="curve" smooth="yes"/>
      <point x="231" y="104"/>
      <point x="196" y="144"/>
      <point x="196" y="219" type="curve" smooth="yes"/>
      <point x="196" y="318" type="line" smooth="yes"/>
      <point x="196" y="396"/>
      <point x="232" y="452"/>
      <point x="307" y="463" type="curve"/>
      <point x="379" y="401"/>
      <point x="397" y="350"/>
      <point x="397" y="262" type="curve" smooth="yes"/>
    </contour>
  </outline>
</glyph>
<glyph name="uni03B5" format="2">
  <advance width="554"/>
  <unicode hex="03B5"/>
  <outline>
    <contour>
      <point x="455" y="169" type="line"/>
      <point x="414" y="127"/>
      <point x="365" y="103"/>
      <point x="301" y="103" type="curve" smooth="yes"/>
      <point x="223" y="103"/>
      <point x="193" y="130"/>
      <point x="193" y="170" type="curve" smooth="yes"/>
      <point x="193" y="181" type="line" smooth="yes"/>
      <point x="193" y="217"/>
      <point x="215" y="231"/>
      <point x="259" y="231" type="curve" smooth="yes"/>
      <point x="381" y="231" type="line"/>
      <point x="381" y="329" type="line"/>
      <point x="273" y="329" type="line" smooth="yes"/>
      <point x="229" y="329"/>
      <point x="207" y="344"/>
      <point x="207" y="379" type="curve" smooth="yes"/>
      <point x="207" y="389" type="line" smooth="yes"/>
      <point x="207" y="422"/>
      <point x="235" y="447"/>
      <point x="295" y="447" type="curve" smooth="yes"/>
      <point x="350" y="447"/>
      <point x="398" y="427"/>
      <point x="434" y="391" type="curve"/>
      <point x="520" y="477" type="line"/>
      <point x="461" y="534"/>
      <point x="390" y="563"/>
      <point x="284" y="563" type="curve" smooth="yes"/>
      <point x="138" y="563"/>
      <point x="58" y="496"/>
      <point x="58" y="407" type="curve" smooth="yes"/>
      <point x="58" y="342"/>
      <point x="94" y="302"/>
      <point x="174" y="291" type="curve"/>
      <point x="174" y="286" type="line"/>
      <point x="94" y="276"/>
      <point x="44" y="233"/>
      <point x="44" y="155" type="curve" smooth="yes"/>
      <point x="44" y="53"/>
      <point x="137" y="-13"/>
      <point x="282" y="-13" type="curve" smooth="yes"/>
      <point x="393" y="-13"/>
      <point x="476" y="22"/>
      <point x="529" y="78" type="curve"/>
    </contour>
  </outline>
</glyph>
<glyph name="uni03B8" format="2">
  <advance width="605"/>
  <unicode hex="03B8"/>
  <outline>
    <contour>
      <point x="302" y="787" type="curve" smooth="yes"/>
      <point x="147" y="787"/>
      <point x="48" y="687"/>
      <point x="48" y="388" type="curve" smooth="yes"/>
      <point x="48" y="82"/>
      <point x="147" y="-13"/>
      <point x="302" y="-13" type="curve" smooth="yes"/>
      <point x="458" y="-13"/>
      <point x="557" y="82"/>
      <point x="557" y="388" type="curve" smooth="yes"/>
      <point x="557" y="687"/>
      <point x="458" y="787"/>
    </contour>
    <contour>
      <point x="302" y="105" type="curve" smooth="yes"/>
      <point x="235" y="105"/>
      <point x="202" y="138"/>
      <point x="202" y="273" type="curve" smooth="yes"/>
      <point x="202" y="331" type="line"/>
      <point x="403" y="331" type="line"/>
      <point x="403" y="273" type="line" smooth="yes"/>
      <point x="403" y="138"/>
      <point x="369" y="105"/>
    </contour>
    <contour>
      <point x="202" y="504" type="line" smooth="yes"/>
      <point x="202" y="637"/>
      <point x="235" y="670"/>
      <point x="302" y="670" type="curve" smooth="yes"/>
      <point x="369" y="670"/>
      <point x="403" y="637"/>
      <point x="403" y="504" type="curve" smooth="yes"/>
      <point x="403" y="446" type="line"/>
      <point x="202" y="446" type="line"/>
    </contour>
  </outline>
</glyph>
<glyph name="uni03BA" format="2">
  <advance width="609"/>
  <unicode hex="03BA"/>
  <outline>
    <contour>
      <point x="421" y="0" type="line"/>
      <point x="593" y="0" type="line"/>
      <point x="400" y="334" type="line"/>
      <point x="501" y="434" type="line"/>
      <point x="565" y="434" type="line"/>
      <point x="565" y="549" type="line"/>
      <point x="511" y="549" type="line" smooth="yes"/>
      <point x="454" y="549"/>
      <point x="427" y="538"/>
      <point x="391" y="498" type="curve" smooth="yes"/>
      <point x="307" y="405" type="line"/>
      <point x="232" y="308" type="line"/>
      <point x="226" y="308" type="line"/>
      <point x="226" y="549" type="line"/>
      <point x="78" y="549" type="line"/>
      <point x="78" y="0" type="line"/>
      <point x="226" y="0" type="line"/>
      <point x="226" y="159" type="line"/>
      <point x="301" y="234" type="line"/>
    </contour>
  </outline>
</glyph>
<glyph name="uni03BC" format="2">
  <advance width="647"/>
  <unicode hex="03BC"/>
  <outline>
    <contour>
      <point x="221" y="-210" type="line"/>
      <point x="221" y="-101" type="line"/>
      <point x="181" y="46" type="line"/>
      <point x="186" y="46" type="line"/>
      <point x="213" y="4"/>
      <point x="241" y="-13"/>
      <point x="289" y="-13" type="curve" smooth="yes"/>
      <point x="346" y="-13"/>
      <point x="386" y="23"/>
      <point x="403" y="101" type="curve"/>
      <point x="408" y="101" type="line"/>
      <point x="408" y="101" type="line"/>
      <point x="423" y="38"/>
      <point x="468" y="0"/>
      <point x="557" y="0" type="curve" smooth="yes"/>
      <point x="610" y="0" type="line"/>
      <point x="610" y="115" type="line"/>
      <point x="555" y="115" type="line"/>
      <point x="555" y="549" type="line"/>
      <point x="407" y="549" type="line"/>
      <point x="407" y="194" type="line" smooth="yes"/>
      <point x="407" y="138"/>
      <point x="362" y="107"/>
      <point x="304" y="107" type="curve" smooth="yes"/>
      <point x="244" y="107"/>
      <point x="222" y="144"/>
      <point x="222" y="216" type="curve" smooth="yes"/>
      <point x="222" y="549" type="line"/>
      <point x="74" y="549" type="line"/>
      <point x="74" y="-210" type="line"/>
    </contour>
  </outline>
</glyph>
<glyph name="uni03BE" format="2">
  <advance width="463"/>
  <unicode hex="03BE"/>
  <outline>
    <contour>
      <point x="461" y="665" type="line"/>
      <point x="461" y="780" type="line"/>
      <point x="35" y="780" type="line"/>
      <point x="35" y="665" type="line"/>
      <point x="159" y="665" type="line"/>
      <point x="159" y="657" type="line"/>
      <point x="108" y="640"/>
      <point x="77" y="595"/>
      <point x="77" y="538" type="curve" smooth="yes"/>
      <point x="77" y="469"/>
      <point x="123" y="425"/>
      <point x="209" y="410" type="curve"/>
      <point x="209" y="406" type="line"/>
      <point x="110" y="391"/>
      <point x="50" y="315"/>
      <point x="50" y="226" type="curve" smooth="yes"/>
      <point x="50" y="115"/>
      <point x="90" y="46"/>
      <point x="224" y="10" type="curve" smooth="yes"/>
      <point x="298" y="-10" type="line"/>
      <point x="247" y="-135" type="line"/>
      <point x="367" y="-181" type="line"/>
      <point x="424" y="-43" type="line" smooth="yes"/>
      <point x="433" y="-22"/>
      <point x="440" y="-4"/>
      <point x="440" y="14" type="curve" smooth="yes"/>
      <point x="440" y="64"/>
      <point x="411" y="98"/>
      <point x="353" y="114" type="curve" smooth="yes"/>
      <point x="276" y="135" type="line" smooth="yes"/>
      <point x="219" y="151"/>
      <point x="199" y="181"/>
      <point x="199" y="231" type="curve" smooth="yes"/>
      <point x="199" y="258" type="line" smooth="yes"/>
      <point x="199" y="307"/>
      <point x="234" y="341"/>
      <point x="278" y="341" type="curve" smooth="yes"/>
      <point x="381" y="341" type="line"/>
      <point x="381" y="456" type="line"/>
      <point x="326" y="456" type="line" smooth="yes"/>
      <point x="261" y="456"/>
      <point x="221" y="493"/>
      <point x="221" y="549" type="curve" smooth="yes"/>
      <point x="221" y="566" type="line" smooth="yes"/>
      <point x="221" y="635"/>
      <point x="257" y="665"/>
      <point x="320" y="665" type="curve" smooth="yes"/>
    </contour>
  </outline>
</glyph>
<glyph name="uni03BF" format="2">
  <advance width="592"/>
  <unicode hex="03BF"/>
  <outline>
    <contour>
      <point x="296" y="-13" type="curve" smooth="yes"/>
      <point x="456" y="-13"/>
      <point x="553" y="99"/>
      <point x="553" y="275" type="curve" smooth="yes"/>
      <point x="553" y="453"/>
      <point x="456" y="563"/>
      <point x="296" y="563" type="curve" smooth="yes"/>
      <point x="136" y="563"/>
      <point x="39" y="453"/>
      <point x="39" y="275" type="curve" smooth="yes"/>
      <point x="39" y="99"/>
      <point x="136" y="-13"/>
    </contour>
    <contour>
      <point x="296" y="104" type="curve" smooth="yes"/>
      <point x="231" y="104"/>
      <point x="193" y="146"/>
      <point x="193" y="221" type="curve" smooth="yes"/>
      <point x="193" y="329" type="line" smooth="yes"/>
      <point x="193" y="404"/>
      <point x="231" y="446"/>
      <point x="296" y="446" type="curve" smooth="yes"/>
      <point x="361" y="446"/>
      <point x="399" y="404"/>
      <point x="399" y="329" type="curve" smooth="yes"/>
      <point x="399" y="221" type="line" smooth="yes"/>
      <point x="399" y="146"/>
      <point x="361" y="104"/>
    </contour>
  </outline>
</glyph>
<glyph name="uni03C4" format="2">
  <advance width="525"/>
  <unicode hex="03C4"/>
  <outline>
    <contour>
      <point x="437" y="0" type="line"/>
      <point x="437" y="115" type="line"/>
      <point x="321" y="115" type="line"/>
      <point x="321" y="434" type="line"/>
      <point x="496" y="434" type="line"/>
      <point x="496" y="549" type="line"/>
      <point x="21" y="549" type="line"/>
      <point x="21" y="434" type="line"/>
      <point x="173" y="434" type="line"/>
      <point x="173" y="155" type="line" smooth="yes"/>
      <point x="173" y="50"/>
      <point x="230" y="0"/>
      <point x="334" y="0" type="curve" smooth="yes"/>
    </contour>
  </outline>
</glyph>
<glyph name="uni03C5" format="2">
  <advance width="611"/>
  <unicode hex="03C5"/>
  <outline>
    <contour>
      <point x="213" y="549" type="line"/>
      <point x="65" y="549" type="line"/>
      <point x="65" y="251" type="line" smooth="yes"/>
      <point x="65" y="76"/>
      <point x="147" y="-13"/>
      <point x="306" y="-13" type="curve" smooth="yes"/>
      <point x="464" y="-13"/>
      <point x="546" y="76"/>
      <point x="546" y="251" type="curve" smooth="yes"/>
      <point x="546" y="549" type="line"/>
      <point x="398" y="549" type="line"/>
      <point x="398" y="220" type="line" smooth="yes"/>
      <point x="398" y="142"/>
      <point x="370" y="105"/>
      <point x="306" y="105" type="curve" smooth="yes"/>
      <point x="241" y="105"/>
      <point x="213" y="142"/>
      <point x="213" y="220" type="curve" smooth="yes"/>
    </contour>
  </outline>
</glyph>
<glyph name="uni03C6" format="2">
  <advance width="812"/>
  <unicode hex="03C6"/>
  <outline>
    <contour>
      <point x="330" y="-210" type="line"/>
      <point x="475" y="-210" type="line"/>
      <point x="475" y="-13" type="line"/>
      <point x="654" y="-13"/>
      <point x="763" y="86"/>
      <point x="763" y="285" type="curve" smooth="yes"/>
      <point x="763" y="486"/>
      <point x="688" y="563"/>
      <point x="542" y="563" type="curve" smooth="yes"/>
      <point x="397" y="563"/>
      <point x="330" y="468"/>
      <point x="330" y="323" type="curve" smooth="yes"/>
      <point x="330" y="102" type="line"/>
      <point x="259" y="102"/>
      <point x="203" y="143"/>
      <point x="203" y="235" type="curve" smooth="yes"/>
      <point x="203" y="313" type="line" smooth="yes"/>
      <point x="203" y="374"/>
      <point x="224" y="430"/>
      <point x="276" y="470" type="curve"/>
      <point x="186" y="563" type="line"/>
      <point x="91" y="510"/>
      <point x="49" y="405"/>
      <point x="49" y="277" type="curve" smooth="yes"/>
      <point x="49" y="86"/>
      <point x="162" y="-13"/>
      <point x="330" y="-13" type="curve"/>
    </contour>
    <contour>
      <point x="475" y="349" type="line" smooth="yes"/>
      <point x="475" y="421"/>
      <point x="496" y="446"/>
      <point x="542" y="446" type="curve" smooth="yes"/>
      <point x="588" y="446"/>
      <point x="609" y="421"/>
      <point x="609" y="349" type="curve" smooth="yes"/>
      <point x="609" y="235" type="line" smooth="yes"/>
      <point x="609" y="143"/>
      <point x="554" y="102"/>
      <point x="475" y="102" type="curve"/>
    </contour>
  </outline>
</glyph>
<glyph name="uni03C7" format="2">
  <advance width="572"/>
  <unicode hex="03C7"/>
  <outline>
    <contour>
      <point x="18" y="549" type="line"/>
      <point x="18" y="434" type="line"/>
      <point x="91" y="434" type="line"/>
      <point x="200" y="176" type="line"/>
      <point x="15" y="-210" type="line"/>
      <point x="171" y="-210" type="line"/>
      <point x="281" y="73" type="line"/>
      <point x="285" y="73" type="line"/>
      <point x="357" y="-116" type="line" smooth="yes"/>
      <point x="381" y="-180"/>
      <point x="409" y="-210"/>
      <point x="490" y="-210" type="curve" smooth="yes"/>
      <point x="562" y="-210" type="line"/>
      <point x="562" y="-95" type="line"/>
      <point x="492" y="-95" type="line"/>
      <point x="380" y="179" type="line"/>
      <point x="557" y="549" type="line"/>
      <point x="398" y="549" type="line"/>
      <point x="294" y="285" type="line"/>
      <point x="290" y="285" type="line"/>
      <point x="228" y="455" type="line" smooth="yes"/>
      <point x="203" y="524"/>
      <point x="170" y="549"/>
      <point x="99" y="549" type="curve" smooth="yes"/>
    </contour>
  </outline>
</glyph>
<glyph name="uni03C8" format="2">
  <advance width="797"/>
  <unicode hex="03C8"/>
  <outline>
    <contour>
      <point x="471" y="-210" type="line"/>
      <point x="471" y="-13" type="line"/>
      <point x="640" y="-13"/>
      <point x="731" y="77"/>
      <point x="731" y="266" type="curve" smooth="yes"/>
      <point x="731" y="549" type="line"/>
      <point x="583" y="549" type="line"/>
      <point x="583" y="233" type="line" smooth="yes"/>
      <point x="583" y="140"/>
      <point x="546" y="103"/>
      <point x="471" y="103" type="curve"/>
      <point x="471" y="743" type="line"/>
      <point x="326" y="743" type="line"/>
      <point x="326" y="103" type="line"/>
      <point x="251" y="103"/>
      <point x="214" y="140"/>
      <point x="214" y="233" type="curve" smooth="yes"/>
      <point x="214" y="549" type="line"/>
      <point x="66" y="549" type="line"/>
      <point x="66" y="266" type="line" smooth="yes"/>
      <point x="66" y="77"/>
      <point x="157" y="-13"/>
      <point x="326" y="-13" type="curve"/>
      <point x="326" y="-210" type="line"/>
    </contour>
  </outline>
</glyph>
<glyph name="uni0411" format="2">
  <advance width="690"/>
  <unicode hex="0411"/>
  <outline>
    <contour>
      <point x="89" y="0" type="line"/>
      <point x="427" y="0" type="line" smooth="yes"/>
      <point x="560" y="0"/>
      <point x="646" y="96"/>
      <point x="646" y="226" type="curve" smooth="yes"/>
      <point x="646" y="354"/>
      <point x="560" y="450"/>
      <point x="427" y="450" type="curve" smooth="yes"/>
      <point x="241" y="450" type="line"/>
      <point x="241" y="598" type="line"/>
      <point x="577" y="598" type="line"/>
      <point x="577" y="733" type="line"/>
      <point x="89" y="733" type="line"/>
    </contour>
    <contour>
      <point x="241" y="132" type="line"/>
      <point x="241" y="318" type="line"/>
      <point x="413" y="318" type="line" smooth="yes"/>
      <point x="460" y="318"/>
      <point x="489" y="293"/>
      <point x="489" y="246" type="curve" smooth="yes"/>
      <point x="489" y="204" type="line" smooth="yes"/>
      <point x="489" y="157"/>
      <point x="460" y="132"/>
      <point x="413" y="132" type="curve" smooth="yes"/>
    </contour>
  </outline>
</glyph>
<glyph name="uni0414" format="2">
  <advance width="856"/>
  <unicode hex="0414"/>
  <outline>
    <contour>
      <point x="20" y="-157" type="line"/>
      <point x="163" y="-157" type="line"/>
      <point x="163" y="0" type="line"/>
      <point x="680" y="0" type="line"/>
      <point x="680" y="-157" type="line"/>
      <point x="823" y="-157" type="line"/>
      <point x="823" y="136" type="line"/>
      <point x="704" y="136" type="line"/>
      <point x="704" y="733" type="line"/>
      <point x="185" y="733" type="line"/>
      <point x="185" y="500" type="line" smooth="yes"/>
      <point x="185" y="282"/>
      <point x="149" y="182"/>
      <point x="101" y="136" type="curve"/>
      <point x="20" y="136" type="line"/>
    </contour>
    <contour>
      <point x="273" y="136" type="line"/>
      <point x="273" y="139" type="line"/>
      <point x="311" y="194"/>
      <point x="333" y="286"/>
      <point x="333" y="478" type="curve" smooth="yes"/>
      <point x="333" y="599" type="line"/>
      <point x="552" y="599" type="line"/>
      <point x="552" y="136" type="line"/>
    </contour>
  </outline>
</glyph>
<glyph name="uni0415" format="2">
  <advance width="634"/>
  <unicode hex="0415"/>
  <outline>
    <contour>
      <point x="575" y="135" type="line"/>
      <point x="235" y="135" type="line"/>
      <point x="235" y="304" type="line"/>
      <point x="529" y="304" type="line"/>
      <point x="529" y="438" type="line"/>
      <point x="235" y="438" type="line"/>
      <point x="235" y="598" type="line"/>
      <point x="575" y="598" type="line"/>
      <point x="575" y="733" type="line"/>
      <point x="83" y="733" type="line"/>
      <point x="83" y="0" type="line"/>
      <point x="575" y="0" type="line"/>
    </contour>
  </outline>
</glyph>
<glyph name="uni0416" format="2">
  <advance width="1056"/>
  <unicode hex="0416"/>
  <outline>
    <contour>
      <point x="42" y="0" type="line"/>
      <point x="126" y="0" type="line" smooth="yes"/>
      <point x="185" y="0"/>
      <point x="221" y="21"/>
      <point x="254" y="91" type="curve" smooth="yes"/>
      <point x="353" y="304" type="line"/>
      <point x="452" y="304" type="line"/>
      <point x="452" y="0" type="line"/>
      <point x="604" y="0" type="line"/>
      <point x="604" y="304" type="line"/>
      <point x="703" y="304" type="line"/>
      <point x="802" y="91" type="line" smooth="yes"/>
      <point x="835" y="21"/>
      <point x="871" y="0"/>
      <point x="930" y="0" type="curve" smooth="yes"/>
      <point x="1014" y="0" type="line"/>
      <point x="1014" y="135" type="line"/>
      <point x="941" y="135" type="line"/>
      <point x="860" y="313" type="line" smooth="yes"/>
      <point x="843" y="351"/>
      <point x="817" y="370"/>
      <point x="782" y="375" type="curve"/>
      <point x="782" y="381" type="line"/>
      <point x="815" y="391"/>
      <point x="839" y="407"/>
      <point x="858" y="450" type="curve" smooth="yes"/>
      <point x="925" y="598" type="line"/>
      <point x="999" y="598" type="line"/>
      <point x="999" y="733" type="line"/>
      <point x="933" y="733" type="line" smooth="yes"/>
      <point x="871" y="733"/>
      <point x="831" y="706"/>
      <point x="802" y="645" type="curve" smooth="yes"/>
      <point x="703" y="438" type="line"/>
      <point x="604" y="438" type="line"/>
      <point x="604" y="733" type="line"/>
      <point x="452" y="733" type="line"/>
      <point x="452" y="438" type="line"/>
      <point x="353" y="438" type="line"/>
      <point x="254" y="645" type="line" smooth="yes"/>
      <point x="225" y="706"/>
      <point x="185" y="733"/>
      <point x="123" y="733" type="curve" smooth="yes"/>
      <point x="57" y="733" type="line"/>
      <point x="57" y="598" type="line"/>
      <point x="129" y="598" type="line"/>
      <point x="197" y="450" type="line" smooth="yes"/>
      <point x="216" y="408"/>
      <point x="240" y="391"/>
      <point x="274" y="381" type="curve"/>
      <point x="274" y="375" type="line"/>
      <point x="238" y="370"/>
      <point x="212" y="351"/>
      <point x="195" y="313" type="curve" smooth="yes"/>
      <point x="114" y="135" type="line"/>
      <point x="42" y="135" type="line"/>
    </contour>
  </outline>
</glyph>
<glyph name="uni0417" format="2">
  <advance width="638"/>
  <unicode hex="0417"/>
  <outline>
    <contour>
      <point x="301" y="-13" type="curve" smooth="yes"/>
      <point x="483" y="-13"/>
      <point x="594" y="81"/>
      <point x="594" y="218" type="curve" smooth="yes"/>
      <point x="594" y="324"/>
      <point x="517" y="375"/>
      <point x="433" y="380" type="curve"/>
      <point x="433" y="386" type="line"/>
      <point x="517" y="394"/>
      <point x="581" y="442"/>
      <point x="581" y="541" type="curve" smooth="yes"/>
      <point x="581" y="667"/>
      <point x="479" y="746"/>
      <point x="306" y="746" type="curve" smooth="yes"/>
      <point x="205" y="746"/>
      <point x="114" y="706"/>
      <point x="53" y="639" type="curve"/>
      <point x="150" y="545" type="line"/>
      <point x="187" y="587"/>
      <point x="248" y="611"/>
      <point x="306" y="611" type="curve" smooth="yes"/>
      <point x="380" y="611"/>
      <point x="420" y="582"/>
      <point x="420" y="532" type="curve" smooth="yes"/>
      <point x="420" y="527" type="line" smooth="yes"/>
      <point x="420" y="473"/>
      <point x="384" y="439"/>
      <point x="319" y="439" type="curve" smooth="yes"/>
      <point x="198" y="439" type="line"/>
      <point x="198" y="305" type="line"/>
      <point x="325" y="305" type="line" smooth="yes"/>
      <point x="396" y="305"/>
      <point x="433" y="274"/>
      <point x="433" y="218" type="curve" smooth="yes"/>
      <point x="433" y="210" type="line" smooth="yes"/>
      <point x="433" y="157"/>
      <point x="385" y="122"/>
      <point x="301" y="122" type="curve" smooth="yes"/>
      <point x="236" y="122"/>
      <point x="181" y="148"/>
      <point x="137" y="194" type="curve"/>
      <point x="32" y="96" type="line"/>
      <point x="103" y="23"/>
      <point x="194" y="-13"/>
    </contour>
  </outline>
</glyph>
<glyph name="uni0418" format="2">
  <advance width="760"/>
  <unicode hex="0418"/>
  <outline>
    <contour>
      <point x="84" y="0" type="line"/>
      <point x="220" y="0" type="line"/>
      <point x="465" y="379" type="line"/>
      <point x="542" y="523" type="line"/>
      <point x="545" y="523" type="line"/>
      <point x="528" y="364" type="line"/>
      <point x="528" y="0" type="line"/>
      <point x="676" y="0" type="line"/>
      <point x="676" y="733" type="line"/>
      <point x="540" y="733" type="line"/>
      <point x="295" y="354" type="line"/>
      <point x="219" y="209" type="line"/>
      <point x="216" y="209" type="line"/>
      <point x="232" y="369" type="line"/>
      <point x="232" y="733" type="line"/>
      <point x="84" y="733" type="line"/>
    </contour>
  </outline>
</glyph>
<glyph name="uni041A" format="2">
  <advance width="709"/>
  <unicode hex="041A"/>
  <outline>
    <contour>
      <point x="84" y="0" type="line"/>
      <point x="236" y="0" type="line"/>
      <point x="236" y="304" type="line"/>
      <point x="346" y="304" type="line"/>
      <point x="460" y="89" type="line" smooth="yes"/>
      <point x="496" y="21"/>
      <point x="524" y="0"/>
      <point x="583" y="0" type="curve" smooth="yes"/>
      <point x="666" y="0" type="line"/>
      <point x="666" y="135" type="line"/>
      <point x="601" y="135" type="line"/>
      <point x="515" y="302" type="line" smooth="yes"/>
      <point x="495" y="342"/>
      <point x="470" y="369"/>
      <point x="434" y="375" type="curve"/>
      <point x="434" y="381" type="line"/>
      <point x="467" y="392"/>
      <point x="490" y="418"/>
      <point x="510" y="455" type="curve" smooth="yes"/>
      <point x="586" y="598" type="line"/>
      <point x="651" y="598" type="line"/>
      <point x="651" y="733" type="line"/>
      <point x="586" y="733" type="line" smooth="yes"/>
      <point x="524" y="733"/>
      <point x="491" y="705"/>
      <point x="459" y="646" type="curve" smooth="yes"/>
      <point x="346" y="438" type="line"/>
      <point x="236" y="438" type="line"/>
      <point x="236" y="733" type="line"/>
      <point x="84" y="733" type="line"/>
    </contour>
  </outline>
</glyph>
<glyph name="uni041C" format="2">
  <advance width="860"/>
  <unicode hex="041C"/>
  <outline>
    <contour>
      <point x="227" y="0" type="line"/>
      <point x="227" y="503" type="line"/>
      <point x="230" y="503" type="line"/>
      <point x="286" y="387" type="line"/>
      <point x="430" y="121" type="line"/>
      <point x="577" y="388" type="line"/>
      <point x="631" y="497" type="line"/>
      <point x="634" y="497" type="line"/>
      <point x="634" y="0" type="line"/>
      <point x="777" y="0" type="line"/>
      <point x="777" y="733" type="line"/>
      <point x="615" y="733" type="line"/>
      <point x="433" y="383" type="line"/>
      <point x="430" y="383" type="line"/>
      <point x="245" y="733" type="line"/>
      <point x="84" y="733" type="line"/>
      <point x="84" y="0" type="line"/>
    </contour>
  </outline>
</glyph>
<glyph name="uni041F" format="2">
  <advance width="744"/>
  <unicode hex="041F"/>
  <outline>
    <contour>
      <point x="84" y="0" type="line"/>
      <point x="236" y="0" type="line"/>
      <point x="236" y="598" type="line"/>
      <point x="507" y="598" type="line"/>
      <point x="507" y="0" type="line"/>
      <point x="659" y="0" type="line"/>
      <point x="659" y="733" type="line"/>
      <point x="84" y="733" type="line"/>
    </contour>
  </outline>
</glyph>
<glyph name="uni0424" format="2">
  <advance width="949"/>
  <unicode hex="0424"/>
  <outline>
    <contour>
      <point x="398" y="-47" type="line"/>
      <point x="552" y="-47" type="line"/>
      <point x="552" y="51" type="line"/>
      <point x="595" y="51" type="line" smooth="yes"/>
      <point x="789" y="51"/>
      <point x="909" y="185"/>
      <point x="909" y="365" type="curve" smooth="yes"/>
      <point x="909" y="544"/>
      <point x="793" y="680"/>
      <point x="595" y="680" type="curve" smooth="yes"/>
      <point x="552" y="680" type="line"/>
      <point x="552" y="777" type="line"/>
      <point x="398" y="777" type="line"/>
      <point x="398" y="680" type="line"/>
      <point x="355" y="680" type="line" smooth="yes"/>
      <point x="157" y="680"/>
      <point x="41" y="544"/>
      <point x="41" y="365" type="curve" smooth="yes"/>
      <point x="41" y="185"/>
      <point x="161" y="51"/>
      <point x="355" y="51" type="curve" smooth="yes"/>
      <point x="398" y="51" type="line"/>
    </contour>
    <contour>
      <point x="355" y="176" type="line" smooth="yes"/>
      <point x="250" y="176"/>
      <point x="197" y="243"/>
      <point x="197" y="335" type="curve" smooth="yes"/>
      <point x="197" y="397" type="line" smooth="yes"/>
      <point x="197" y="487"/>
      <point x="246" y="555"/>
      <point x="355" y="555" type="curve" smooth="yes"/>
      <point x="401" y="555" type="line"/>
      <point x="401" y="176" type="line"/>
    </contour>
    <contour>
      <point x="549" y="176" type="line"/>
      <point x="549" y="555" type="line"/>
      <point x="595" y="555" type="line" smooth="yes"/>
      <point x="704" y="555"/>
      <point x="753" y="487"/>
      <point x="753" y="397" type="curve" smooth="yes"/>
      <point x="753" y="335" type="line" smooth="yes"/>
      <point x="753" y="243"/>
      <point x="700" y="176"/>
      <point x="595" y="176" type="curve" smooth="yes"/>
    </contour>
  </outline>
</glyph>
<glyph name="uni0425" format="2">
  <advance width="707"/>
  <unicode hex="0425"/>
  <outline>
    <contour>
      <point x="344" y="274" type="line"/>
      <point x="348" y="274" type="line"/>
      <point x="510" y="0" type="line"/>
      <point x="686" y="0" type="line"/>
      <point x="448" y="376" type="line"/>
      <point x="674" y="733" type="line"/>
      <point x="510" y="733" type="line"/>
      <point x="360" y="480" type="line"/>
      <point x="357" y="480" type="line"/>
      <point x="209" y="733" type="line"/>
      <point x="32" y="733" type="line"/>
      <point x="258" y="378" type="line"/>
      <point x="22" y="0" type="line"/>
      <point x="186" y="0" type="line"/>
    </contour>
  </outline>
</glyph>
<glyph name="uni0426" format="2">
  <advance width="811"/>
  <unicode hex="0426"/>
  <outline>
    <contour>
      <point x="638" y="-157" type="line"/>
      <point x="781" y="-157" type="line"/>
      <point x="781" y="135" type="line"/>
      <point x="662" y="135" type="line"/>
      <point x="662" y="733" type="line"/>
      <point x="510" y="733" type="line"/>
      <point x="510" y="135" type="line"/>
      <point x="239" y="135" type="line"/>
      <point x="239" y="733" type="line"/>
      <point x="87" y="733" type="line"/>
      <point x="87" y="0" type="line"/>
      <point x="638" y="0" type="line"/>
    </contour>
  </outline>
</glyph>
<glyph name="uni0427" format="2">
  <advance width="712"/>
  <unicode hex="0427"/>
  <outline>
    <contour>
      <point x="474" y="0" type="line"/>
      <point x="626" y="0" type="line"/>
      <point x="626" y="733" type="line"/>
      <point x="474" y="733" type="line"/>
      <point x="474" y="390" type="line"/>
      <point x="443" y="377"/>
      <point x="404" y="371"/>
      <point x="341" y="371" type="curve" smooth="yes"/>
      <point x="251" y="371"/>
      <point x="212" y="413"/>
      <point x="212" y="496" type="curve" smooth="yes"/>
      <point x="212" y="733" type="line"/>
      <point x="60" y="733" type="line"/>
      <point x="60" y="502" type="line" smooth="yes"/>
      <point x="60" y="327"/>
      <point x="144" y="239"/>
      <point x="326" y="239" type="curve" smooth="yes"/>
      <point x="392" y="239"/>
      <point x="436" y="249"/>
      <point x="469" y="263" type="curve"/>
      <point x="474" y="263" type="line"/>
    </contour>
  </outline>
</glyph>
<glyph name="uni0428" format="2">
  <advance width="1082"/>
  <unicode hex="0428"/>
  <outline>
    <contour>
      <point x="85" y="0" type="line"/>
      <point x="997" y="0" type="line"/>
      <point x="997" y="733" type="line"/>
      <point x="845" y="733" type="line"/>
      <point x="845" y="135" type="line"/>
      <point x="618" y="135" type="line"/>
      <point x="618" y="733" type="line"/>
      <point x="466" y="733" type="line"/>
      <point x="466" y="135" type="line"/>
      <point x="237" y="135" type="line"/>
      <point x="237" y="733" type="line"/>
      <point x="85" y="733" type="line"/>
    </contour>
  </outline>
</glyph>
<glyph name="uni042B" format="2">
  <advance width="980"/>
  <unicode hex="042B"/>
  <outline>
    <contour>
      <point x="85" y="0" type="line"/>
      <point x="423" y="0" type="line" smooth="yes"/>
      <point x="560" y="0"/>
      <point x="646" y="96"/>
      <point x="646" y="234" type="curve" smooth="yes"/>
      <point x="646" y="373"/>
      <point x="560" y="468"/>
      <point x="423" y="468" type="curve" smooth="yes"/>
      <point x="237" y="468" type="line"/>
      <point x="237" y="733" type="line"/>
      <point x="85" y="733" type="line"/>
    </contour>
    <contour>
      <point x="237" y="132" type="line"/>
      <point x="237" y="336" type="line"/>
      <point x="413" y="336" type="line" smooth="yes"/>
      <point x="460" y="336"/>
      <point x="489" y="309"/>
      <point x="489" y="256" type="curve" smooth="yes"/>
      <point x="489" y="212" type="line" smooth="yes"/>
      <point x="489" y="158"/>
      <point x="460" y="132"/>
      <point x="413" y="132" type="curve" smooth="yes"/>
    </contour>
    <contour>
      <point x="743" y="0" type="line"/>
      <point x="895" y="0" type="line"/>
      <point x="895" y="733" type="line"/>
      <point x="743" y="733" type="line"/>
    </contour>
  </outline>
</glyph>
<glyph name="uni042C" format="2">
  <advance width="695"/>
  <unicode hex="042C"/>
  <outline>
    <contour>
      <point x="83" y="0" type="line"/>
      <point x="436" y="0" type="line" smooth="yes"/>
      <point x="572" y="0"/>
      <point x="659" y="96"/>
      <point x="659" y="234" type="curve" smooth="yes"/>
      <point x="659" y="373"/>
      <point x="572" y="468"/>
      <point x="436" y="468" type="curve" smooth="yes"/>
      <point x="235" y="468" type="line"/>
      <point x="235" y="733" type="line"/>
      <point x="83" y="733" type="line"/>
    </contour>
    <contour>
      <point x="235" y="132" type="line"/>
      <point x="235" y="336" type="line"/>
      <point x="425" y="336" type="line" smooth="yes"/>
      <point x="472" y="336"/>
      <point x="502" y="310"/>
      <point x="502" y="256" type="curve" smooth="yes"/>
      <point x="502" y="212" type="line" smooth="yes"/>
      <point x="502" y="158"/>
      <point x="472" y="132"/>
      <point x="425" y="132" type="curve" smooth="yes"/>
    </contour>
  </outline>
</glyph>
<glyph name="uni0434" format="2">
  <advance width="691"/>
  <unicode hex="0434"/>
  <outline>
    <contour>
      <point x="14" y="-147" type="line"/>
      <point x="148" y="-147" type="line"/>
      <point x="148" y="3" type="line"/>
      <point x="537" y="3" type="line"/>
      <point x="537" y="-147" type="line"/>
      <point x="671" y="-147" type="line"/>
      <point x="671" y="118" type="line"/>
      <point x="576" y="118" type="line"/>
      <point x="576" y="549" type="line"/>
      <point x="141" y="549" type="line"/>
      <point x="141" y="395" type="line" smooth="yes"/>
      <point x="141" y="251"/>
      <point x="125" y="171"/>
      <point x="87" y="118" type="curve"/>
      <point x="14" y="118" type="line"/>
    </contour>
    <contour>
      <point x="242" y="118" type="line"/>
      <point x="265" y="158"/>
      <point x="283" y="235"/>
      <point x="283" y="386" type="curve" smooth="yes"/>
      <point x="283" y="434" type="line"/>
      <point x="428" y="434" type="line"/>
      <point x="428" y="118" type="line"/>
    </contour>
  </outline>
</glyph>
<glyph name="uni0437" format="2">
  <advance width="558"/>
  <unicode hex="0437"/>
  <outline>
    <contour>
      <point x="266" y="-13" type="curve" smooth="yes"/>
      <point x="420" y="-13"/>
      <point x="513" y="53"/>
      <point x="513" y="163" type="curve" smooth="yes"/>
      <point x="513" y="233"/>
      <point x="463" y="278"/>
      <point x="387" y="286" type="curve"/>
      <point x="387" y="291" type="line"/>
      <point x="463" y="302"/>
      <point x="500" y="342"/>
      <point x="500" y="412" type="curve" smooth="yes"/>
      <point x="500" y="500"/>
      <point x="423" y="563"/>
      <point x="275" y="563" type="curve" smooth="yes"/>
      <point x="170" y="563"/>
      <point x="92" y="526"/>
      <point x="38" y="458" type="curve"/>
      <point x="126" y="381" type="line"/>
      <point x="153" y="424"/>
      <point x="207" y="446"/>
      <point x="263" y="446" type="curve" smooth="yes"/>
      <point x="323" y="446"/>
      <point x="352" y="425"/>
      <point x="352" y="389" type="curve" smooth="yes"/>
      <point x="352" y="379" type="line" smooth="yes"/>
      <point x="352" y="344"/>
      <point x="330" y="329"/>
      <point x="285" y="329" type="curve" smooth="yes"/>
      <point x="177" y="329" type="line"/>
      <point x="177" y="231" type="line"/>
      <point x="299" y="231" type="line" smooth="yes"/>
      <point x="342" y="231"/>
      <point x="364" y="217"/>
      <point x="364" y="181" type="curve" smooth="yes"/>
      <point x="364" y="170" type="line" smooth="yes"/>
      <point x="364" y="126"/>
      <point x="333" y="103"/>
      <point x="267" y="103" type="curve" smooth="yes"/>
      <point x="209" y="103"/>
      <point x="152" y="124"/>
      <point x="112" y="175" type="curve"/>
      <point x="26" y="86" type="line"/>
      <point x="87" y="23"/>
      <point x="158" y="-13"/>
    </contour>
  </outline>
</glyph>
<glyph name="uni0438" format="2">
  <advance width="643"/>
  <unicode hex="0438"/>
  <outline>
    <contour>
      <point x="76" y="0" type="line"/>
      <point x="207" y="0" type="line"/>
      <point x="363" y="231" type="line"/>
      <point x="430" y="357" type="line"/>
      <point x="433" y="357" type="line"/>
      <point x="421" y="221" type="line"/>
      <point x="421" y="0" type="line"/>
      <point x="566" y="0" type="line"/>
      <point x="566" y="549" type="line"/>
      <point x="435" y="549" type="line"/>
      <point x="278" y="311" type="line"/>
      <point x="212" y="192" type="line"/>
      <point x="209" y="192" type="line"/>
      <point x="221" y="328" type="line"/>
      <point x="221" y="549" type="line"/>
      <point x="76" y="549" type="line"/>
    </contour>
  </outline>
</glyph>
<glyph name="uni043B" format="2">
  <advance width="642"/>
  <unicode hex="043B"/>
  <outline>
    <contour>
      <point x="17" y="-6" type="line"/>
      <point x="64" y="-6" type="line" smooth="yes"/>
      <point x="129" y="-6"/>
      <point x="168" y="6"/>
      <point x="202" y="39" type="curve" smooth="yes"/>
      <point x="248" y="85"/>
      <point x="278" y="178"/>
      <point x="278" y="369" type="curve" smooth="yes"/>
      <point x="278" y="434" type="line"/>
      <point x="418" y="434" type="line"/>
      <point x="418" y="0" type="line"/>
      <point x="566" y="0" type="line"/>
      <point x="566" y="549" type="line"/>
      <point x="136" y="549" type="line"/>
      <point x="136" y="377" type="line" smooth="yes"/>
      <point x="136" y="226"/>
      <point x="120" y="153"/>
      <point x="92" y="115" type="curve"/>
      <point x="17" y="115" type="line"/>
    </contour>
  </outline>
</glyph>
<glyph name="uni043C" format="2">
  <advance width="762"/>
  <unicode hex="043C"/>
  <outline>
    <contour>
      <point x="220" y="0" type="line"/>
      <point x="220" y="362" type="line"/>
      <point x="223" y="362" type="line"/>
      <point x="269" y="285" type="line"/>
      <point x="382" y="103" type="line"/>
      <point x="494" y="286" type="line"/>
      <point x="540" y="363" type="line"/>
      <point x="543" y="363" type="line"/>
      <point x="543" y="0" type="line"/>
      <point x="687" y="0" type="line"/>
      <point x="687" y="549" type="line"/>
      <point x="526" y="549" type="line"/>
      <point x="384" y="319" type="line"/>
      <point x="380" y="319" type="line"/>
      <point x="236" y="549" type="line"/>
      <point x="76" y="549" type="line"/>
      <point x="76" y="0" type="line"/>
    </contour>
  </outline>
</glyph>
<glyph name="uni043D" format="2">
  <advance width="643"/>
  <unicode hex="043D"/>
  <outline>
    <contour>
      <point x="76" y="0" type="line"/>
      <point x="224" y="0" type="line"/>
      <point x="224" y="221" type="line"/>
      <point x="420" y="221" type="line"/>
      <point x="420" y="0" type="line"/>
      <point x="568" y="0" type="line"/>
      <point x="568" y="549" type="line"/>
      <point x="420" y="549" type="line"/>
      <point x="420" y="336" type="line"/>
      <point x="224" y="336" type="line"/>
      <point x="224" y="549" type="line"/>
      <point x="76" y="549" type="line"/>
    </contour>
  </outline>
</glyph>
<glyph name="uni043F" format="2">
  <advance width="627"/>
  <unicode hex="043F"/>
  <outline>
    <contour>
      <point x="76" y="0" type="line"/>
      <point x="224" y="0" type="line"/>
      <point x="224" y="434" type="line"/>
      <point x="404" y="434" type="line"/>
      <point x="404" y="0" type="line"/>
      <point x="552" y="0" type="line"/>
      <point x="552" y="549" type="line"/>
      <point x="76" y="549" type="line"/>
    </contour>
  </outline>
</glyph>
<glyph name="uni0440" format="2">
  <advance width="638"/>
  <unicode hex="0440"/>
  <outline>
    <contour>
      <point x="224" y="-210" type="line"/>
      <point x="224" y="92" type="line"/>
      <point x="228" y="92" type="line"/>
      <point x="246" y="32"/>
      <point x="306" y="-13"/>
      <point x="378" y="-13" type="curve" smooth="yes"/>
      <point x="517" y="-13"/>
      <point x="591" y="90"/>
      <point x="591" y="275" type="curve" smooth="yes"/>
      <point x="591" y="461"/>
      <point x="517" y="563"/>
      <point x="378" y="563" type="curve" smooth="yes"/>
      <point x="306" y="563"/>
      <point x="247" y="520"/>
      <point x="229" y="458" type="curve"/>
      <point x="224" y="458" type="line"/>
      <point x="224" y="550" type="line"/>
      <point x="76" y="550" type="line"/>
      <point x="76" y="-210" type="line"/>
    </contour>
    <contour>
      <point x="329" y="107" type="curve" smooth="yes"/>
      <point x="268" y="107"/>
      <point x="224" y="139"/>
      <point x="224" y="192" type="curve" smooth="yes"/>
      <point x="224" y="359" type="line" smooth="yes"/>
      <point x="224" y="410"/>
      <point x="268" y="443"/>
      <point x="329" y="443" type="curve" smooth="yes"/>
      <point x="392" y="443"/>
      <point x="437" y="395"/>
      <point x="437" y="322" type="curve" smooth="yes"/>
      <point x="437" y="228" type="line" smooth="yes"/>
      <point x="437" y="155"/>
      <point x="392" y="107"/>
    </contour>
  </outline>
</glyph>
<glyph name="uni0443" format="2">
  <advance width="561"/>
  <unicode hex="0443"/>
  <outline>
    <contour>
      <point x="172" y="-210" type="line" smooth="yes"/>
      <point x="265" y="-210"/>
      <point x="308" y="-172"/>
      <point x="336" y="-90" type="curve" smooth="yes"/>
      <point x="551" y="550" type="line"/>
      <point x="413" y="550" type="line"/>
      <point x="328" y="280" type="line"/>
      <point x="287" y="128" type="line"/>
      <point x="281" y="128" type="line"/>
      <point x="244" y="280" type="line"/>
      <point x="157" y="550" type="line"/>
      <point x="10" y="550" type="line"/>
      <point x="205" y="-27" type="line"/>
      <point x="184" y="-95" type="line"/>
      <point x="82" y="-95" type="line"/>
      <point x="82" y="-210" type="line"/>
    </contour>
  </outline>
</glyph>
<glyph name="uni0444" format="2">
  <advance width="844"/>
  <unicode hex="0444"/>
  <outline>
    <contour>
      <point x="347" y="-206" type="line"/>
      <point x="495" y="-206" type="line"/>
      <point x="495" y="65" type="line"/>
      <point x="500" y="65" type="line"/>
      <point x="525" y="17"/>
      <point x="566" y="-6"/>
      <point x="625" y="-6" type="curve" smooth="yes"/>
      <point x="744" y="-6"/>
      <point x="797" y="75"/>
      <point x="797" y="280" type="curve" smooth="yes"/>
      <point x="797" y="485"/>
      <point x="744" y="568"/>
      <point x="625" y="568" type="curve" smooth="yes"/>
      <point x="566" y="568"/>
      <point x="525" y="543"/>
      <point x="500" y="495" type="curve"/>
      <point x="495" y="495" type="line"/>
      <point x="495" y="750" type="line"/>
      <point x="347" y="750" type="line"/>
      <point x="347" y="495" type="line"/>
      <point x="342" y="495" type="line"/>
      <point x="317" y="543"/>
      <point x="273" y="568"/>
      <point x="219" y="568" type="curve" smooth="yes"/>
      <point x="99" y="568"/>
      <point x="46" y="485"/>
      <point x="46" y="280" type="curve" smooth="yes"/>
      <point x="46" y="75"/>
      <point x="99" y="-6"/>
      <point x="219" y="-6" type="curve" smooth="yes"/>
      <point x="273" y="-6"/>
      <point x="317" y="17"/>
      <point x="342" y="65" type="curve"/>
      <point x="347" y="65" type="line"/>
    </contour>
    <contour>
      <point x="280" y="100" type="curve" smooth="yes"/>
      <point x="220" y="100"/>
      <point x="198" y="138"/>
      <point x="198" y="227" type="curve" smooth="yes"/>
      <point x="198" y="335" type="line" smooth="yes"/>
      <point x="198" y="423"/>
      <point x="220" y="462"/>
      <point x="280" y="462" type="curve" smooth="yes"/>
      <point x="329" y="462"/>
      <point x="347" y="437"/>
      <point x="347" y="396" type="curve" smooth="yes"/>
      <point x="347" y="165" type="line" smooth="yes"/>
      <point x="347" y="125"/>
      <point x="329" y="100"/>
    </contour>
    <contour>
      <point x="559" y="100" type="curve" smooth="yes"/>
      <point x="513" y="100"/>
      <point x="495" y="125"/>
      <point x="495" y="165" type="curve" smooth="yes"/>
      <point x="495" y="396" type="line" smooth="yes"/>
      <point x="495" y="437"/>
      <point x="513" y="462"/>
      <point x="559" y="462" type="curve" smooth="yes"/>
      <point x="619" y="462"/>
      <point x="645" y="423"/>
      <point x="645" y="335" type="curve" smooth="yes"/>
      <point x="645" y="227" type="line" smooth="yes"/>
      <point x="645" y="138"/>
      <point x="619" y="100"/>
    </contour>
  </outline>
</glyph>
<glyph name="uni044A" format="2">
  <advance width="671"/>
  <unicode hex="044A"/>
  <outline>
    <contour>
      <point x="160" y="0" type="line"/>
      <point x="457" y="0" type="line" smooth="yes"/>
      <point x="561" y="0"/>
      <point x="642" y="66"/>
      <point x="642" y="192" type="curve" smooth="yes"/>
      <point x="642" y="311"/>
      <point x="561" y="381"/>
      <point x="457" y="381" type="curve" smooth="yes"/>
      <point x="308" y="381" type="line"/>
      <point x="308" y="549" type="line"/>
      <point x="24" y="549" type="line"/>
      <point x="24" y="434" type="line"/>
      <point x="160" y="434" type="line"/>
    </contour>
    <contour>
      <point x="308" y="105" type="line"/>
      <point x="308" y="276" type="line"/>
      <point x="423" y="276" type="line" smooth="yes"/>
      <point x="467" y="276"/>
      <point x="493" y="252"/>
      <point x="493" y="211" type="curve" smooth="yes"/>
      <point x="493" y="172" type="line" smooth="yes"/>
      <point x="493" y="126"/>
      <point x="467" y="105"/>
      <point x="423" y="105" type="curve" smooth="yes"/>
    </contour>
  </outline>
</glyph>
<glyph name="uni044B" format="2">
  <advance width="849"/>
  <unicode hex="044B"/>
  <outline>
    <contour>
      <point x="76" y="0" type="line"/>
      <point x="361" y="0" type="line" smooth="yes"/>
      <point x="464" y="0"/>
      <point x="547" y="68"/>
      <point x="547" y="194" type="curve" smooth="yes"/>
      <point x="547" y="313"/>
      <point x="464" y="381"/>
      <point x="361" y="381" type="curve" smooth="yes"/>
      <point x="224" y="381" type="line"/>
      <point x="224" y="549" type="line"/>
      <point x="76" y="549" type="line"/>
    </contour>
    <contour>
      <point x="224" y="105" type="line"/>
      <point x="224" y="276" type="line"/>
      <point x="331" y="276" type="line" smooth="yes"/>
      <point x="372" y="276"/>
      <point x="398" y="254"/>
      <point x="398" y="210" type="curve" smooth="yes"/>
      <point x="398" y="171" type="line" smooth="yes"/>
      <point x="398" y="127"/>
      <point x="372" y="105"/>
      <point x="331" y="105" type="curve" smooth="yes"/>
    </contour>
    <contour>
      <point x="624" y="0" type="line"/>
      <point x="772" y="0" type="line"/>
      <point x="772" y="549" type="line"/>
      <point x="624" y="549" type="line"/>
    </contour>
  </outline>
</glyph>
<glyph name="uni044C" format="2">
  <advance width="589"/>
  <unicode hex="044C"/>
  <outline>
    <contour>
      <point x="79" y="0" type="line"/>
      <point x="375" y="0" type="line" smooth="yes"/>
      <point x="479" y="0"/>
      <point x="561" y="68"/>
      <point x="561" y="194" type="curve" smooth="yes"/>
      <point x="561" y="313"/>
      <point x="479" y="381"/>
      <point x="375" y="381" type="curve" smooth="yes"/>
      <point x="227" y="381" type="line"/>
      <point x="227" y="549" type="line"/>
      <point x="79" y="549" type="line"/>
    </contour>
    <contour>
      <point x="227" y="105" type="line"/>
      <point x="227" y="276" type="line"/>
      <point x="345" y="276" type="line" smooth="yes"/>
      <point x="385" y="276"/>
      <point x="412" y="254"/>
      <point x="412" y="213" type="curve" smooth="yes"/>
      <point x="412" y="174" type="line" smooth="yes"/>
      <point x="412" y="128"/>
      <point x="385" y="105"/>
      <point x="345" y="105" type="curve" smooth="yes"/>
    </contour>
  </outline>
</glyph>
<glyph name="uni044D" format="2">
  <advance width="562"/>
  <unicode hex="044D"/>
  <outline>
    <contour>
      <point x="190" y="230" type="line"/>
      <point x="369" y="230" type="line"/>
      <point x="369" y="224" type="line" smooth="yes"/>
      <point x="369" y="147"/>
      <point x="333" y="103"/>
      <point x="260" y="103" type="curve" smooth="yes"/>
      <point x="201" y="103"/>
      <point x="160" y="128"/>
      <point x="139" y="183" type="curve"/>
      <point x="25" y="125" type="line"/>
      <point x="77" y="27"/>
      <point x="138" y="-13"/>
      <point x="256" y="-13" type="curve" smooth="yes"/>
      <point x="432" y="-13"/>
      <point x="523" y="99"/>
      <point x="523" y="275" type="curve" smooth="yes"/>
      <point x="523" y="450"/>
      <point x="434" y="563"/>
      <point x="259" y="563" type="curve" smooth="yes"/>
      <point x="135" y="563"/>
      <point x="68" y="513"/>
      <point x="28" y="434" type="curve"/>
      <point x="148" y="375" type="line"/>
      <point x="162" y="421"/>
      <point x="197" y="447"/>
      <point x="263" y="447" type="curve" smooth="yes"/>
      <point x="330" y="447"/>
      <point x="369" y="396"/>
      <point x="369" y="331" type="curve" smooth="yes"/>
      <point x="369" y="328" type="line"/>
      <point x="190" y="328" type="line"/>
    </contour>
  </outline>
</glyph>
<glyph name="uni044E" format="2">
  <advance width="863"/>
  <unicode hex="044E"/>
  <outline>
    <contour>
      <point x="573" y="-13" type="curve" smooth="yes"/>
      <point x="731" y="-13"/>
      <point x="822" y="98"/>
      <point x="822" y="275" type="curve" smooth="yes"/>
      <point x="822" y="451"/>
      <point x="731" y="563"/>
      <point x="573" y="563" type="curve" smooth="yes"/>
      <point x="435" y="563"/>
      <point x="348" y="478"/>
      <point x="328" y="336" type="curve"/>
      <point x="226" y="336" type="line"/>
      <point x="226" y="549" type="line"/>
      <point x="78" y="549" type="line"/>
      <point x="78" y="0" type="line"/>
      <point x="226" y="0" type="line"/>
      <point x="226" y="221" type="line"/>
      <point x="327" y="221" type="line"/>
      <point x="345" y="74"/>
      <point x="433" y="-13"/>
    </contour>
    <contour>
      <point x="573" y="104" type="curve" smooth="yes"/>
      <point x="508" y="104"/>
      <point x="478" y="144"/>
      <point x="478" y="221" type="curve" smooth="yes"/>
      <point x="478" y="328" type="line" smooth="yes"/>
      <point x="478" y="404"/>
      <point x="508" y="446"/>
      <point x="573" y="446" type="curve" smooth="yes"/>
      <point x="638" y="446"/>
      <point x="668" y="404"/>
      <point x="668" y="328" type="curve" smooth="yes"/>
      <point x="668" y="221" type="line" smooth="yes"/>
      <point x="668" y="144"/>
      <point x="638" y="104"/>
    </contour>
  </outline>
</glyph>
<glyph name="uni2010" format="2">
  <advance width="1000"/>
  <unicode hex="2010"/>
  <outline>
    <contour>
      <point x="655" y="248" type="line"/>
      <point x="655" y="392" type="line"/>
      <point x="345" y="392" type="line"/>
      <point x="345" y="248" type="line"/>
    </contour>
  </outline>
</glyph>
<glyph name="uni2013" format="2">
  <advance width="500"/>
  <unicode hex="2013"/>
  <outline>
    <contour>
      <point x="500" y="318" type="line"/>
      <point x="500" y="442" type="line"/>
      <point x="0" y="442" type="line"/>
      <point x="0" y="318" type="line"/>
    </contour>
  </outline>
</glyph>
<glyph name="uni2019" format="2">
  <advance width="1000"/>
  <unicode hex="2019"/>
  <anchor x="490" y="380" name="BSB"/>
  <anchor x="0" y="20" name="LSB"/>
  <anchor x="500" y="20" name="RSB"/>
  <anchor x="510" y="880" name="TSB"/>
  <outline>
    <contour>
      <point x="165" y="849" type="curve" smooth="yes"/>
      <point x="104" y="849"/>
      <point x="80" y="818"/>
      <point x="80" y="775" type="curve" smooth="yes"/>
      <point x="80" y="753" type="line" smooth="yes"/>
      <point x="80" y="718"/>
      <point x="98" y="687"/>
      <point x="142" y="679" type="curve"/>
      <point x="126" y="629"/>
      <point x="93" y="589"/>
      <point x="48" y="549" type="curve"/>
      <point x="144" y="549" type="line"/>
      <point x="204" y="597"/>
      <point x="250" y="675"/>
      <point x="250" y="753" type="curve" smooth="yes"/>
      <point x="250" y="775" type="line" smooth="yes"/>
      <point x="250" y="818"/>
      <point x="226" y="849"/>
    </contour>
  </outline>
</glyph>
<glyph name="uni201C" format="2">
  <advance width="1000"/>
  <unicode hex="201C"/>
  <anchor x="490" y="380" name="BSB"/>
  <anchor x="500" y="0" name="LSB"/>
  <anchor x="1000" y="0" name="RSB"/>
  <anchor x="510" y="880" name="TSB"/>
  <outline>
    <contour>
      <point x="588" y="538" type="curve" smooth="yes"/>
      <point x="649" y="538"/>
      <point x="673" y="569"/>
      <point x="673" y="612" type="curve" smooth="yes"/>
      <point x="673" y="634" type="line" smooth="yes"/>
      <point x="673" y="669"/>
      <point x="655" y="700"/>
      <point x="611" y="708" type="curve"/>
      <point x="627" y="758"/>
      <point x="660" y="798"/>
      <point x="705" y="838" type="curve"/>
      <point x="609" y="838" type="line"/>
      <point x="549" y="790"/>
      <point x="503" y="712"/>
      <point x="503" y="634" type="curve" smooth="yes"/>
      <point x="503" y="612" type="line" smooth="yes"/>
      <point x="503" y="569"/>
      <point x="527" y="538"/>
    </contour>
    <contour>
      <point x="835" y="538" type="curve" smooth="yes"/>
      <point x="896" y="538"/>
      <point x="920" y="569"/>
      <point x="920" y="612" type="curve" smooth="yes"/>
      <point x="920" y="634" type="line" smooth="yes"/>
      <point x="920" y="669"/>
      <point x="902" y="700"/>
      <point x="858" y="708" type="curve"/>
      <point x="874" y="758"/>
      <point x="907" y="798"/>
      <point x="952" y="838" type="curve"/>
      <point x="856" y="838" type="line"/>
      <point x="796" y="790"/>
      <point x="750" y="712"/>
      <point x="750" y="634" type="curve" smooth="yes"/>
      <point x="750" y="612" type="line" smooth="yes"/>
      <point x="750" y="569"/>
      <point x="774" y="538"/>
    </contour>
  </outline>
</glyph>
<glyph name="uni201D" format="2">
  <advance width="1000"/>
  <unicode hex="201D"/>
  <anchor x="490" y="380" name="BSB"/>
  <anchor x="0" y="20" name="LSB"/>
  <anchor x="500" y="20" name="RSB"/>
  <anchor x="510" y="880" name="TSB"/>
  <outline>
    <contour>
      <point x="412" y="848" type="curve" smooth="yes"/>
      <point x="351" y="848"/>
      <point x="327" y="817"/>
      <point x="327" y="774" type="curve" smooth="yes"/>
      <point x="327" y="752" type="line" smooth="yes"/>
      <point x="327" y="717"/>
      <point x="345" y="686"/>
      <point x="389" y="678" type="curve"/>
      <point x="373" y="628"/>
      <point x="340" y="588"/>
      <point x="295" y="548" type="curve"/>
      <point x="391" y="548" type="line"/>
      <point x="451" y="596"/>
      <point x="497" y="674"/>
      <point x="497" y="752" type="curve" smooth="yes"/>
      <point x="497" y="774" type="line" smooth="yes"/>
      <point x="497" y="817"/>
      <point x="473" y="848"/>
    </contour>
    <contour>
      <point x="165" y="848" type="curve" smooth="yes"/>
      <point x="104" y="848"/>
      <point x="80" y="817"/>
      <point x="80" y="774" type="curve" smooth="yes"/>
      <point x="80" y="752" type="line" smooth="yes"/>
      <point x="80" y="717"/>
      <point x="98" y="686"/>
      <point x="142" y="678" type="curve"/>
      <point x="126" y="628"/>
      <point x="93" y="588"/>
      <point x="48" y="548" type="curve"/>
      <point x="144" y="548" type="line"/>
      <point x="204" y="596"/>
      <point x="250" y="674"/>
      <point x="250" y="752" type="curve" smooth="yes"/>
      <point x="250" y="774" type="line" smooth="yes"/>
      <point x="250" y="817"/>
      <point x="226" y="848"/>
    </contour>
  </outline>
</glyph>
<glyph name="uni2032" format="2">
  <advance width="268"/>
  <unicode hex="2032"/>
  <outline>
    <contour>
      <point x="170" y="388" type="line"/>
      <point x="232" y="740" type="line"/>
      <point x="98" y="740" type="line"/>
      <point x="36" y="388" type="line"/>
    </contour>
  </outline>
</glyph>
<glyph name="uni2033" format="2">
  <advance width="493"/>
  <unicode hex="2033"/>
  <outline>
    <contour>
      <point x="395" y="388" type="line"/>
      <point x="457" y="740" type="line"/>
      <point x="323" y="740" type="line"/>
      <point x="261" y="388" type="line"/>
    </contour>
    <contour>
      <point x="170" y="388" type="line"/>
      <point x="232" y="740" type="line"/>
      <point x="98" y="740" type="line"/>
      <point x="36" y="388" type="line"/>
    </contour>
  </outline>
</glyph>
<glyph name="uni203B" format="2">
  <advance width="1000"/>
  <unicode hex="203B"/>
  <outline>
    <contour>
      <point x="500" y="338" type="line"/>
      <point x="830" y="9" type="line"/>
      <point x="872" y="51" type="line"/>
      <point x="542" y="380" type="line"/>
      <point x="872" y="709" type="line"/>
      <point x="830" y="751" type="line"/>
      <point x="500" y="422" type="line"/>
      <point x="170" y="751" type="line"/>
      <point x="128" y="709" type="line"/>
      <point x="458" y="380" type="line"/>
      <point x="128" y="51" type="line"/>
      <point x="170" y="9" type="line"/>
    </contour>
    <contour>
      <point x="216" y="320" type="curve" smooth="yes"/>
      <point x="249" y="320"/>
      <point x="276" y="347"/>
      <point x="276" y="380" type="curve" smooth="yes"/>
      <point x="276" y="413"/>
      <point x="249" y="440"/>
      <point x="216" y="440" type="curve" smooth="yes"/>
      <point x="183" y="440"/>
      <point x="156" y="413"/>
      <point x="156" y="380" type="curve" smooth="yes"/>
      <point x="156" y="347"/>
      <point x="183" y="320"/>
    </contour>
    <contour>
      <point x="500" y="36" type="curve" smooth="yes"/>
      <point x="533" y="36"/>
      <point x="560" y="63"/>
      <point x="560" y="96" type="curve" smooth="yes"/>
      <point x="560" y="129"/>
      <point x="533" y="156"/>
      <point x="500" y="156" type="curve" smooth="yes"/>
      <point x="467" y="156"/>
      <point x="440" y="129"/>
      <point x="440" y="96" type="curve" smooth="yes"/>
      <point x="440" y="63"/>
      <point x="467" y="36"/>
    </contour>
    <contour>
      <point x="500" y="604" type="curve" smooth="yes"/>
      <point x="533" y="604"/>
      <point x="560" y="631"/>
      <point x="560" y="664" type="curve" smooth="yes"/>
      <point x="560" y="697"/>
      <point x="533" y="724"/>
      <point x="500" y="724" type="curve" smooth="yes"/>
      <point x="467" y="724"/>
      <point x="440" y="697"/>
      <point x="440" y="664" type="curve" smooth="yes"/>
      <point x="440" y="631"/>
      <point x="467" y="604"/>
    </contour>
    <contour>
      <point x="784" y="320" type="curve" smooth="yes"/>
      <point x="817" y="320"/>
      <point x="844" y="347"/>
      <point x="844" y="380" type="curve" smooth="yes"/>
      <point x="844" y="413"/>
      <point x="817" y="440"/>
      <point x="784" y="440" type="curve" smooth="yes"/>
      <point x="751" y="440"/>
      <point x="724" y="413"/>
      <point x="724" y="380" type="curve" smooth="yes"/>
      <point x="724" y="347"/>
      <point x="751" y="320"/>
    </contour>
  </outline>
</glyph>
<glyph name="euro" format="2">
  <advance width="659"/>
  <unicode hex="20AC"/>
  <outline>
    <contour>
      <point x="376" y="-12" type="curve" smooth="yes"/>
      <point x="517" y="-12"/>
      <point x="589" y="55"/>
      <point x="630" y="120" type="curve"/>
      <point x="520" y="198" type="line"/>
      <point x="484" y="137"/>
      <point x="439" y="109"/>
      <point x="376" y="109" type="curve" smooth="yes"/>
      <point x="288" y="109"/>
      <point x="215" y="175"/>
      <point x="215" y="298" type="curve"/>
      <point x="215" y="436" type="line"/>
      <point x="215" y="559"/>
      <point x="292" y="625"/>
      <point x="376" y="625" type="curve" smooth="yes"/>
      <point x="439" y="625"/>
      <point x="478" y="598"/>
      <point x="509" y="543" type="curve"/>
      <point x="620" y="620" type="line"/>
      <point x="575" y="683"/>
      <point x="517" y="746"/>
      <point x="376" y="746" type="curve" smooth="yes"/>
      <point x="185" y="746"/>
      <point x="55" y="606"/>
      <point x="55" y="367" type="curve" smooth="yes"/>
      <point x="55" y="128"/>
      <point x="185" y="-12"/>
    </contour>
    <contour>
      <point x="473" y="239" type="line"/>
      <point x="473" y="329" type="line"/>
      <point x="159" y="329" type="line"/>
      <point x="159" y="239" type="line"/>
    </contour>
    <contour>
      <point x="473" y="405" type="line"/>
      <point x="473" y="495" type="line"/>
      <point x="159" y="495" type="line"/>
      <point x="159" y="405" type="line"/>
    </contour>
  </outline>
</glyph>
<glyph name="uni2103" format="2">
  <advance width="1000"/>
  <unicode hex="2103"/>
  <outline>
    <contour>
      <point x="181" y="441" type="curve" smooth="yes"/>
      <point x="266" y="441"/>
      <point x="331" y="506"/>
      <point x="331" y="593" type="curve" smooth="yes"/>
      <point x="331" y="680"/>
      <point x="266" y="745"/>
      <point x="181" y="745" type="curve" smooth="yes"/>
      <point x="96" y="745"/>
      <point x="31" y="680"/>
      <point x="31" y="593" type="curve" smooth="yes"/>
      <point x="31" y="506"/>
      <point x="96" y="441"/>
    </contour>
    <contour>
      <point x="181" y="523" type="curve" smooth="yes"/>
      <point x="143" y="523"/>
      <point x="118" y="553"/>
      <point x="118" y="593" type="curve" smooth="yes"/>
      <point x="118" y="633"/>
      <point x="143" y="663"/>
      <point x="181" y="663" type="curve" smooth="yes"/>
      <point x="219" y="663"/>
      <point x="244" y="633"/>
      <point x="244" y="593" type="curve" smooth="yes"/>
      <point x="244" y="553"/>
      <point x="219" y="523"/>
    </contour>
    <contour>
      <point x="710" y="-13" type="curve" smooth="yes"/>
      <point x="842" y="-13"/>
      <point x="930" y="51"/>
      <point x="983" y="162" type="curve"/>
      <point x="859" y="233" type="line"/>
      <point x="836" y="172"/>
      <point x="789" y="122"/>
      <point x="710" y="122" type="curve" smooth="yes"/>
      <point x="614" y="122"/>
      <point x="550" y="188"/>
      <point x="550" y="308" type="curve" smooth="yes"/>
      <point x="550" y="424" type="line" smooth="yes"/>
      <point x="550" y="544"/>
      <point x="614" y="611"/>
      <point x="710" y="611" type="curve" smooth="yes"/>
      <point x="789" y="611"/>
      <point x="830" y="569"/>
      <point x="850" y="507" type="curve"/>
      <point x="981" y="574" type="line"/>
      <point x="928" y="691"/>
      <point x="842" y="746"/>
      <point x="710" y="746" type="curve" smooth="yes"/>
      <point x="514" y="746"/>
      <point x="389" y="609"/>
      <point x="389" y="361" type="curve" smooth="yes"/>
      <point x="389" y="114"/>
      <point x="514" y="-13"/>
    </contour>
  </outline>
</glyph>
<glyph name="uni2105" format="2">
  <advance width="1000"/>
  <unicode hex="2105"/>
  <outline>
    <contour>
      <point x="252" y="330" type="curve" smooth="yes"/>
      <point x="332" y="330"/>
      <point x="392" y="368"/>
      <point x="419" y="450" type="curve"/>
      <point x="328" y="490" type="line"/>
      <point x="315" y="454"/>
      <point x="295" y="423"/>
      <point x="251" y="423" type="curve" smooth="yes"/>
      <point x="205" y="423"/>
      <point x="182" y="458"/>
      <point x="182" y="511" type="curve" smooth="yes"/>
      <point x="182" y="566" type="line" smooth="yes"/>
      <point x="182" y="617"/>
      <point x="205" y="652"/>
      <point x="251" y="652" type="curve" smooth="yes"/>
      <point x="290" y="652"/>
      <point x="313" y="626"/>
      <point x="321" y="591" type="curve"/>
      <point x="416" y="634" type="line"/>
      <point x="391" y="704"/>
      <point x="335" y="747"/>
      <point x="252" y="747" type="curve" smooth="yes"/>
      <point x="126" y="747"/>
      <point x="57" y="667"/>
      <point x="57" y="538" type="curve" smooth="yes"/>
      <point x="57" y="411"/>
      <point x="126" y="330"/>
    </contour>
    <contour>
      <point x="312" y="0" type="line"/>
      <point x="820" y="733" type="line"/>
      <point x="687" y="733" type="line"/>
      <point x="179" y="0" type="line"/>
    </contour>
    <contour>
      <point x="752" y="-13" type="curve" smooth="yes"/>
      <point x="872" y="-13"/>
      <point x="938" y="59"/>
      <point x="938" y="195" type="curve" smooth="yes"/>
      <point x="938" y="332"/>
      <point x="872" y="403"/>
      <point x="752" y="403" type="curve" smooth="yes"/>
      <point x="632" y="403"/>
      <point x="566" y="332"/>
      <point x="566" y="195" type="curve" smooth="yes"/>
      <point x="566" y="59"/>
      <point x="632" y="-13"/>
    </contour>
    <contour>
      <point x="752" y="73" type="curve" smooth="yes"/>
      <point x="713" y="73"/>
      <point x="693" y="102"/>
      <point x="693" y="167" type="curve" smooth="yes"/>
      <point x="693" y="223" type="line" smooth="yes"/>
      <point x="693" y="288"/>
      <point x="713" y="317"/>
      <point x="752" y="317" type="curve" smooth="yes"/>
      <point x="791" y="317"/>
      <point x="811" y="288"/>
      <point x="811" y="223" type="curve" smooth="yes"/>
      <point x="811" y="167" type="line" smooth="yes"/>
      <point x="811" y="102"/>
      <point x="791" y="73"/>
    </contour>
  </outline>
</glyph>
<glyph name="uni2122" format="2">
  <advance width="645"/>
  <unicode hex="2122"/>
  <outline>
    <contour>
      <point x="359" y="429" type="line"/>
      <point x="359" y="529" type="line"/>
      <point x="350" y="633" type="line"/>
      <point x="357" y="633" type="line"/>
      <point x="439" y="476" type="line"/>
      <point x="520" y="633" type="line"/>
      <point x="527" y="633" type="line"/>
      <point x="518" y="529" type="line"/>
      <point x="518" y="429" type="line"/>
      <point x="590" y="429" type="line"/>
      <point x="590" y="733" type="line"/>
      <point x="506" y="733" type="line"/>
      <point x="445" y="614" type="line"/>
      <point x="439" y="614" type="line"/>
      <point x="377" y="733" type="line"/>
      <point x="287" y="733" type="line"/>
      <point x="287" y="429" type="line"/>
    </contour>
    <contour>
      <point x="183" y="429" type="line"/>
      <point x="183" y="672" type="line"/>
      <point x="255" y="672" type="line"/>
      <point x="255" y="733" type="line"/>
      <point x="25" y="733" type="line"/>
      <point x="25" y="672" type="line"/>
      <point x="97" y="672" type="line"/>
      <point x="97" y="429" type="line"/>
    </contour>
  </outline>
</glyph>
<glyph name="uni2162" format="2">
  <advance width="1000"/>
  <unicode hex="2162"/>
  <outline>
    <contour>
      <point x="33" y="0" type="line"/>
      <point x="325" y="0" type="line"/>
      <point x="325" y="117" type="line"/>
      <point x="250" y="117" type="line"/>
      <point x="250" y="616" type="line"/>
      <point x="325" y="616" type="line"/>
      <point x="325" y="733" type="line"/>
      <point x="33" y="733" type="line"/>
      <point x="33" y="616" type="line"/>
      <point x="108" y="616" type="line"/>
      <point x="108" y="117" type="line"/>
      <point x="33" y="117" type="line"/>
    </contour>
    <contour>
      <point x="355" y="0" type="line"/>
      <point x="645" y="0" type="line"/>
      <point x="645" y="117" type="line"/>
      <point x="571" y="117" type="line"/>
      <point x="571" y="616" type="line"/>
      <point x="645" y="616" type="line"/>
      <point x="645" y="733" type="line"/>
      <point x="355" y="733" type="line"/>
      <point x="355" y="616" type="line"/>
      <point x="429" y="616" type="line"/>
      <point x="429" y="117" type="line"/>
      <point x="355" y="117" type="line"/>
    </contour>
    <contour>
      <point x="675" y="0" type="line"/>
      <point x="967" y="0" type="line"/>
      <point x="967" y="117" type="line"/>
      <point x="892" y="117" type="line"/>
      <point x="892" y="616" type="line"/>
      <point x="967" y="616" type="line"/>
      <point x="967" y="733" type="line"/>
      <point x="675" y="733" type="line"/>
      <point x="675" y="616" type="line"/>
      <point x="750" y="616" type="line"/>
      <point x="750" y="117" type="line"/>
      <point x="675" y="117" type="line"/>
    </contour>
  </outline>
</glyph>
<glyph name="uni2164" format="2">
  <advance width="1000"/>
  <unicode hex="2164"/>
  <outline>
    <contour>
      <point x="585" y="0" type="line"/>
      <point x="834" y="733" type="line"/>
      <point x="684" y="733" type="line"/>
      <point x="564" y="379" type="line"/>
      <point x="504" y="145" type="line"/>
      <point x="500" y="145" type="line"/>
      <point x="440" y="379" type="line"/>
      <point x="320" y="733" type="line"/>
      <point x="166" y="733" type="line"/>
      <point x="416" y="0" type="line"/>
    </contour>
  </outline>
</glyph>
<glyph name="uni216B" format="2">
  <advance width="1000"/>
  <unicode hex="216B"/>
  <outline>
    <contour>
      <point x="149" y="0" type="line"/>
      <point x="234" y="274" type="line"/>
      <point x="237" y="274" type="line"/>
      <point x="326" y="0" type="line"/>
      <point x="462" y="0" type="line"/>
      <point x="328" y="376" type="line"/>
      <point x="455" y="733" type="line"/>
      <point x="325" y="733" type="line"/>
      <point x="244" y="480" type="line"/>
      <point x="241" y="480" type="line"/>
      <point x="161" y="733" type="line"/>
      <point x="25" y="733" type="line"/>
      <point x="151" y="378" type="line"/>
      <point x="19" y="0" type="line"/>
    </contour>
    <contour>
      <point x="699" y="0" type="line"/>
      <point x="699" y="113" type="line"/>
      <point x="643" y="113" type="line"/>
      <point x="643" y="620" type="line"/>
      <point x="699" y="620" type="line"/>
      <point x="699" y="733" type="line"/>
      <point x="459" y="733" type="line"/>
      <point x="459" y="620" type="line"/>
      <point x="515" y="620" type="line"/>
      <point x="515" y="113" type="line"/>
      <point x="459" y="113" type="line"/>
      <point x="459" y="0" type="line"/>
    </contour>
    <contour>
      <point x="961" y="0" type="line"/>
      <point x="961" y="113" type="line"/>
      <point x="904" y="113" type="line"/>
      <point x="904" y="620" type="line"/>
      <point x="961" y="620" type="line"/>
      <point x="961" y="733" type="line"/>
      <point x="719" y="733" type="line"/>
      <point x="719" y="620" type="line"/>
      <point x="776" y="620" type="line"/>
      <point x="776" y="113" type="line"/>
      <point x="719" y="113" type="line"/>
      <point x="719" y="0" type="line"/>
    </contour>
  </outline>
</glyph>
<glyph name="uni2171" format="2">
  <advance width="1000"/>
  <unicode hex="2171"/>
  <outline>
    <contour>
      <point x="748" y="0" type="line"/>
      <point x="748" y="550" type="line"/>
      <point x="600" y="550" type="line"/>
      <point x="600" y="0" type="line"/>
    </contour>
    <contour>
      <point x="401" y="0" type="line"/>
      <point x="401" y="550" type="line"/>
      <point x="253" y="550" type="line"/>
      <point x="253" y="0" type="line"/>
    </contour>
    <contour>
      <point x="327" y="617" type="curve" smooth="yes"/>
      <point x="387" y="617"/>
      <point x="413" y="648"/>
      <point x="413" y="690" type="curve" smooth="yes"/>
      <point x="413" y="712" type="line" smooth="yes"/>
      <point x="413" y="754"/>
      <point x="387" y="785"/>
      <point x="327" y="785" type="curve" smooth="yes"/>
      <point x="267" y="785"/>
      <point x="241" y="754"/>
      <point x="241" y="712" type="curve" smooth="yes"/>
      <point x="241" y="690" type="line" smooth="yes"/>
      <point x="241" y="648"/>
      <point x="267" y="617"/>
    </contour>
    <contour>
      <point x="674" y="617" type="curve" smooth="yes"/>
      <point x="734" y="617"/>
      <point x="760" y="648"/>
      <point x="760" y="690" type="curve" smooth="yes"/>
      <point x="760" y="712" type="line" smooth="yes"/>
      <point x="760" y="754"/>
      <point x="734" y="785"/>
      <point x="674" y="785" type="curve" smooth="yes"/>
      <point x="614" y="785"/>
      <point x="588" y="754"/>
      <point x="588" y="712" type="curve" smooth="yes"/>
      <point x="588" y="690" type="line" smooth="yes"/>
      <point x="588" y="648"/>
      <point x="614" y="617"/>
    </contour>
  </outline>
</glyph>
<glyph name="uni2172" format="2">
  <advance width="1000"/>
  <unicode hex="2172"/>
  <outline>
    <contour>
      <point x="879" y="0" type="line"/>
      <point x="879" y="550" type="line"/>
      <point x="731" y="550" type="line"/>
      <point x="731" y="0" type="line"/>
    </contour>
    <contour>
      <point x="270" y="0" type="line"/>
      <point x="270" y="550" type="line"/>
      <point x="122" y="550" type="line"/>
      <point x="122" y="0" type="line"/>
    </contour>
    <contour>
      <point x="575" y="0" type="line"/>
      <point x="575" y="550" type="line"/>
      <point x="427" y="550" type="line"/>
      <point x="427" y="0" type="line"/>
    </contour>
    <contour>
      <point x="196" y="617" type="curve" smooth="yes"/>
      <point x="256" y="617"/>
      <point x="282" y="648"/>
      <point x="282" y="690" type="curve" smooth="yes"/>
      <point x="282" y="712" type="line" smooth="yes"/>
      <point x="282" y="754"/>
      <point x="256" y="785"/>
      <point x="196" y="785" type="curve" smooth="yes"/>
      <point x="136" y="785"/>
      <point x="110" y="754"/>
      <point x="110" y="712" type="curve" smooth="yes"/>
      <point x="110" y="690" type="line" smooth="yes"/>
      <point x="110" y="648"/>
      <point x="136" y="617"/>
    </contour>
    <contour>
      <point x="500" y="617" type="curve" smooth="yes"/>
      <point x="560" y="617"/>
      <point x="586" y="648"/>
      <point x="586" y="690" type="curve" smooth="yes"/>
      <point x="586" y="712" type="line" smooth="yes"/>
      <point x="586" y="754"/>
      <point x="560" y="785"/>
      <point x="500" y="785" type="curve" smooth="yes"/>
      <point x="440" y="785"/>
      <point x="414" y="754"/>
      <point x="414" y="712" type="curve" smooth="yes"/>
      <point x="414" y="690" type="line" smooth="yes"/>
      <point x="414" y="648"/>
      <point x="440" y="617"/>
    </contour>
    <contour>
      <point x="804" y="617" type="curve" smooth="yes"/>
      <point x="864" y="617"/>
      <point x="890" y="648"/>
      <point x="890" y="690" type="curve" smooth="yes"/>
      <point x="890" y="712" type="line" smooth="yes"/>
      <point x="890" y="754"/>
      <point x="864" y="785"/>
      <point x="804" y="785" type="curve" smooth="yes"/>
      <point x="744" y="785"/>
      <point x="718" y="754"/>
      <point x="718" y="712" type="curve" smooth="yes"/>
      <point x="718" y="690" type="line" smooth="yes"/>
      <point x="718" y="648"/>
      <point x="744" y="617"/>
    </contour>
  </outline>
</glyph>
<glyph name="uni2175" format="2">
  <advance width="1000"/>
  <unicode hex="2175"/>
  <outline>
    <contour>
      <point x="459" y="0" type="line"/>
      <point x="640" y="550" type="line"/>
      <point x="501" y="550" type="line"/>
      <point x="431" y="322" type="line"/>
      <point x="380" y="124" type="line"/>
      <point x="371" y="124" type="line"/>
      <point x="319" y="322" type="line"/>
      <point x="248" y="550" type="line"/>
      <point x="102" y="550" type="line"/>
      <point x="284" y="0" type="line"/>
    </contour>
    <contour>
      <point x="849" y="0" type="line"/>
      <point x="849" y="550" type="line"/>
      <point x="701" y="550" type="line"/>
      <point x="701" y="0" type="line"/>
    </contour>
    <contour>
      <point x="774" y="617" type="curve" smooth="yes"/>
      <point x="834" y="617"/>
      <point x="860" y="648"/>
      <point x="860" y="690" type="curve" smooth="yes"/>
      <point x="860" y="712" type="line" smooth="yes"/>
      <point x="860" y="754"/>
      <point x="834" y="785"/>
      <point x="774" y="785" type="curve" smooth="yes"/>
      <point x="714" y="785"/>
      <point x="688" y="754"/>
      <point x="688" y="712" type="curve" smooth="yes"/>
      <point x="688" y="690" type="line" smooth="yes"/>
      <point x="688" y="648"/>
      <point x="714" y="617"/>
    </contour>
  </outline>
</glyph>
<glyph name="uni2176" format="2">
  <advance width="1000"/>
  <unicode hex="2176"/>
  <outline>
    <contour>
      <point x="380" y="0" type="line"/>
      <point x="561" y="550" type="line"/>
      <point x="421" y="550" type="line"/>
      <point x="351" y="322" type="line"/>
      <point x="300" y="124" type="line"/>
      <point x="291" y="124" type="line"/>
      <point x="239" y="322" type="line"/>
      <point x="168" y="550" type="line"/>
      <point x="22" y="550" type="line"/>
      <point x="204" y="0" type="line"/>
    </contour>
    <contour>
      <point x="709" y="0" type="line"/>
      <point x="709" y="550" type="line"/>
      <point x="569" y="550" type="line"/>
      <point x="569" y="0" type="line"/>
    </contour>
    <contour>
      <point x="931" y="0" type="line"/>
      <point x="931" y="550" type="line"/>
      <point x="791" y="550" type="line"/>
      <point x="791" y="0" type="line"/>
    </contour>
    <contour>
      <point x="639" y="617" type="curve" smooth="yes"/>
      <point x="699" y="617"/>
      <point x="720" y="648"/>
      <point x="720" y="690" type="curve" smooth="yes"/>
      <point x="720" y="712" type="line" smooth="yes"/>
      <point x="720" y="754"/>
      <point x="699" y="785"/>
      <point x="639" y="785" type="curve" smooth="yes"/>
      <point x="579" y="785"/>
      <point x="557" y="754"/>
      <point x="557" y="712" type="curve" smooth="yes"/>
      <point x="557" y="690" type="line" smooth="yes"/>
      <point x="557" y="648"/>
      <point x="579" y="617"/>
    </contour>
    <contour>
      <point x="861" y="617" type="curve" smooth="yes"/>
      <point x="921" y="617"/>
      <point x="942" y="648"/>
      <point x="942" y="690" type="curve" smooth="yes"/>
      <point x="942" y="712" type="line" smooth="yes"/>
      <point x="942" y="754"/>
      <point x="921" y="785"/>
      <point x="861" y="785" type="curve" smooth="yes"/>
      <point x="801" y="785"/>
      <point x="779" y="754"/>
      <point x="779" y="712" type="curve" smooth="yes"/>
      <point x="779" y="690" type="line" smooth="yes"/>
      <point x="779" y="648"/>
      <point x="801" y="617"/>
    </contour>
  </outline>
</glyph>
<glyph name="uni2179" format="2">
  <advance width="1000"/>
  <unicode hex="2179"/>
  <outline>
    <contour>
      <point x="382" y="0" type="line"/>
      <point x="489" y="184" type="line"/>
      <point x="494" y="184" type="line"/>
      <point x="604" y="0" type="line"/>
      <point x="772" y="0" type="line"/>
      <point x="586" y="275" type="line"/>
      <point x="770" y="550" type="line"/>
      <point x="614" y="550" type="line"/>
      <point x="510" y="374" type="line"/>
      <point x="505" y="374" type="line"/>
      <point x="398" y="550" type="line"/>
      <point x="230" y="550" type="line"/>
      <point x="413" y="279" type="line"/>
      <point x="228" y="0" type="line"/>
    </contour>
  </outline>
</glyph>
<glyph name="uni2190" format="2">
  <advance width="1000"/>
  <unicode hex="2190"/>
  <outline>
    <contour>
      <point x="456" y="210" type="line"/>
      <point x="386" y="280" type="line"/>
      <point x="342" y="318" type="line"/>
      <point x="343" y="322" type="line"/>
      <point x="423" y="318" type="line"/>
      <point x="873" y="318" type="line"/>
      <point x="873" y="440" type="line"/>
      <point x="423" y="440" type="line"/>
      <point x="343" y="436" type="line"/>
      <point x="342" y="440" type="line"/>
      <point x="386" y="478" type="line"/>
      <point x="456" y="548" type="line"/>
      <point x="376" y="628" type="line"/>
      <point x="127" y="379" type="line"/>
      <point x="376" y="130" type="line"/>
    </contour>
  </outline>
</glyph>
<glyph name="uni2192" format="2">
  <advance width="1000"/>
  <unicode hex="2192"/>
  <outline>
    <contour>
      <point x="873" y="379" type="line"/>
      <point x="624" y="628" type="line"/>
      <point x="544" y="548" type="line"/>
      <point x="614" y="478" type="line"/>
      <point x="658" y="440" type="line"/>
      <point x="657" y="436" type="line"/>
      <point x="577" y="440" type="line"/>
      <point x="127" y="440" type="line"/>
      <point x="127" y="318" type="line"/>
      <point x="577" y="318" type="line"/>
      <point x="657" y="322" type="line"/>
      <point x="658" y="318" type="line"/>
      <point x="614" y="280" type="line"/>
      <point x="544" y="210" type="line"/>
      <point x="624" y="130" type="line"/>
    </contour>
  </outline>
</glyph>
<glyph name="uni2194" format="2">
  <advance width="1000"/>
  <unicode hex="2194"/>
  <outline>
    <contour>
      <point x="444" y="207" type="line"/>
      <point x="376" y="275" type="line"/>
      <point x="327" y="318" type="line"/>
      <point x="328" y="322" type="line"/>
      <point x="417" y="318" type="line"/>
      <point x="583" y="318" type="line"/>
      <point x="672" y="322" type="line"/>
      <point x="673" y="318" type="line"/>
      <point x="624" y="275" type="line"/>
      <point x="556" y="207" type="line"/>
      <point x="637" y="128" type="line"/>
      <point x="888" y="379" type="line"/>
      <point x="637" y="630" type="line"/>
      <point x="556" y="552" type="line"/>
      <point x="624" y="483" type="line"/>
      <point x="673" y="440" type="line"/>
      <point x="672" y="436" type="line"/>
      <point x="583" y="440" type="line"/>
      <point x="417" y="440" type="line"/>
      <point x="328" y="436" type="line"/>
      <point x="327" y="440" type="line"/>
      <point x="376" y="483" type="line"/>
      <point x="444" y="552" type="line"/>
      <point x="363" y="630" type="line"/>
      <point x="112" y="379" type="line"/>
      <point x="363" y="128" type="line"/>
    </contour>
  </outline>
</glyph>
<glyph name="uni2197" format="2">
  <advance width="1000"/>
  <unicode hex="2197"/>
  <outline>
    <contour>
      <point x="600" y="410" type="line"/>
      <point x="654" y="469" type="line"/>
      <point x="657" y="467" type="line"/>
      <point x="653" y="409" type="line"/>
      <point x="653" y="314" type="line"/>
      <point x="766" y="314" type="line"/>
      <point x="766" y="662" type="line"/>
      <point x="418" y="662" type="line"/>
      <point x="418" y="549" type="line"/>
      <point x="513" y="549" type="line"/>
      <point x="571" y="553" type="line"/>
      <point x="573" y="550" type="line"/>
      <point x="514" y="496" type="line"/>
      <point x="201" y="183" type="line"/>
      <point x="287" y="97" type="line"/>
    </contour>
  </outline>
</glyph>
<glyph name="uni2198" format="2">
  <advance width="1000"/>
  <unicode hex="2198"/>
  <outline>
    <contour>
      <point x="766" y="102" type="line"/>
      <point x="766" y="450" type="line"/>
      <point x="653" y="450" type="line"/>
      <point x="653" y="355" type="line"/>
      <point x="657" y="297" type="line"/>
      <point x="654" y="295" type="line"/>
      <point x="600" y="354" type="line"/>
      <point x="287" y="667" type="line"/>
      <point x="201" y="581" type="line"/>
      <point x="514" y="268" type="line"/>
      <point x="573" y="214" type="line"/>
      <point x="571" y="211" type="line"/>
      <point x="513" y="215" type="line"/>
      <point x="418" y="215" type="line"/>
      <point x="418" y="102" type="line"/>
    </contour>
  </outline>
</glyph>
<glyph name="uni21A9" format="2">
  <advance width="1000"/>
  <unicode hex="21A9"/>
  <outline>
    <contour>
      <point x="458" y="155" type="line"/>
      <point x="390" y="222" type="line"/>
      <point x="342" y="265" type="line"/>
      <point x="343" y="270" type="line"/>
      <point x="434" y="265" type="line"/>
      <point x="629" y="265" type="line" smooth="yes"/>
      <point x="758" y="265"/>
      <point x="871" y="336"/>
      <point x="871" y="472" type="curve" smooth="yes"/>
      <point x="871" y="611"/>
      <point x="758" y="683"/>
      <point x="629" y="683" type="curve"/>
      <point x="629" y="569" type="line"/>
      <point x="684" y="569"/>
      <point x="732" y="543"/>
      <point x="732" y="477" type="curve" smooth="yes"/>
      <point x="732" y="413"/>
      <point x="684" y="387"/>
      <point x="629" y="387" type="curve" smooth="yes"/>
      <point x="434" y="387" type="line"/>
      <point x="343" y="382" type="line"/>
      <point x="342" y="387" type="line"/>
      <point x="390" y="429" type="line"/>
      <point x="458" y="496" type="line"/>
      <point x="378" y="576" type="line"/>
      <point x="127" y="325" type="line"/>
      <point x="378" y="75" type="line"/>
    </contour>
  </outline>
</glyph>
<glyph name="uni21B0" format="2">
  <advance width="1000"/>
  <unicode hex="21B0"/>
  <outline>
    <contour>
      <point x="776" y="14" type="line"/>
      <point x="776" y="568" type="line"/>
      <point x="519" y="568" type="line"/>
      <point x="439" y="564" type="line"/>
      <point x="438" y="568" type="line"/>
      <point x="482" y="606" type="line"/>
      <point x="551" y="675" type="line"/>
      <point x="471" y="755" type="line"/>
      <point x="223" y="507" type="line"/>
      <point x="471" y="259" type="line"/>
      <point x="551" y="339" type="line"/>
      <point x="482" y="408" type="line"/>
      <point x="438" y="446" type="line"/>
      <point x="439" y="450" type="line"/>
      <point x="519" y="446" type="line"/>
      <point x="654" y="446" type="line"/>
      <point x="654" y="14" type="line"/>
    </contour>
  </outline>
</glyph>
<glyph name="uni21B6" format="2">
  <advance width="1000"/>
  <unicode hex="21B6"/>
  <outline>
    <contour>
      <point x="554" y="302" type="line"/>
      <point x="474" y="382" type="line"/>
      <point x="405" y="313" type="line"/>
      <point x="367" y="269" type="line"/>
      <point x="363" y="270" type="line"/>
      <point x="367" y="363" type="line"/>
      <point x="367" y="375" type="line" smooth="yes"/>
      <point x="367" y="499"/>
      <point x="434" y="612"/>
      <point x="593" y="612" type="curve" smooth="yes"/>
      <point x="752" y="612"/>
      <point x="819" y="497"/>
      <point x="819" y="375" type="curve"/>
      <point x="942" y="375" type="line"/>
      <point x="942" y="565"/>
      <point x="826" y="727"/>
      <point x="593" y="727" type="curve" smooth="yes"/>
      <point x="361" y="727"/>
      <point x="245" y="565"/>
      <point x="245" y="375" type="curve" smooth="yes"/>
      <point x="245" y="363" type="line"/>
      <point x="249" y="270" type="line"/>
      <point x="245" y="269" type="line"/>
      <point x="207" y="313" type="line"/>
      <point x="138" y="382" type="line"/>
      <point x="58" y="302" type="line"/>
      <point x="306" y="54" type="line"/>
    </contour>
  </outline>
</glyph>
<glyph name="uni220F" format="2">
  <advance width="1000"/>
  <unicode hex="220F"/>
  <outline>
    <contour>
      <point x="413" y="-69" type="line"/>
      <point x="413" y="694" type="line"/>
      <point x="587" y="694" type="line"/>
      <point x="587" y="-69" type="line"/>
      <point x="739" y="-69" type="line"/>
      <point x="739" y="694" type="line"/>
      <point x="839" y="694" type="line"/>
      <point x="839" y="829" type="line"/>
      <point x="161" y="829" type="line"/>
      <point x="161" y="694" type="line"/>
      <point x="261" y="694" type="line"/>
      <point x="261" y="-69" type="line"/>
    </contour>
  </outline>
</glyph>
<glyph name="uni221A" format="2">
  <advance width="1000"/>
  <unicode hex="221A"/>
  <outline>
    <contour>
      <point x="383" y="-80" type="line"/>
      <point x="661" y="880" type="line"/>
      <point x="538" y="880" type="line"/>
      <point x="346" y="219" type="line"/>
      <point x="301" y="43" type="line"/>
      <point x="293" y="43" type="line"/>
      <point x="248" y="219" type="line"/>
      <point x="184" y="445" type="line"/>
      <point x="14" y="445" type="line"/>
      <point x="14" y="321" type="line"/>
      <point x="90" y="321" type="line"/>
      <point x="207" y="-80" type="line"/>
    </contour>
    <contour>
      <point x="553" y="880" type="line"/>
      <point x="553" y="756" type="line"/>
      <point x="1000" y="756" type="line"/>
      <point x="1000" y="880" type="line"/>
    </contour>
  </outline>
</glyph>
<glyph name="uni221E" format="2">
  <advance width="1000"/>
  <unicode hex="221E"/>
  <outline>
    <contour>
      <point x="327" y="175" type="curve" smooth="yes"/>
      <point x="393" y="175"/>
      <point x="468" y="230"/>
      <point x="473" y="311" type="curve"/>
      <point x="479" y="311" type="line"/>
      <point x="513" y="211"/>
      <point x="584" y="175"/>
      <point x="673" y="175" type="curve" smooth="yes"/>
      <point x="798" y="175"/>
      <point x="874" y="252"/>
      <point x="874" y="380" type="curve" smooth="yes"/>
      <point x="874" y="508"/>
      <point x="798" y="585"/>
      <point x="673" y="585" type="curve" smooth="yes"/>
      <point x="607" y="585"/>
      <point x="532" y="530"/>
      <point x="527" y="449" type="curve"/>
      <point x="521" y="449" type="line"/>
      <point x="488" y="549"/>
      <point x="416" y="585"/>
      <point x="327" y="585" type="curve" smooth="yes"/>
      <point x="202" y="585"/>
      <point x="126" y="508"/>
      <point x="126" y="380" type="curve" smooth="yes"/>
      <point x="126" y="252"/>
      <point x="202" y="175"/>
    </contour>
    <contour>
      <point x="327" y="288" type="curve" smooth="yes"/>
      <point x="282" y="288"/>
      <point x="255" y="317"/>
      <point x="255" y="371" type="curve" smooth="yes"/>
      <point x="255" y="389" type="line" smooth="yes"/>
      <point x="255" y="443"/>
      <point x="282" y="472"/>
      <point x="327" y="472" type="curve" smooth="yes"/>
      <point x="384" y="472"/>
      <point x="424" y="422"/>
      <point x="444" y="368" type="curve"/>
      <point x="429" y="327"/>
      <point x="384" y="288"/>
    </contour>
    <contour>
      <point x="673" y="288" type="curve" smooth="yes"/>
      <point x="616" y="288"/>
      <point x="576" y="338"/>
      <point x="556" y="392" type="curve"/>
      <point x="571" y="433"/>
      <point x="616" y="472"/>
      <point x="673" y="472" type="curve" smooth="yes"/>
      <point x="718" y="472"/>
      <point x="745" y="443"/>
      <point x="745" y="389" type="curve" smooth="yes"/>
      <point x="745" y="371" type="line" smooth="yes"/>
      <point x="745" y="317"/>
      <point x="718" y="288"/>
    </contour>
  </outline>
</glyph>
<glyph name="uni221F" format="2">
  <advance width="1000"/>
  <unicode hex="221F"/>
  <outline>
    <contour>
      <point x="836" y="30" type="line"/>
      <point x="836" y="161" type="line"/>
      <point x="322" y="161" type="line"/>
      <point x="322" y="702" type="line"/>
      <point x="184" y="702" type="line"/>
      <point x="184" y="30" type="line"/>
    </contour>
  </outline>
</glyph>
<glyph name="uni2225" format="2">
  <advance width="1000"/>
  <unicode hex="2225"/>
  <outline>
    <contour>
      <point x="868" y="665" type="line"/>
      <point x="750" y="725" type="line"/>
      <point x="406" y="57" type="line"/>
      <point x="524" y="-3" type="line"/>
    </contour>
    <contour>
      <point x="593" y="665" type="line"/>
      <point x="475" y="725" type="line"/>
      <point x="131" y="57" type="line"/>
      <point x="249" y="-3" type="line"/>
    </contour>
  </outline>
</glyph>
<glyph name="uni2227" format="2">
  <advance width="1000"/>
  <unicode hex="2227"/>
  <outline>
    <contour>
      <point x="135" y="31" type="line"/>
      <point x="289" y="31" type="line"/>
      <point x="501" y="585" type="line"/>
      <point x="506" y="585" type="line"/>
      <point x="716" y="31" type="line"/>
      <point x="865" y="31" type="line"/>
      <point x="584" y="729" type="line"/>
      <point x="414" y="729" type="line"/>
    </contour>
  </outline>
</glyph>
<glyph name="uni222B" format="2">
  <advance width="1000"/>
  <unicode hex="222B"/>
  <outline>
    <contour>
      <point x="311" y="-90" type="line"/>
      <point x="417" y="-90" type="line" smooth="yes"/>
      <point x="523" y="-90"/>
      <point x="574" y="-27"/>
      <point x="574" y="60" type="curve" smooth="yes"/>
      <point x="574" y="735" type="line"/>
      <point x="689" y="735" type="line"/>
      <point x="689" y="850" type="line"/>
      <point x="583" y="850" type="line" smooth="yes"/>
      <point x="476" y="850"/>
      <point x="426" y="787"/>
      <point x="426" y="700" type="curve" smooth="yes"/>
      <point x="426" y="25" type="line"/>
      <point x="311" y="25" type="line"/>
    </contour>
  </outline>
</glyph>
<glyph name="uni223D" format="2">
  <advance width="1000"/>
  <unicode hex="223D"/>
  <outline>
    <contour>
      <point x="444" y="392" type="curve" smooth="yes"/>
      <point x="421" y="339"/>
      <point x="384" y="288"/>
      <point x="327" y="288" type="curve" smooth="yes"/>
      <point x="282" y="288"/>
      <point x="255" y="317"/>
      <point x="255" y="371" type="curve" smooth="yes"/>
      <point x="255" y="389" type="line" smooth="yes"/>
      <point x="255" y="443"/>
      <point x="282" y="472"/>
      <point x="327" y="472" type="curve" smooth="yes"/>
      <point x="355" y="472"/>
      <point x="380" y="463"/>
      <point x="400" y="448" type="curve"/>
      <point x="455" y="509" type="line"/>
      <point x="427" y="556"/>
      <point x="375" y="585"/>
      <point x="327" y="585" type="curve" smooth="yes"/>
      <point x="202" y="585"/>
      <point x="126" y="508"/>
      <point x="126" y="380" type="curve" smooth="yes"/>
      <point x="126" y="252"/>
      <point x="202" y="175"/>
      <point x="327" y="175" type="curve" smooth="yes"/>
      <point x="416" y="175"/>
      <point x="494" y="209"/>
      <point x="556" y="368" type="curve" smooth="yes"/>
      <point x="577" y="422"/>
      <point x="616" y="472"/>
      <point x="673" y="472" type="curve" smooth="yes"/>
      <point x="718" y="472"/>
      <point x="745" y="443"/>
      <point x="745" y="389" type="curve" smooth="yes"/>
      <point x="745" y="371" type="line" smooth="yes"/>
      <point x="745" y="317"/>
      <point x="718" y="288"/>
      <point x="673" y="288" type="curve" smooth="yes"/>
      <point x="643" y="288"/>
      <point x="616" y="299"/>
      <point x="596" y="315" type="curve"/>
      <point x="542" y="256" type="line"/>
      <point x="568" y="206"/>
      <point x="623" y="175"/>
      <point x="673" y="175" type="curve" smooth="yes"/>
      <point x="798" y="175"/>
      <point x="874" y="252"/>
      <point x="874" y="380" type="curve" smooth="yes"/>
      <point x="874" y="508"/>
      <point x="798" y="585"/>
      <point x="673" y="585" type="curve" smooth="yes"/>
      <point x="584" y="585"/>
      <point x="512" y="549"/>
    </contour>
  </outline>
</glyph>
<glyph name="uni2260" format="2">
  <advance width="600"/>
  <unicode hex="2260"/>
  <outline>
    <contour>
      <point x="218" y="53" type="line"/>
      <point x="268" y="146" type="line"/>
      <point x="533" y="146" type="line"/>
      <point x="533" y="262" type="line"/>
      <point x="330" y="262" type="line"/>
      <point x="392" y="380" type="line"/>
      <point x="533" y="380" type="line"/>
      <point x="533" y="496" type="line"/>
      <point x="453" y="496" type="line"/>
      <point x="504" y="591" type="line"/>
      <point x="378" y="591" type="line"/>
      <point x="327" y="496" type="line"/>
      <point x="67" y="496" type="line"/>
      <point x="67" y="380" type="line"/>
      <point x="266" y="380" type="line"/>
      <point x="205" y="262" type="line"/>
      <point x="67" y="262" type="line"/>
      <point x="67" y="146" type="line"/>
      <point x="143" y="146" type="line"/>
      <point x="93" y="53" type="line"/>
    </contour>
  </outline>
</glyph>
<glyph name="uni2261" format="2">
  <advance width="1000"/>
  <unicode hex="2261"/>
  <outline>
    <contour>
      <point x="870" y="525" type="line"/>
      <point x="870" y="641" type="line"/>
      <point x="130" y="641" type="line"/>
      <point x="130" y="525" type="line"/>
    </contour>
    <contour>
      <point x="870" y="322" type="line"/>
      <point x="870" y="438" type="line"/>
      <point x="130" y="438" type="line"/>
      <point x="130" y="322" type="line"/>
    </contour>
    <contour>
      <point x="870" y="119" type="line"/>
      <point x="870" y="235" type="line"/>
      <point x="130" y="235" type="line"/>
      <point x="130" y="119" type="line"/>
    </contour>
  </outline>
</glyph>
<glyph name="uni2267" format="2">
  <advance width="1000"/>
  <unicode hex="2267"/>
  <outline>
    <contour>
      <point x="130" y="792" type="line"/>
      <point x="130" y="681" type="line"/>
      <point x="663" y="568" type="line"/>
      <point x="663" y="561" type="line"/>
      <point x="130" y="482" type="line"/>
      <point x="130" y="371" type="line"/>
      <point x="870" y="503" type="line"/>
      <point x="870" y="626" type="line"/>
    </contour>
    <contour>
      <point x="870" y="206" type="line"/>
      <point x="870" y="319" type="line"/>
      <point x="130" y="319" type="line"/>
      <point x="130" y="206" type="line"/>
    </contour>
    <contour>
      <point x="870" y="22" type="line"/>
      <point x="870" y="135" type="line"/>
      <point x="130" y="135" type="line"/>
      <point x="130" y="22" type="line"/>
    </contour>
  </outline>
</glyph>
<glyph name="uni226F" format="2">
  <advance width="1000"/>
  <unicode hex="226F"/>
  <outline>
    <contour>
      <point x="862" y="294" type="line"/>
      <point x="862" y="427" type="line"/>
      <point x="128" y="719" type="line"/>
      <point x="128" y="594" type="line"/>
      <point x="716" y="364" type="line"/>
      <point x="716" y="357" type="line"/>
      <point x="128" y="126" type="line"/>
      <point x="128" y="1" type="line"/>
    </contour>
    <contour>
      <point x="411" y="-20" type="line"/>
      <point x="641" y="750" type="line"/>
      <point x="521" y="750" type="line"/>
      <point x="291" y="-20" type="line"/>
    </contour>
  </outline>
</glyph>
<glyph name="uni2295" format="2">
  <advance width="1000"/>
  <unicode hex="2295"/>
  <outline>
    <contour>
      <point x="551" y="74" type="line"/>
      <point x="551" y="330" type="line"/>
      <point x="796" y="330" type="line"/>
      <point x="796" y="430" type="line"/>
      <point x="551" y="430" type="line"/>
      <point x="551" y="686" type="line"/>
      <point x="449" y="686" type="line"/>
      <point x="449" y="430" type="line"/>
      <point x="204" y="430" type="line"/>
      <point x="204" y="330" type="line"/>
      <point x="449" y="330" type="line"/>
      <point x="449" y="74" type="line"/>
    </contour>
    <contour>
      <point x="500" y="-90" type="curve" smooth="yes"/>
      <point x="760" y="-90"/>
      <point x="970" y="120"/>
      <point x="970" y="380" type="curve" smooth="yes"/>
      <point x="970" y="640"/>
      <point x="760" y="850"/>
      <point x="500" y="850" type="curve" smooth="yes"/>
      <point x="240" y="850"/>
      <point x="30" y="640"/>
      <point x="30" y="380" type="curve" smooth="yes"/>
      <point x="30" y="120"/>
      <point x="240" y="-90"/>
    </contour>
    <contour>
      <point x="500" y="-40" type="curve" smooth="yes"/>
      <point x="268" y="-40"/>
      <point x="80" y="148"/>
      <point x="80" y="380" type="curve" smooth="yes"/>
      <point x="80" y="612"/>
      <point x="268" y="800"/>
      <point x="500" y="800" type="curve" smooth="yes"/>
      <point x="732" y="800"/>
      <point x="920" y="612"/>
      <point x="920" y="380" type="curve" smooth="yes"/>
      <point x="920" y="148"/>
      <point x="732" y="-40"/>
    </contour>
  </outline>
</glyph>
<glyph name="uni22A5" format="2">
  <advance width="1000"/>
  <unicode hex="22A5"/>
  <outline>
    <contour>
      <point x="572" y="166" type="line"/>
      <point x="572" y="702" type="line"/>
      <point x="429" y="702" type="line"/>
      <point x="429" y="166" type="line"/>
      <point x="166" y="166" type="line"/>
      <point x="166" y="30" type="line"/>
      <point x="834" y="30" type="line"/>
      <point x="834" y="166" type="line"/>
    </contour>
  </outline>
</glyph>
<glyph name="uni22BF" format="2">
  <advance width="1000"/>
  <unicode hex="22BF"/>
  <outline>
    <contour>
      <point x="798" y="696" type="line"/>
      <point x="144" y="30" type="line"/>
      <point x="798" y="30" type="line"/>
    </contour>
    <contour>
      <point x="673" y="400" type="line"/>
      <point x="673" y="137" type="line"/>
      <point x="421" y="137" type="line"/>
    </contour>
  </outline>
</glyph>
<glyph name="uni3008" format="2">
  <advance width="1000"/>
  <unicode hex="2329"/>
  <unicode hex="3008"/>
  <anchor x="500" y="0" name="LSB"/>
  <anchor x="1000" y="0" name="RSB"/>
  <outline>
    <contour>
      <point x="955" y="-80" type="line"/>
      <point x="741" y="380" type="line"/>
      <point x="955" y="840" type="line"/>
      <point x="815" y="840" type="line"/>
      <point x="600" y="380" type="line"/>
      <point x="815" y="-80" type="line"/>
    </contour>
  </outline>
</glyph>
<glyph name="uni2461" format="2">
  <advance width="1000"/>
  <unicode hex="2461"/>
  <outline>
    <contour>
      <point x="500" y="-90" type="curve" smooth="yes"/>
      <point x="760" y="-90"/>
      <point x="970" y="120"/>
      <point x="970" y="380" type="curve" smooth="yes"/>
      <point x="970" y="640"/>
      <point x="760" y="850"/>
      <point x="500" y="850" type="curve" smooth="yes"/>
      <point x="240" y="850"/>
      <point x="30" y="640"/>
      <point x="30" y="380" type="curve" smooth="yes"/>
      <point x="30" y="120"/>
      <point x="240" y="-90"/>
    </contour>
    <contour>
      <point x="500" y="-40" type="curve" smooth="yes"/>
      <point x="268" y="-40"/>
      <point x="80" y="148"/>
      <point x="80" y="380" type="curve" smooth="yes"/>
      <point x="80" y="612"/>
      <point x="268" y="800"/>
      <point x="500" y="800" type="curve" smooth="yes"/>
      <point x="732" y="800"/>
      <point x="920" y="612"/>
      <point x="920" y="380" type="curve" smooth="yes"/>
      <point x="920" y="148"/>
      <point x="732" y="-40"/>
    </contour>
    <contour>
      <point x="652" y="246" type="line"/>
      <point x="428" y="246" type="line"/>
      <point x="435" y="229" type="line"/>
      <point x="530" y="302" type="line" smooth="yes"/>
      <point x="586" y="345"/>
      <point x="644" y="391"/>
      <point x="644" y="466" type="curve" smooth="yes"/>
      <point x="644" y="539"/>
      <point x="591" y="593"/>
      <point x="500" y="593" type="curve" smooth="yes"/>
      <point x="412" y="593"/>
      <point x="363" y="544"/>
      <point x="344" y="485" type="curve"/>
      <point x="426" y="454" type="line"/>
      <point x="435" y="487"/>
      <point x="455" y="511"/>
      <point x="491" y="511" type="curve" smooth="yes"/>
      <point x="516" y="511"/>
      <point x="544" y="496"/>
      <point x="544" y="466" type="curve" smooth="yes"/>
      <point x="544" y="458" type="line" smooth="yes"/>
      <point x="544" y="423"/>
      <point x="527" y="400"/>
      <point x="481" y="361" type="curve" smooth="yes"/>
      <point x="354" y="253" type="line"/>
      <point x="354" y="167" type="line"/>
      <point x="652" y="167" type="line"/>
    </contour>
  </outline>
</glyph>
<glyph name="uni2462" format="2">
  <advance width="1000"/>
  <unicode hex="2462"/>
  <outline>
    <contour>
      <point x="500" y="-90" type="curve" smooth="yes"/>
      <point x="760" y="-90"/>
      <point x="970" y="120"/>
      <point x="970" y="380" type="curve" smooth="yes"/>
      <point x="970" y="640"/>
      <point x="760" y="850"/>
      <point x="500" y="850" type="curve" smooth="yes"/>
      <point x="240" y="850"/>
      <point x="30" y="640"/>
      <point x="30" y="380" type="curve" smooth="yes"/>
      <point x="30" y="120"/>
      <point x="240" y="-90"/>
    </contour>
    <contour>
      <point x="484" y="158" type="curve" smooth="yes"/>
      <point x="580" y="158"/>
      <point x="645" y="207"/>
      <point x="645" y="282" type="curve" smooth="yes"/>
      <point x="645" y="346"/>
      <point x="598" y="380"/>
      <point x="539" y="384" type="curve"/>
      <point x="561" y="354" type="line"/>
      <point x="561" y="414" type="line"/>
      <point x="540" y="385" type="line"/>
      <point x="591" y="386"/>
      <point x="638" y="419"/>
      <point x="638" y="480" type="curve" smooth="yes"/>
      <point x="638" y="547"/>
      <point x="579" y="591"/>
      <point x="488" y="591" type="curve" smooth="yes"/>
      <point x="415" y="591"/>
      <point x="374" y="562"/>
      <point x="342" y="521" type="curve"/>
      <point x="401" y="465" type="line"/>
      <point x="422" y="497"/>
      <point x="453" y="514"/>
      <point x="485" y="514" type="curve" smooth="yes"/>
      <point x="519" y="514"/>
      <point x="539" y="494"/>
      <point x="539" y="466" type="curve" smooth="yes"/>
      <point x="539" y="462" type="line" smooth="yes"/>
      <point x="539" y="438"/>
      <point x="520" y="420"/>
      <point x="477" y="420" type="curve" smooth="yes"/>
      <point x="439" y="420" type="line"/>
      <point x="439" y="341" type="line"/>
      <point x="475" y="341" type="line" smooth="yes"/>
      <point x="519" y="341"/>
      <point x="547" y="325"/>
      <point x="547" y="292" type="curve" smooth="yes"/>
      <point x="547" y="289" type="line" smooth="yes"/>
      <point x="547" y="256"/>
      <point x="524" y="234"/>
      <point x="484" y="234" type="curve" smooth="yes"/>
      <point x="441" y="234"/>
      <point x="416" y="258"/>
      <point x="398" y="293" type="curve"/>
      <point x="328" y="239" type="line"/>
      <point x="355" y="197"/>
      <point x="397" y="158"/>
    </contour>
    <contour>
      <point x="500" y="-40" type="curve" smooth="yes"/>
      <point x="268" y="-40"/>
      <point x="80" y="148"/>
      <point x="80" y="380" type="curve" smooth="yes"/>
      <point x="80" y="612"/>
      <point x="268" y="800"/>
      <point x="500" y="800" type="curve" smooth="yes"/>
      <point x="732" y="800"/>
      <point x="920" y="612"/>
      <point x="920" y="380" type="curve" smooth="yes"/>
      <point x="920" y="148"/>
      <point x="732" y="-40"/>
    </contour>
  </outline>
</glyph>
